<svg width="608" height="250" viewBox="0 0 608 250" fill="none" xmlns="http://www.w3.org/2000/svg">
<path d="M414.9 126.4H408.7L397 62.7C392.7 39.2 372.2 22 348.2 22H251.8C250.2 22 248.6 22.1 247 22.3C245.4 22.1 243.9 22 242.2 22H145.8C121.9 22 101.3 39.1 97 62.7L85.3 126.4H79.1C74.6 126.4 71 130 71 134.5C71 139 74.7 142.6 79.1 142.6H85L94.8 191.6C99 212.6 117.6 227.8 139 227.8H354.9C376.3 227.8 394.9 212.6 399 191.6L408.8 142.6H414.7C419.2 142.6 422.8 139 422.8 134.5C422.8 130 419.4 126.5 414.9 126.4Z" fill="#FF684D"/>
<path d="M324.4 138.6L327 139.5C329.8 137 332.2 131.8 334 128.5C331 122.1 332.7 114.9 303.6 115.5C304.7 147.8 310.3 207.9 310.3 207.9C310.6 209.8 312.2 211.3 314.1 211.4L328.3 212.1C328.8 202.8 320.9 202.6 320.9 202.6L320 188.3C319.8 185.6 320 182.9 320.4 180.2L323.9 159.3C324 157.1 325.3 151.1 326.9 149.6L324.4 138.6Z" fill="#969696"/>
<path d="M261.4 137.3C260.7 127 252.2 118.7 241.8 118.3C232.7 118 224.9 123.5 221.9 131.5L221.8 131.4L214.5 165C213.6 169.2 211.4 173.1 208.2 176L201.6 182.1C199.9 183.7 199.7 186.3 201.2 188.2L219.9 211.1C221.2 212.7 223 213.5 225 213.5H239.4C239.4 200.7 225.4 201.4 225.4 201.4L218.1 190.1C217.3 188.9 217.6 187.2 218.8 186.3L233.7 175.6C235.2 174.5 236.5 173.4 237.8 172L258.1 150.6L257.8 150.5C260.3 146.8 261.8 142.2 261.4 137.3Z" fill="#969696"/>
<path d="M361.6 75.8999V74.1999C361.6 73.4999 361.3 72.8999 360.9 72.3999L354.1 65.5999C353.1 64.4999 351.7 63.8999 350.2 63.7999L347 63.4999L345.3 41.9999C345.2 40.5999 343.4 39.9999 342.5 41.0999L301.4 87.4999L206.7 121.9C196.7 125.5 187.8 131.8 181 139.9C164.4 159.9 133.5 196.8 133.3 196.6C164.5 216.2 196.3 159.8 196.3 159.8L280.5 166.7C287.4 167.3 294.3 166.6 300.9 164.8C300.5 164.5 293.5 121.3 293.7 121.2C322.7 119.1 333.1 131.6 336.4 137.8C338.3 133.9 339.4 129.6 339.6 125.2L340.7 103.1C340.8 100.4 343 98.2999 345.6 98.0999L340.2 96.2999C338.2 95.6999 337.8 92.9999 339.5 91.7999L361.6 75.8999Z" fill="#D3D3D3"/>
<path d="M379.4 85L361.6 75.9L339.6 92C337.9 93.2 338.4 95.8 340.3 96.4L345.8 98.2C346.3 98.2 346.8 98.2 347.4 98.3L348.4 98.5L357.7 100.7C361.3 101.5 365.1 100.6 367.8 98.1L375.4 91.2L379.3 89.5C381.3 88.8 381.4 86 379.4 85Z" fill="#1B1C1C"/>
<path d="M358.7 76.4999L356.5 74.0999C356 73.5999 355.4 73.2999 354.6 73.2999C353.9 73.2999 353.2 73.5999 352.7 74.0999L349.9 76.5999H352.1C352.4 77.6999 353.4 78.5999 354.6 78.5999C355.8 78.5999 356.9 77.7999 357.2 76.5999L358.7 76.4999Z" fill="#1B1C1C"/>
<path d="M355.6 75.7C355.876 75.7 356.1 75.4761 356.1 75.2C356.1 74.9238 355.876 74.7 355.6 74.7C355.324 74.7 355.1 74.9238 355.1 75.2C355.1 75.4761 355.324 75.7 355.6 75.7Z" fill="white"/>
<path d="M235.2 140.1C234.5 129.8 226 121.5 215.6 121.1C206.5 120.8 198.7 126.3 195.7 134.3L195.6 134.2L186.2 164.3C185.3 167.2 183 169.3 180.1 170.1L173.9 171.6C171.6 172.2 169.8 174.1 169.3 176.4L161.9 212.3C161.5 214.4 163.1 216.4 165.3 216.4C172.2 216.3 185.1 216.2 184.8 216.5C184.8 205 174 204.4 174 204.4L184 184.3C184.5 183.3 185.4 182.6 186.5 182.4L206.5 178.8C213.1 177.6 218.9 173.7 222.5 168.1L231.7 153.6L231.4 153.5C234 149.6 235.5 145 235.2 140.1Z" fill="#E5E5E5"/>
<path d="M377.8 87.9C378.628 87.9 379.3 87.497 379.3 87C379.3 86.5029 378.628 86.1 377.8 86.1C376.971 86.1 376.3 86.5029 376.3 87C376.3 87.497 376.971 87.9 377.8 87.9Z" fill="white"/>
<path d="M342.2 113.3C342 113.3 341.8 113.3 341.6 113.3C306.2 107.7 298.1 92.9 296.4 88C296.1 87.1 296.3 86.1 296.8 85.4C297.7 84.2 299.4 84 300.6 84.9L301.8 87.4C301.8 87.4 302.3 89.6 307.7 94.3C312.7 98.8 322.9 104.7 342.5 107.8C344 108 345.1 109.5 344.8 111C344.6 112.3 343.5 113.3 342.2 113.3Z" fill="#FF2802"/>
<path d="M327.5 149.4L330 147C332.7 144.3 334.9 141.3 336.5 137.9C333.1 131.7 322.7 119.2 293.8 121.3C296.5 153.5 305.2 213.3 305.2 213.3C305.6 215.2 307.2 216.6 309.2 216.6H323.4C323.4 207.3 315.5 207.5 315.5 207.5L313.9 193.3C313.6 190.6 313.6 187.9 313.9 185.2L316.3 164.1C316.3 161.9 317.2 159.8 318.8 158.2L327.5 149.4Z" fill="#E5E5E5"/>
<path d="M131.2 47.5V101" stroke="white" stroke-width="6" stroke-linecap="round" stroke-linejoin="round"/>
<path d="M147.2 47.5V101" stroke="white" stroke-width="6" stroke-linecap="round" stroke-linejoin="round"/>
<path d="M165.2 47.5V101" stroke="white" stroke-width="6" stroke-linecap="round" stroke-linejoin="round"/>
<path d="M493.5 109C517.5 109 537 89.5 537 65.5C537 41.5 517.5 22 493.5 22C469.5 22 450 41.5 450 65.5C450 89.5 469.4 109 493.5 109Z" fill="#1B1B1B"/>
<path d="M493.5 194.8C513.1 194.8 528.9 178.9 528.9 159.4C528.9 139.9 513 124 493.5 124C473.9 124 458.1 139.9 458.1 159.4C458.1 178.9 473.9 194.8 493.5 194.8Z" fill="#1B1B1B"/>
<path d="M469.2 172V158.8L466 160.1V157.3L470.4 155.5H472.4V172H469.2Z" fill="white"/>
<path d="M480.4 172.2C478.1 172.2 476.2 171.5 474.5 170L476.3 167.9C477 168.5 477.7 168.9 478.3 169.2C478.9 169.5 479.7 169.6 480.5 169.6C481.1 169.6 481.7 169.5 482.2 169.2C482.7 169 483 168.6 483.3 168.2C483.6 167.8 483.7 167.3 483.7 166.7C483.7 165.9 483.4 165.2 482.8 164.7C482.2 164.2 481.4 163.9 480.4 163.9C479.9 163.9 479.4 164 478.9 164.1C478.4 164.2 477.9 164.5 477.4 164.7L475.2 164L475.6 155.3H486V157.9H478.3L478.1 162.1C478.7 161.8 479.2 161.6 479.8 161.5C480.3 161.4 480.8 161.4 481.4 161.4C482.5 161.4 483.5 161.6 484.3 162C485.1 162.4 485.8 163 486.2 163.8C486.7 164.6 486.9 165.4 486.9 166.4C486.9 167.5 486.6 168.5 486.1 169.3C485.6 170.1 484.8 170.8 483.8 171.3C482.8 172 481.7 172.2 480.4 172.2Z" fill="white"/>
<path d="M497.8 172V168.1H488.5V165.5L497.3 155.5H501V165.4H503V168.1H501V172H497.8ZM492.2 165.4H497.7V159.1L492.2 165.4Z" fill="white"/>
<path d="M507.6 172.2V160.2L509.9 159.8V172.2H507.6Z" fill="white"/>
<path d="M511.8 172.2V160.2L514.1 159.8V164C514.8 163.4 515.6 163.2 516.6 163.2C517.4 163.2 518.2 163.4 518.9 163.8C519.6 164.2 520.1 164.8 520.5 165.4C520.9 166.1 521.1 166.9 521.1 167.7C521.1 168.5 520.9 169.3 520.5 170C520.1 170.7 519.5 171.2 518.8 171.6C518.1 172 517.3 172.2 516.5 172.2C516.1 172.2 515.6 172.1 515.2 172C514.8 171.9 514.4 171.7 514 171.5V172.1H511.8V172.2ZM516.2 170.3C516.7 170.3 517.1 170.2 517.5 170C517.9 169.8 518.2 169.5 518.4 169.1C518.6 168.7 518.7 168.3 518.7 167.8C518.7 167.3 518.6 166.9 518.4 166.5C518.2 166.1 517.9 165.8 517.5 165.6C517.1 165.4 516.7 165.3 516.2 165.3C515.8 165.3 515.4 165.4 515 165.5C514.6 165.6 514.3 165.9 514.1 166.1V169.6C514.3 169.9 514.7 170.1 515 170.2C515.4 170.2 515.8 170.3 516.2 170.3Z" fill="white"/>
<path d="M464.2 81.4999L473.3 64.5999H462V61.2999H477.4V64.0999L468.8 81.4999H464.2Z" fill="white"/>
<path d="M487.9 81.7999C486.1 81.7999 484.6 81.3999 483.3 80.4999C482 79.5999 480.9 78.3999 480.2 76.7999C479.5 75.1999 479.1 73.3999 479.1 71.3999C479.1 69.2999 479.5 67.4999 480.2 65.8999C480.9 64.2999 482 63.0999 483.3 62.1999C484.6 61.2999 486.2 60.8999 487.9 60.8999C489.7 60.8999 491.2 61.2999 492.6 62.1999C493.9 63.0999 495 64.2999 495.7 65.8999C496.4 67.4999 496.8 69.2999 496.8 71.3999C496.8 73.4999 496.4 75.2999 495.7 76.7999C495 78.2999 493.9 79.5999 492.6 80.4999C491.2 81.3999 489.7 81.7999 487.9 81.7999ZM487.9 78.3999C488.9 78.3999 489.8 78.0999 490.6 77.5999C491.4 76.9999 491.9 76.1999 492.3 75.1999C492.7 74.1999 492.9 72.8999 492.9 71.4999C492.9 70.0999 492.7 68.7999 492.3 67.7999C491.9 66.7999 491.3 65.8999 490.6 65.3999C489.8 64.7999 489 64.5999 487.9 64.5999C486.9 64.5999 486 64.8999 485.2 65.3999C484.4 65.9999 483.9 66.7999 483.5 67.7999C483.1 68.7999 482.9 70.0999 482.9 71.4999C482.9 72.8999 483.1 74.1999 483.5 75.1999C483.9 76.1999 484.5 77.0999 485.2 77.5999C486 78.0999 486.9 78.3999 487.9 78.3999Z" fill="white"/>
<path d="M503 81.1999V66.4999L505.9 65.9999V74.7999L510.6 70.1999H513.9L508.7 75.1999L514.2 81.0999H510.5L505.9 76.0999V81.0999H503V81.1999Z" fill="white"/>
<path d="M519.5 85.6999C518.7 85.6999 517.8 85.5999 517.1 85.3999C516.3 85.1999 515.6 84.9999 515 84.6999L516 82.4999C516.6 82.7999 517.2 82.9999 517.8 83.1999C518.4 83.2999 518.9 83.3999 519.5 83.3999C520.4 83.3999 521 83.1999 521.4 82.8999C521.8 82.4999 522.1 81.9999 522.1 81.2999V80.3999C521.2 81.0999 520.2 81.3999 519.1 81.3999C518.1 81.3999 517.1 81.1999 516.3 80.6999C515.5 80.1999 514.8 79.4999 514.3 78.6999C513.8 77.8999 513.6 76.8999 513.6 75.8999C513.6 74.8999 513.8 73.8999 514.3 73.0999C514.8 72.2999 515.5 71.5999 516.3 71.0999C517.1 70.5999 518.1 70.3999 519.2 70.3999C519.7 70.3999 520.2 70.4999 520.8 70.5999C521.3 70.7999 521.8 70.9999 522.2 71.2999V70.5999H525V81.4999C525 82.8999 524.5 84.0999 523.6 84.7999C522.5 85.2999 521.2 85.6999 519.5 85.6999ZM519.4 78.7999C519.9 78.7999 520.4 78.6999 520.8 78.4999C521.2 78.2999 521.6 78.0999 521.9 77.7999V73.4999C521.6 73.1999 521.2 72.9999 520.8 72.7999C520.4 72.5999 519.9 72.4999 519.4 72.4999C518.8 72.4999 518.3 72.5999 517.8 72.8999C517.3 73.1999 516.9 73.4999 516.7 73.9999C516.4 74.4999 516.3 74.9999 516.3 75.5999C516.3 76.1999 516.4 76.6999 516.7 77.1999C517 77.6999 517.4 78.0999 517.8 78.2999C518.3 78.6999 518.9 78.7999 519.4 78.7999Z" fill="white"/>
<path d="M476.173 51V41.2H478.203V45.148H482.711V41.2H484.741V51H482.711V46.982H478.203V51H476.173ZM488.584 51.126C488.061 51.126 487.599 51.0327 487.198 50.846C486.797 50.65 486.484 50.384 486.26 50.048C486.036 49.712 485.924 49.3247 485.924 48.886C485.924 48.186 486.185 47.6447 486.708 47.262C487.24 46.87 487.968 46.674 488.892 46.674C489.527 46.674 490.124 46.772 490.684 46.968V46.436C490.684 46.016 490.553 45.6987 490.292 45.484C490.031 45.2693 489.648 45.162 489.144 45.162C488.836 45.162 488.505 45.2133 488.15 45.316C487.795 45.4093 487.385 45.5587 486.918 45.764L486.218 44.35C486.797 44.0887 487.347 43.8927 487.87 43.762C488.402 43.6313 488.934 43.566 489.466 43.566C490.446 43.566 491.207 43.804 491.748 44.28C492.299 44.7467 492.574 45.4093 492.574 46.268V51H490.684V50.482C490.385 50.706 490.063 50.8693 489.718 50.972C489.373 51.0747 488.995 51.126 488.584 51.126ZM487.744 48.844C487.744 49.124 487.865 49.348 488.108 49.516C488.351 49.6747 488.673 49.754 489.074 49.754C489.391 49.754 489.685 49.7167 489.956 49.642C490.227 49.558 490.469 49.4367 490.684 49.278V48.214C490.451 48.1207 490.208 48.0507 489.956 48.004C489.704 47.9573 489.433 47.934 489.144 47.934C488.705 47.934 488.36 48.018 488.108 48.186C487.865 48.3447 487.744 48.564 487.744 48.844ZM496.756 51.14C496.084 51.14 495.463 51.056 494.894 50.888C494.324 50.7107 493.83 50.4587 493.41 50.132L494.362 48.858C494.782 49.138 495.183 49.348 495.566 49.488C495.958 49.628 496.345 49.698 496.728 49.698C497.157 49.698 497.498 49.628 497.75 49.488C498.011 49.3387 498.142 49.1473 498.142 48.914C498.142 48.7273 498.067 48.578 497.918 48.466C497.778 48.354 497.549 48.2747 497.232 48.228L495.832 48.018C495.104 47.906 494.553 47.6727 494.18 47.318C493.806 46.954 493.62 46.478 493.62 45.89C493.62 45.414 493.741 45.008 493.984 44.672C494.236 44.3267 494.586 44.0607 495.034 43.874C495.491 43.678 496.032 43.58 496.658 43.58C497.19 43.58 497.708 43.6547 498.212 43.804C498.725 43.9533 499.206 44.182 499.654 44.49L498.73 45.736C498.328 45.484 497.946 45.302 497.582 45.19C497.218 45.078 496.849 45.022 496.476 45.022C496.13 45.022 495.85 45.0873 495.636 45.218C495.43 45.3487 495.328 45.5213 495.328 45.736C495.328 45.932 495.402 46.086 495.552 46.198C495.701 46.31 495.958 46.3893 496.322 46.436L497.708 46.646C498.436 46.7487 498.991 46.982 499.374 47.346C499.756 47.7007 499.948 48.1627 499.948 48.732C499.948 49.1987 499.808 49.614 499.528 49.978C499.248 50.3327 498.87 50.6173 498.394 50.832C497.918 51.0373 497.372 51.14 496.756 51.14ZM504.224 51.112C503.412 51.112 502.796 50.93 502.376 50.566C501.965 50.1927 501.76 49.6513 501.76 48.942V45.302H500.262V43.706H501.76V41.844L503.678 41.41V43.706H505.764V45.302H503.678V48.55C503.678 48.886 503.752 49.1287 503.902 49.278C504.051 49.418 504.312 49.488 504.686 49.488C504.872 49.488 505.04 49.4787 505.19 49.46C505.348 49.432 505.521 49.3853 505.708 49.32V50.902C505.512 50.9673 505.264 51.0187 504.966 51.056C504.676 51.0933 504.429 51.112 504.224 51.112ZM509.023 51.126C508.501 51.126 508.039 51.0327 507.637 50.846C507.236 50.65 506.923 50.384 506.699 50.048C506.475 49.712 506.363 49.3247 506.363 48.886C506.363 48.186 506.625 47.6447 507.147 47.262C507.679 46.87 508.407 46.674 509.331 46.674C509.966 46.674 510.563 46.772 511.123 46.968V46.436C511.123 46.016 510.993 45.6987 510.731 45.484C510.47 45.2693 510.087 45.162 509.583 45.162C509.275 45.162 508.944 45.2133 508.589 45.316C508.235 45.4093 507.824 45.5587 507.357 45.764L506.657 44.35C507.236 44.0887 507.787 43.8927 508.309 43.762C508.841 43.6313 509.373 43.566 509.905 43.566C510.885 43.566 511.646 43.804 512.187 44.28C512.738 44.7467 513.013 45.4093 513.013 46.268V51H511.123V50.482C510.825 50.706 510.503 50.8693 510.157 50.972C509.812 51.0747 509.434 51.126 509.023 51.126ZM508.183 48.844C508.183 49.124 508.305 49.348 508.547 49.516C508.79 49.6747 509.112 49.754 509.513 49.754C509.831 49.754 510.125 49.7167 510.395 49.642C510.666 49.558 510.909 49.4367 511.123 49.278V48.214C510.89 48.1207 510.647 48.0507 510.395 48.004C510.143 47.9573 509.873 47.934 509.583 47.934C509.145 47.934 508.799 48.018 508.547 48.186C508.305 48.3447 508.183 48.564 508.183 48.844Z" fill="white"/>
<path d="M497.54 147.88L499.676 145.05L497.593 142.317H499.291L500.519 143.972L501.736 142.317H503.381L501.331 145.029L503.509 147.88H501.8L500.487 146.107L499.174 147.88H497.54Z" fill="white"/>
<path d="M493.988 147.976C493.589 147.976 493.237 147.905 492.931 147.762C492.625 147.613 492.386 147.41 492.215 147.154C492.045 146.898 491.959 146.602 491.959 146.268C491.959 145.734 492.159 145.321 492.557 145.029C492.963 144.73 493.518 144.581 494.223 144.581C494.707 144.581 495.162 144.655 495.59 144.805V144.399C495.59 144.079 495.49 143.837 495.291 143.673C495.091 143.509 494.799 143.427 494.415 143.427C494.18 143.427 493.927 143.467 493.657 143.545C493.386 143.616 493.073 143.73 492.717 143.887L492.183 142.808C492.625 142.609 493.045 142.459 493.443 142.36C493.849 142.26 494.255 142.21 494.661 142.21C495.408 142.21 495.988 142.392 496.401 142.755C496.821 143.111 497.031 143.616 497.031 144.271V147.88H495.59V147.485C495.362 147.656 495.116 147.78 494.853 147.859C494.589 147.937 494.301 147.976 493.988 147.976ZM493.347 146.236C493.347 146.449 493.44 146.62 493.625 146.748C493.81 146.869 494.056 146.93 494.362 146.93C494.604 146.93 494.828 146.901 495.034 146.844C495.241 146.78 495.426 146.688 495.59 146.567V145.755C495.412 145.684 495.227 145.631 495.034 145.595C494.842 145.559 494.636 145.542 494.415 145.542C494.08 145.542 493.817 145.606 493.625 145.734C493.44 145.855 493.347 146.022 493.347 146.236ZM493.657 141.388L494.618 140H496.284L494.842 141.388H493.657Z" fill="white"/>
<path d="M483 147.88V140.406H484.986L487.036 144.442L489.086 140.406H491.072V147.88H489.609V142.381L487.015 147.346L484.431 142.36V147.88H483Z" fill="white"/>
</svg>
