<svg width="608" height="250" viewBox="0 0 608 250" fill="none" xmlns="http://www.w3.org/2000/svg">
<path d="M199.4 95.3001L190.6 83.2001L222.7 59.7001C242.4 45.3001 268.8 45.3001 288.5 59.7001L320.5 83.1001L311.6 95.2001L279.6 71.8001C265.2 61.2001 245.9 61.2001 231.5 71.8001L199.4 95.3001Z" fill="#FF684D"/>
<path d="M193.9 75.7002H313C342.1 75.7002 365.7 99.3002 365.7 128.4V185.5C365.7 191 361.2 195.4 355.8 195.4H151.2C145.7 195.4 141.3 191 141.3 185.5V128.4C141.2 99.3002 164.8 75.7002 193.9 75.7002Z" fill="#FF684D"/>
<path d="M147.099 36.6001H144.399V37.5001H147.099V36.6001Z" fill="#1B1B1B"/>
<path d="M354.6 37.5001H349.4V36.6001H354.6V37.5001ZM344.3 37.5001H339.1V36.6001H344.3V37.5001ZM333.9 37.5001H328.7V36.6001H333.9V37.5001ZM323.5 37.5001H318.3V36.6001H323.5V37.5001ZM313.1 37.5001H307.9V36.6001H313.1V37.5001ZM302.7 37.5001H297.5V36.6001H302.7V37.5001ZM292.4 37.5001H287.2V36.6001H292.4V37.5001ZM282 37.5001H276.8V36.6001H282V37.5001ZM271.6 37.5001H266.4V36.6001H271.6V37.5001ZM261.2 37.5001H256V36.6001H261.2V37.5001ZM250.8 37.5001H245.6V36.6001H250.8V37.5001ZM240.5 37.5001H235.3V36.6001H240.5V37.5001ZM230.1 37.5001H224.9V36.6001H230.1V37.5001ZM219.7 37.5001H214.5V36.6001H219.7V37.5001ZM209.3 37.5001H204.1V36.6001H209.3V37.5001ZM198.9 37.5001H193.7V36.6001H198.9V37.5001ZM188.6 37.5001H183.4V36.6001H188.6V37.5001ZM178.2 37.5001H173V36.6001H178.2V37.5001ZM167.8 37.5001H162.6V36.6001H167.8V37.5001ZM157.4 37.5001H152.2V36.6001H157.4V37.5001Z" fill="#1B1B1B"/>
<path d="M362.5 36.6001H359.8V37.5001H362.5V36.6001Z" fill="#1B1B1B"/>
<path d="M144.6 40.4C142.8 40.4 141.3 38.9 141.3 37.1C141.3 35.3 142.8 33.8 144.6 33.8C146.4 33.8 147.9 35.3 147.9 37.1C147.9 38.9 146.4 40.4 144.6 40.4Z" fill="#1B1B1B"/>
<path d="M362.3 40.4C364.1 40.4 365.6 38.9 365.6 37.1C365.6 35.3 364.1 33.8 362.3 33.8C360.5 33.8 359 35.3 359 37.1C359 38.9 360.5 40.4 362.3 40.4Z" fill="#1B1B1B"/>
<path d="M125.899 184.4V179.2H126.799V184.4H125.899ZM125.899 174V168.8H126.799V174H125.899ZM125.899 163.6V158.4H126.799V163.6H125.899ZM125.899 153.2V148H126.799V153.2H125.899ZM125.899 142.8V137.6H126.799V142.8H125.899ZM125.899 132.5V127.3H126.799V132.5H125.899ZM125.899 122.1V116.9H126.799V122.1H125.899ZM125.899 111.7V106.5H126.799V111.7H125.899ZM125.899 101.3V96.1001H126.799V101.3H125.899ZM125.899 90.9001V85.7001H126.799V90.9001H125.899ZM125.899 80.6001V75.4001H126.799V80.6001H125.899ZM125.899 70.2001V65.0001H126.799V70.2001H125.899ZM125.899 59.8001V54.6001H126.799V59.8001H125.899Z" fill="#1B1B1B"/>
<path d="M126.799 192.2V189.5H125.899V192.2H126.799Z" fill="#1B1B1B"/>
<path d="M123.1 52.3C123.1 50.5 124.6 49 126.4 49C128.2 49 129.7 50.5 129.7 52.3C129.7 54.1 128.2 55.6 126.4 55.6C124.6 55.6 123.1 54.1 123.1 52.3Z" fill="#1B1B1B"/>
<path d="M123.1 192C123.1 193.8 124.6 195.3 126.4 195.3C128.2 195.3 129.7 193.8 129.7 192C129.7 190.2 128.2 188.7 126.4 188.7C124.6 188.7 123.1 190.2 123.1 192Z" fill="#1B1B1B"/>
<path d="M355.999 215.7L355.399 215.1L359.199 211.3L359.799 211.9L355.999 215.7ZM363.499 208.1L362.899 207.5L366.699 203.7L367.299 204.3L363.499 208.1ZM371.099 200.6L370.499 200L374.299 196.2L374.899 196.8L371.099 200.6ZM378.599 193L377.999 192.4L381.799 188.6L382.399 189.2L378.599 193ZM386.099 185.5L385.499 184.9L388.299 182.1L388.899 182.7L386.099 185.5Z" fill="#1B1B1B"/>
<path d="M358.199 217.6C356.899 218.9 354.799 218.9 353.499 217.6C352.199 216.3 352.199 214.2 353.499 212.8C354.799 211.5 356.899 211.5 358.199 212.8C359.499 214.1 359.499 216.3 358.199 217.6Z" fill="#1B1B1B"/>
<path d="M390.8 184.7C392.1 183.4 392.1 181.3 390.8 179.9C389.5 178.6 387.4 178.6 386.1 179.9C384.8 181.2 384.8 183.3 386.1 184.7C387.4 186 389.5 186 390.8 184.7Z" fill="#1B1B1B"/>
<path d="M212 153.7L220.3 152.7C224.3 152.2 228.2 153 231.7 155.1L232.5 155.6C240.5 160.2 242.2 171.3 236 178.1L232.4 182.1L237.3 182C238.9 182 240.4 182.8 241.1 184L242.9 186.9H212.9C210.7 186.9 208.7 186.1 207 184.6L204.7 182.6C197.9 176.3 197.3 165.6 203.3 158.4C205.6 155.7 208.7 154 212 153.7Z" fill="#959595"/>
<path d="M289.5 166.7L296.9 183.1C297.9 185.3 300 186.7 302.5 186.7H325L324.5 184.9C323.9 182.2 321.5 180.5 318.9 180.5L312.8 178.8C310.9 178.3 309.5 176.8 309 175L308 171.5L308.1 169.2C308.2 167.6 307.6 166.1 306.4 165L305.9 164.5C301.3 160.1 294 160.5 290 165.6L289.5 166.7Z" fill="#959595"/>
<path d="M317.1 136.6L335.1 134.1C339.2 133.6 342.9 131.4 345.6 128.2L348.6 124.6L350.5 123.5C351.5 123 351.3 121.5 350.3 121.2L333.6 116.1C332.3 115.7 331.2 114.9 330.4 113.9L329.2 112.5C328.4 111.4 327.2 110.6 325.9 110.2L317.8 107.4C311.8 105.4 305.1 107.3 300.9 112.2L291.6 127.2C283.5 140.1 269.7 148.3 254.6 149.3L208.7 152C205.7 152.2 203 153.4 200.7 155.4C193.3 162.2 174.4 178.6 156.4 186.5C155 187.1 155.7 189.3 157.2 188.8C179.7 183.6 197.2 167.4 197.2 167.4L211.6 175.8C215.2 177.8 219.1 179.1 223.3 179.4L279.3 183.4C286.2 183.9 293.1 181.9 298.7 177.8L306.9 171.8C310.4 169.3 312.6 165.2 312.9 161L314.6 139.4C314.7 137.8 315.8 136.7 317.1 136.6Z" fill="#D2D2D2"/>
<path d="M306.9 115.4L300.4 117.2C296.7 118.3 294 121.3 293.5 125L292.7 130.9C292.3 134.3 293.9 137.6 296.8 139.3L307.4 145.3C309.8 146.7 312.9 146.4 314.9 144.5L315.5 144C316.6 143 316.8 141.7 316.2 140.4L312.3 132C311 129.2 310.2 126.2 309.8 123.2L309.1 117C309.1 115.8 307.9 115 306.9 115.4Z" fill="#959595"/>
<path d="M327.1 118.7L325.5 117C325.2 116.7 324.7 116.4 324.1 116.4C323.5 116.4 323.1 116.6 322.7 116.9L320.7 118.7H322.2C322.4 119.5 323.2 120.1 324 120.1C324.8 120.1 325.6 119.5 325.8 118.7C325.9 118.7 327.1 118.7 327.1 118.7Z" fill="#1B1C1C"/>
<path d="M350.2 121.1L333.5 116C333 115.8 332.3 115.6 331.9 115.3L331.7 115.2L326.7 122.8C325.3 125 323.4 126.8 321.2 128.1L318.3 129.7C316.7 130.5 316.3 132.7 317.5 134.2L319.1 136.3L320.2 136.2L335.2 134.1C339.3 133.6 343 131.4 345.7 128.2L348.7 124.6L350.6 123.5C351.4 122.9 351.3 121.4 350.2 121.1Z" fill="#1B1C1C"/>
<path d="M348.4 122.8C349.007 122.8 349.5 122.531 349.5 122.2C349.5 121.869 349.007 121.6 348.4 121.6C347.792 121.6 347.3 121.869 347.3 122.2C347.3 122.531 347.792 122.8 348.4 122.8Z" fill="white"/>
<path d="M314.8 152.6C314.7 152.6 314.5 152.6 314.4 152.6C289.3 148.6 283.5 138.1 282.4 134.7C282.2 134.1 282.3 133.4 282.7 132.9C283.3 132.1 284.5 131.9 285.4 132.5L286.2 134.3C286.2 134.3 286.6 135.9 290.3 139.2C293.9 142.4 301.1 146.6 315 148.9C316.1 149.1 316.8 150.1 316.6 151.1C316.5 151.8 315.7 152.5 314.8 152.6Z" fill="#FF2802"/>
<path d="M205.8 153.7L214.1 152.7C218.1 152.2 222 153 225.5 155.1L226.3 155.6C234.3 160.2 236 171.3 229.8 178.1L226.2 182.1L231.1 182C232.7 182 234.2 182.8 234.9 184L236.7 186.9H206.7C204.5 186.9 202.5 186.1 200.8 184.6L198.5 182.6C191.7 176.3 191.1 165.6 197.1 158.4C199.2 155.7 202.3 154 205.8 153.7Z" fill="#F1F1F1"/>
<path d="M284.3 167.8L291.3 183.2C292.3 185.4 294.4 186.8 296.9 186.8H319.4L318.9 185C318.3 182.3 315.9 180.6 313.3 180.6L307.2 178.9C305.3 178.4 303.9 176.9 303.4 175.1L302.4 171.6L302.5 169.3C302.6 167.7 302 166.2 300.8 165.1L300.3 164.6C295.7 160.2 288.4 160.6 284.4 165.7C284.1 166.4 283.9 167.2 284.3 167.8Z" fill="#F1F1F1"/>
<path d="M196.3 27.8C194.1 27.8 192.3 27.1 190.7 25.7L192.4 23.7C193.1 24.3 193.7 24.7 194.3 24.9C194.9 25.2 195.6 25.3 196.4 25.3C197 25.3 197.5 25.2 198 25C198.4 24.8 198.8 24.5 199.1 24.1C199.4 23.7 199.5 23.2 199.5 22.7C199.5 21.9 199.2 21.3 198.6 20.8C198 20.3 197.2 20.1 196.3 20.1C195.8 20.1 195.4 20.2 194.9 20.3C194.4 20.4 194 20.6 193.5 20.9L191.4 20.3L191.8 12H201.7V14.5H194.4L194.2 18.5C194.8 18.2 195.3 18.1 195.8 18C196.3 17.9 196.8 17.9 197.3 17.9C198.4 17.9 199.3 18.1 200.1 18.5C200.9 18.9 201.5 19.5 201.9 20.2C202.3 20.9 202.5 21.8 202.5 22.7C202.5 23.8 202.2 24.7 201.7 25.5C201.2 26.3 200.5 26.9 199.5 27.4C198.6 27.6 197.5 27.8 196.3 27.8Z" fill="black"/>
<path d="M209.4 27.8C207.2 27.8 205.4 27.1 203.8 25.7L205.5 23.7C206.2 24.3 206.8 24.7 207.4 24.9C208 25.2 208.7 25.3 209.5 25.3C210.1 25.3 210.6 25.2 211.1 25C211.5 24.8 211.9 24.5 212.2 24.1C212.5 23.7 212.6 23.2 212.6 22.7C212.6 21.9 212.3 21.3 211.7 20.8C211.1 20.3 210.3 20.1 209.4 20.1C208.9 20.1 208.5 20.2 208 20.3C207.5 20.4 207.1 20.6 206.6 20.9L204.5 20.3L204.9 12H214.8V14.5H207.5L207.3 18.5C207.9 18.2 208.4 18.1 208.9 18C209.4 17.9 209.9 17.9 210.4 17.9C211.5 17.9 212.4 18.1 213.2 18.5C214 18.9 214.6 19.5 215 20.2C215.4 20.9 215.6 21.8 215.6 22.7C215.6 23.8 215.3 24.7 214.8 25.5C214.3 26.3 213.6 26.9 212.6 27.4C211.7 27.6 210.6 27.8 209.4 27.8Z" fill="black"/>
<path d="M227.8 27.8C226.7 27.8 225.6 27.5 224.7 27C223.8 26.5 223 25.7 222.5 24.8C222 23.9 221.7 22.9 221.7 21.7C221.7 20.6 222 19.5 222.5 18.6C223 17.7 223.8 17 224.7 16.4C225.6 15.9 226.7 15.6 227.8 15.6C228.7 15.6 229.6 15.8 230.5 16.1C231.4 16.4 232.1 17 232.7 17.6L230.8 19.6C230.4 19.1 229.9 18.8 229.4 18.5C228.9 18.2 228.4 18.2 227.9 18.2C227.3 18.2 226.8 18.3 226.3 18.6C225.8 18.9 225.5 19.3 225.2 19.8C224.9 20.3 224.8 20.9 224.8 21.5C224.8 22.1 224.9 22.7 225.2 23.2C225.5 23.7 225.9 24.1 226.4 24.4C226.9 24.7 227.4 24.8 228 24.8C228.5 24.8 229 24.7 229.5 24.5C230 24.3 230.4 24 230.8 23.5L232.6 25.4C232 26 231.3 26.5 230.5 26.9C229.7 27.3 228.7 27.8 227.8 27.8Z" fill="black"/>
<path d="M234.1 27.6V15.9H237.2V16.8C238 16.1 239 15.7 240.2 15.7C241 15.7 241.6 15.9 242.2 16.2C242.8 16.5 243.3 16.9 243.7 17.5C244.2 16.9 244.7 16.5 245.4 16.2C246 15.9 246.8 15.8 247.6 15.8C248.5 15.8 249.3 16 249.9 16.4C250.6 16.8 251.1 17.3 251.5 18C251.9 18.7 252.1 19.5 252.1 20.4V27.6H249.1V20.8C249.1 20 248.9 19.4 248.5 19C248.1 18.6 247.6 18.3 246.9 18.3C246.4 18.3 246 18.4 245.6 18.6C245.2 18.8 244.9 19.1 244.6 19.5C244.6 19.6 244.6 19.8 244.6 19.9C244.6 20 244.6 20.2 244.6 20.3V27.6H241.5V20.8C241.5 20 241.3 19.4 240.9 19C240.5 18.6 240 18.3 239.3 18.3C238.8 18.3 238.4 18.4 238.1 18.6C237.7 18.8 237.4 19 237.2 19.4V27.6H234.1Z" fill="black"/>
<path d="M264.7 32.5C262.8 31.4 261.4 29.9 260.4 28.2C259.4 26.5 258.9 24.4 258.9 22.1C258.9 19.8 259.4 17.8 260.4 16C261.4 14.2 262.8 12.8 264.7 11.7L266.4 13.6C264.9 14.5 263.7 15.7 262.9 17.2C262.1 18.7 261.7 20.3 261.7 22.1C261.7 24 262.1 25.6 262.9 27.1C263.7 28.6 264.9 29.7 266.4 30.7L264.7 32.5Z" fill="black"/>
<path d="M268 27.6V25.5L274.5 18.9C274.8 18.6 275.1 18.3 275.2 18C275.4 17.7 275.5 17.4 275.6 17.2C275.7 16.9 275.7 16.6 275.7 16.4C275.7 15.8 275.5 15.3 275 14.9C274.5 14.5 273.9 14.3 273.2 14.3C272.5 14.3 271.8 14.4 271.2 14.7C270.6 15 269.9 15.5 269.2 16.2L267.5 14.2C268.4 13.4 269.3 12.8 270.3 12.4C271.3 12 272.3 11.8 273.3 11.8C274.4 11.8 275.3 12 276.1 12.4C276.9 12.8 277.5 13.3 278 13.9C278.4 14.6 278.7 15.3 278.7 16.2C278.7 16.7 278.6 17.2 278.5 17.6C278.4 18 278.1 18.5 277.8 19C277.5 19.5 277.1 19.9 276.5 20.5L271.8 25.3H278.9V27.6H268Z" fill="black"/>
<path d="M280.8 27.6V25.5L287.3 18.9C287.6 18.6 287.9 18.3 288 18C288.2 17.7 288.3 17.4 288.4 17.2C288.5 16.9 288.5 16.6 288.5 16.4C288.5 15.8 288.3 15.3 287.8 14.9C287.3 14.5 286.7 14.3 286 14.3C285.3 14.3 284.6 14.4 284 14.7C283.4 15 282.7 15.5 282 16.2L280.3 14.2C281.2 13.4 282.1 12.8 283.1 12.4C284.1 12 285.1 11.8 286.1 11.8C287.2 11.8 288.1 12 288.9 12.4C289.7 12.8 290.3 13.3 290.8 13.9C291.2 14.6 291.5 15.3 291.5 16.2C291.5 16.7 291.4 17.2 291.3 17.6C291.2 18 290.9 18.5 290.6 19C290.3 19.5 289.9 19.9 289.3 20.5L284.6 25.3H291.7V27.6H280.8Z" fill="black"/>
<path d="M293.2 16.9L294.7 11H297.9L295.5 16.9H293.2ZM297.5 16.9L299 11H302.2L299.8 16.9H297.5Z" fill="black"/>
<path d="M304.9 11.6C306.8 12.7 308.2 14.2 309.2 15.9C310.2 17.6 310.7 19.7 310.7 22C310.7 24.3 310.2 26.3 309.2 28.1C308.2 29.9 306.8 31.3 304.9 32.4L303.2 30.5C304.7 29.6 305.9 28.4 306.7 26.9C307.5 25.4 307.9 23.8 307.9 22C307.9 20.2 307.5 18.5 306.7 17C305.9 15.5 304.7 14.4 303.2 13.4L304.9 11.6Z" fill="black"/>
<path d="M51.5 116.4V114.3L58 107.7C58.3 107.4 58.6 107.1 58.7 106.8C58.9 106.5 59 106.2 59.1 106C59.2 105.7 59.2 105.4 59.2 105.2C59.2 104.6 59 104.1 58.5 103.7C58 103.3 57.4 103.1 56.7 103.1C56 103.1 55.3 103.2 54.7 103.5C54.1 103.8 53.4 104.3 52.7 105L51 103C51.9 102.2 52.8 101.6 53.8 101.2C54.8 100.8 55.8 100.6 56.8 100.6C57.9 100.6 58.8 100.8 59.6 101.2C60.4 101.6 61 102.1 61.5 102.7C61.9 103.4 62.2 104.1 62.2 105C62.2 105.5 62.1 106 62 106.4C61.9 106.8 61.6 107.3 61.3 107.8C61 108.3 60.6 108.7 60 109.3L55.3 114.1H62.4V116.6H51.5V116.4Z" fill="black"/>
<path d="M69.6 116.6C67.4 116.6 65.6 115.9 64 114.5L65.7 112.5C66.4 113.1 67 113.5 67.6 113.7C68.2 114 68.9 114.1 69.7 114.1C70.3 114.1 70.8 114 71.3 113.8C71.7 113.6 72.1 113.3 72.4 112.9C72.7 112.5 72.8 112 72.8 111.5C72.8 110.7 72.5 110.1 71.9 109.6C71.3 109.1 70.5 108.9 69.6 108.9C69.1 108.9 68.7 109 68.2 109.1C67.7 109.2 67.3 109.4 66.8 109.7L64.7 109.1L65.1 100.8H75V103.3H67.7L67.5 107.3C68.1 107 68.6 106.9 69.1 106.8C69.6 106.7 70.1 106.7 70.6 106.7C71.7 106.7 72.6 106.9 73.4 107.3C74.2 107.7 74.8 108.3 75.2 109C75.6 109.7 75.8 110.6 75.8 111.5C75.8 112.6 75.5 113.5 75 114.3C74.5 115.1 73.8 115.7 72.8 116.2C71.9 116.4 70.8 116.6 69.6 116.6Z" fill="black"/>
<path d="M88 116.6C86.9 116.6 85.8 116.3 84.9 115.8C84 115.3 83.2 114.5 82.7 113.6C82.2 112.7 81.9 111.7 81.9 110.5C81.9 109.4 82.2 108.3 82.7 107.4C83.2 106.5 84 105.8 84.9 105.2C85.8 104.7 86.9 104.4 88 104.4C88.9 104.4 89.8 104.6 90.7 104.9C91.6 105.2 92.3 105.8 92.9 106.4L91 108.4C90.6 107.9 90.1 107.6 89.6 107.3C89.1 107 88.6 107 88.1 107C87.5 107 87 107.1 86.5 107.4C86 107.7 85.7 108.1 85.4 108.6C85.1 109.1 85 109.7 85 110.3C85 110.9 85.1 111.5 85.4 112C85.7 112.5 86.1 112.9 86.6 113.2C87.1 113.5 87.6 113.6 88.2 113.6C88.7 113.6 89.2 113.5 89.7 113.3C90.2 113.1 90.6 112.8 91 112.3L92.8 114.2C92.2 114.8 91.5 115.3 90.7 115.7C89.9 116.1 88.9 116.6 88 116.6Z" fill="black"/>
<path d="M94.3 116.4V104.7H97.4V105.6C98.2 104.9 99.2 104.5 100.4 104.5C101.2 104.5 101.8 104.7 102.4 105C103 105.3 103.5 105.7 103.9 106.3C104.4 105.7 104.9 105.3 105.6 105C106.2 104.7 107 104.6 107.8 104.6C108.7 104.6 109.5 104.8 110.1 105.2C110.8 105.6 111.3 106.1 111.7 106.8C112.1 107.5 112.3 108.3 112.3 109.2V116.4H109.3V109.6C109.3 108.8 109.1 108.2 108.7 107.8C108.3 107.4 107.8 107.1 107.1 107.1C106.6 107.1 106.2 107.2 105.8 107.4C105.4 107.6 105.1 107.9 104.8 108.3C104.8 108.4 104.8 108.6 104.8 108.7C104.8 108.8 104.8 109 104.8 109.1V116.3H101.7V109.6C101.7 108.8 101.5 108.2 101.1 107.8C100.7 107.4 100.2 107.1 99.5 107.1C99 107.1 98.6 107.2 98.3 107.4C97.9 107.6 97.6 107.8 97.4 108.2V116.4H94.3Z" fill="black"/>
<path d="M68.8996 148.2C66.9996 147.1 65.5996 145.6 64.5996 143.9C63.5996 142.2 63.0996 140.1 63.0996 137.8C63.0996 135.5 63.5996 133.5 64.5996 131.7C65.5996 129.9 66.9996 128.5 68.8996 127.4L70.5996 129.3C69.0996 130.2 67.8996 131.4 67.0996 132.9C66.2996 134.4 65.8996 136 65.8996 137.8C65.8996 139.7 66.2996 141.3 67.0996 142.8C67.8996 144.3 69.0996 145.4 70.5996 146.4L68.8996 148.2Z" fill="black"/>
<path d="M74.6996 143.3V130.7L71.5996 132V129.3L75.7996 127.6H77.6996V143.3H74.6996Z" fill="black"/>
<path d="M86.5996 143.5C85.1996 143.5 83.9996 143.2 82.9996 142.5C81.9996 141.8 81.1996 140.9 80.5996 139.7C79.9996 138.5 79.6996 137.1 79.6996 135.5C79.6996 133.9 79.9996 132.5 80.5996 131.3C81.1996 130.1 81.9996 129.1 82.9996 128.5C83.9996 127.8 85.1996 127.5 86.5996 127.5C87.9996 127.5 89.1996 127.8 90.1996 128.5C91.1996 129.2 91.9996 130.1 92.5996 131.3C93.1996 132.5 93.4996 133.9 93.4996 135.5C93.4996 137.1 93.1996 138.5 92.5996 139.7C91.9996 140.9 91.1996 141.9 90.1996 142.5C89.1996 143.2 87.9996 143.5 86.5996 143.5ZM86.5996 140.9C87.3996 140.9 88.0996 140.7 88.6996 140.3C89.2996 139.9 89.6996 139.2 90.0996 138.4C90.4996 137.6 90.5996 136.6 90.5996 135.5C90.5996 134.4 90.3996 133.4 90.0996 132.6C89.7996 131.8 89.2996 131.2 88.6996 130.7C88.0996 130.3 87.3996 130.1 86.5996 130.1C85.7996 130.1 85.0996 130.3 84.4996 130.7C83.8996 131.1 83.4996 131.8 83.0996 132.6C82.7996 133.4 82.5996 134.4 82.5996 135.5C82.5996 136.6 82.7996 137.6 83.0996 138.4C83.3996 139.2 83.8996 139.8 84.4996 140.3C85.0996 140.7 85.7996 140.9 86.5996 140.9Z" fill="black"/>
<path d="M94.4996 132.6L95.9996 126.7H99.1996L96.7996 132.6H94.4996ZM98.7996 132.6L100.3 126.7H103.5L101.1 132.6H98.7996Z" fill="black"/>
<path d="M106.3 127.3C108.2 128.4 109.6 129.9 110.6 131.6C111.6 133.3 112.1 135.4 112.1 137.7C112.1 140 111.6 142 110.6 143.8C109.6 145.6 108.2 147 106.3 148.1L104.6 146.2C106.1 145.3 107.3 144.1 108.1 142.6C108.9 141.1 109.3 139.5 109.3 137.7C109.3 135.9 108.9 134.2 108.1 132.7C107.3 131.2 106.1 130.1 104.6 129.1L106.3 127.3Z" fill="black"/>
<path d="M389 208.3C387.8 208.3 386.7 208.1 385.6 207.7C384.6 207.3 383.7 206.7 383 205.9L385 204.1C385.6 204.7 386.2 205.2 386.8 205.4C387.4 205.7 388.1 205.8 389 205.8C389.6 205.8 390.2 205.7 390.6 205.5C391.1 205.3 391.4 205 391.7 204.7C392 204.4 392.1 204 392.1 203.5C392.1 203.1 392 202.7 391.8 202.4C391.6 202.1 391.3 201.9 390.9 201.7C390.5 201.5 390.1 201.4 389.6 201.4H387.6V199H389.3C390 199 390.6 198.8 391 198.5C391.4 198.1 391.6 197.6 391.6 197C391.6 196.6 391.5 196.2 391.2 195.9C391 195.6 390.6 195.3 390.2 195.1C389.8 194.9 389.3 194.8 388.8 194.8C388 194.8 387.4 194.9 386.8 195.2C386.2 195.5 385.7 195.9 385 196.6L383 194.8C383.7 194 384.6 193.3 385.6 192.9C386.6 192.4 387.7 192.2 388.8 192.2C389.9 192.2 390.9 192.4 391.7 192.8C392.5 193.2 393.2 193.7 393.7 194.4C394.2 195.1 394.4 195.8 394.4 196.7C394.4 197.5 394.1 198.3 393.6 198.9C393 199.5 392.3 200 391.5 200.3C392.5 200.5 393.4 200.9 394 201.6C394.6 202.2 394.9 203 394.9 203.9C394.9 204.8 394.6 205.6 394.1 206.3C393.6 207 392.9 207.5 392 207.9C391.3 208.1 390.2 208.3 389 208.3Z" fill="black"/>
<path d="M402.3 208.3C400.1 208.3 398.3 207.6 396.7 206.2L398.4 204.2C399.1 204.8 399.7 205.2 400.3 205.4C400.9 205.7 401.6 205.8 402.4 205.8C403 205.8 403.5 205.7 404 205.5C404.4 205.3 404.8 205 405.1 204.6C405.4 204.2 405.5 203.7 405.5 203.2C405.5 202.4 405.2 201.8 404.6 201.3C404 200.8 403.2 200.6 402.3 200.6C401.8 200.6 401.4 200.7 400.9 200.8C400.4 200.9 400 201.1 399.5 201.4L397.4 200.8L397.8 192.5H407.7V195H400.4L400.2 199C400.8 198.7 401.3 198.6 401.8 198.5C402.3 198.4 402.8 198.4 403.3 198.4C404.4 198.4 405.3 198.6 406.1 199C406.9 199.4 407.5 200 407.9 200.7C408.3 201.4 408.5 202.3 408.5 203.2C408.5 204.3 408.2 205.2 407.7 206C407.2 206.8 406.5 207.4 405.5 207.9C404.6 208.1 403.5 208.3 402.3 208.3Z" fill="black"/>
<path d="M420.7 208.3C419.6 208.3 418.5 208 417.6 207.5C416.7 207 415.9 206.2 415.4 205.3C414.9 204.4 414.6 203.4 414.6 202.2C414.6 201.1 414.9 200 415.4 199.1C415.9 198.2 416.7 197.5 417.6 196.9C418.5 196.4 419.6 196.1 420.7 196.1C421.6 196.1 422.5 196.3 423.4 196.6C424.3 196.9 425 197.5 425.6 198.1L423.7 200.1C423.3 199.6 422.8 199.3 422.3 199C421.8 198.7 421.3 198.7 420.8 198.7C420.2 198.7 419.7 198.8 419.2 199.1C418.7 199.4 418.4 199.8 418.1 200.3C417.8 200.8 417.7 201.4 417.7 202C417.7 202.6 417.8 203.2 418.1 203.7C418.4 204.2 418.8 204.6 419.3 204.9C419.8 205.2 420.3 205.3 420.9 205.3C421.4 205.3 421.9 205.2 422.4 205C422.9 204.8 423.3 204.5 423.7 204L425.5 205.9C424.9 206.5 424.2 207 423.4 207.4C422.4 208.1 421.6 208.3 420.7 208.3Z" fill="black"/>
<path d="M427 208.1V196.4H430.1V197.3C430.9 196.6 431.9 196.2 433.1 196.2C433.9 196.2 434.5 196.4 435.1 196.7C435.7 197 436.2 197.4 436.6 198C437.1 197.4 437.6 197 438.3 196.7C438.9 196.4 439.7 196.3 440.5 196.3C441.4 196.3 442.2 196.5 442.8 196.9C443.5 197.3 444 197.8 444.4 198.5C444.8 199.2 445 200 445 200.9V208.1H442V201.3C442 200.5 441.8 199.9 441.4 199.5C441 199.1 440.5 198.8 439.8 198.8C439.3 198.8 438.9 198.9 438.5 199.1C438.1 199.3 437.8 199.6 437.5 200C437.5 200.1 437.5 200.3 437.5 200.4C437.5 200.5 437.5 200.7 437.5 200.8V208H434.4V201.2C434.4 200.4 434.2 199.8 433.8 199.4C433.4 199 432.9 198.7 432.2 198.7C431.7 198.7 431.3 198.8 431 199C430.6 199.2 430.3 199.4 430.1 199.8V208H427V208.1Z" fill="black"/>
<path d="M402.1 239.9C400.2 238.8 398.8 237.3 397.8 235.6C396.8 233.8 396.3 231.8 396.3 229.5C396.3 227.2 396.8 225.2 397.8 223.4C398.8 221.6 400.2 220.2 402.1 219.1L403.8 221C402.3 221.9 401.1 223.1 400.3 224.6C399.5 226.1 399.1 227.7 399.1 229.5C399.1 231.4 399.5 233 400.3 234.5C401.1 236 402.3 237.1 403.8 238.1L402.1 239.9Z" fill="black"/>
<path d="M407.9 235V222.4L404.8 223.7V221L409 219.3H410.9V235H407.9Z" fill="black"/>
<path d="M421.6 235V231.3H412.8V228.8L421.2 219.3H424.7V228.7H426.6V231.3H424.7V235H421.6ZM416.3 228.8H421.6V222.8L416.3 228.8Z" fill="black"/>
<path d="M427 224.3L428.5 218.4H431.7L429.3 224.3H427ZM431.3 224.3L432.8 218.4H436L433.6 224.3H431.3Z" fill="black"/>
<path d="M438.7 219C440.6 220.1 442 221.6 443 223.3C444 225.1 444.5 227.1 444.5 229.4C444.5 231.7 444 233.7 443 235.5C442 237.3 440.6 238.7 438.7 239.8L437 237.9C438.5 237 439.7 235.8 440.5 234.3C441.3 232.8 441.7 231.2 441.7 229.4C441.7 227.6 441.3 225.9 440.5 224.4C439.7 222.9 438.5 221.8 437 220.8L438.7 219Z" fill="black"/>
<path d="M513.5 124.1C537.5 124.1 557 104.6 557 80.6001C557 56.6001 537.5 37.1001 513.5 37.1001C489.5 37.1001 470 56.6001 470 80.6001C470 104.6 489.5 124.1 513.5 124.1Z" fill="#1B1B1B"/>
<path d="M489 96.6V80.4L485 82V78.6L490.4 76.4H492.9V96.6H489Z" fill="white"/>
<path d="M504.4 96.9C502.6 96.9 501.1 96.5 499.8 95.6C498.5 94.7 497.4 93.5 496.7 91.9C496 90.3 495.6 88.5 495.6 86.5C495.6 84.4 496 82.6 496.7 81C497.4 79.4 498.5 78.2 499.8 77.3C501.1 76.4 502.7 76 504.4 76C506.2 76 507.7 76.4 509.1 77.3C510.4 78.2 511.5 79.4 512.2 81C512.9 82.6 513.3 84.4 513.3 86.5C513.3 88.6 512.9 90.4 512.2 91.9C511.5 93.4 510.4 94.7 509.1 95.6C507.7 96.5 506.2 96.9 504.4 96.9ZM504.4 93.5C505.4 93.5 506.3 93.2 507.1 92.7C507.9 92.1 508.4 91.3 508.8 90.3C509.2 89.3 509.4 88 509.4 86.6C509.4 85.2 509.2 83.9 508.8 82.9C508.4 81.9 507.8 81 507.1 80.5C506.3 79.9 505.5 79.7 504.4 79.7C503.4 79.7 502.5 80 501.7 80.5C500.9 81.1 500.4 81.9 500 82.9C499.6 83.9 499.4 85.2 499.4 86.6C499.4 88 499.6 89.3 500 90.3C500.4 91.3 501 92.2 501.7 92.7C502.5 93.2 503.4 93.5 504.4 93.5Z" fill="white"/>
<path d="M520.3 95.6001V80.9001L523.2 80.4001V89.2001L527.9 84.6001H531.2L526 89.6001L531.5 95.5001H527.8L523.2 90.5001V95.5001H520.3V95.6001Z" fill="white"/>
<path d="M536.8 100.1C536 100.1 535.1 100 534.4 99.8002C533.6 99.6002 532.9 99.4002 532.3 99.1002L533.3 96.9002C533.9 97.2002 534.5 97.4002 535.1 97.6002C535.7 97.7002 536.2 97.8002 536.8 97.8002C537.7 97.8002 538.3 97.6002 538.7 97.3002C539.1 96.9002 539.4 96.4002 539.4 95.7002V94.8002C538.5 95.5002 537.5 95.8002 536.4 95.8002C535.4 95.8002 534.4 95.6002 533.6 95.1002C532.8 94.6002 532.1 93.9002 531.6 93.1002C531.1 92.2002 530.9 91.3002 530.9 90.3002C530.9 89.3002 531.1 88.3002 531.6 87.5002C532.1 86.7002 532.8 86.0002 533.6 85.5002C534.4 85.0002 535.4 84.8002 536.5 84.8002C537 84.8002 537.5 84.9002 538.1 85.0002C538.6 85.2002 539.1 85.4002 539.5 85.7002V85.0002H542.3V95.6002C542.3 97.0002 541.8 98.2002 540.9 98.9002C539.9 99.7002 538.5 100.1 536.8 100.1ZM536.8 93.2002C537.3 93.2002 537.8 93.1002 538.2 92.9002C538.6 92.7002 539 92.5002 539.3 92.2002V87.9002C539 87.6002 538.6 87.4002 538.2 87.2002C537.8 87.0002 537.3 86.9002 536.8 86.9002C536.2 86.9002 535.7 87.0002 535.2 87.3002C534.7 87.6002 534.3 87.9002 534.1 88.4002C533.8 88.9002 533.7 89.4002 533.7 90.0002C533.7 90.6002 533.8 91.1002 534.1 91.6002C534.4 92.1002 534.8 92.5002 535.2 92.7002C535.6 93.1002 536.2 93.2002 536.8 93.2002Z" fill="white"/>
<path d="M513.5 206.9C533.1 206.9 548.9 191 548.9 171.5C548.9 152 533 136.1 513.5 136.1C494 136.1 478.1 152 478.1 171.5C478.1 191 493.9 206.9 513.5 206.9Z" fill="#1B1B1B"/>
<path d="M491.5 185.5V183.3L498.4 176.3C498.7 176 499 175.6 499.2 175.3C499.4 175 499.5 174.7 499.6 174.4C499.7 174.1 499.7 173.8 499.7 173.5C499.7 172.9 499.4 172.4 498.9 172C498.4 171.6 497.7 171.4 497 171.4C496.2 171.4 495.6 171.6 494.9 171.9C494.3 172.2 493.6 172.7 492.8 173.5L491.1 171.4C492 170.5 493 169.9 494 169.5C495 169.1 496.1 168.9 497.2 168.9C498.3 168.9 499.3 169.1 500.1 169.5C500.9 169.9 501.6 170.4 502.1 171.1C502.6 171.8 502.8 172.6 502.8 173.5C502.8 174 502.7 174.5 502.6 175C502.5 175.5 502.2 175.9 501.9 176.4C501.6 176.9 501.1 177.4 500.6 177.9L495.6 182.9H503.1V185.5H491.5Z" fill="white"/>
<path d="M504.9 185.5V183.3L511.8 176.3C512.1 176 512.4 175.6 512.6 175.3C512.8 175 512.9 174.7 513 174.4C513.1 174.1 513.1 173.8 513.1 173.5C513.1 172.9 512.8 172.4 512.3 172C511.8 171.6 511.1 171.4 510.4 171.4C509.6 171.4 509 171.6 508.3 171.9C507.7 172.2 507 172.7 506.2 173.5L504.5 171.4C505.4 170.5 506.4 169.9 507.4 169.5C508.4 169.1 509.5 168.9 510.6 168.9C511.7 168.9 512.7 169.1 513.5 169.5C514.3 169.9 515 170.4 515.5 171.1C516 171.8 516.2 172.6 516.2 173.5C516.2 174 516.1 174.5 516 175C515.9 175.5 515.6 175.9 515.3 176.4C515 176.9 514.5 177.4 514 177.9L509 182.9H516.5V185.5H504.9Z" fill="white"/>
<path d="M522.1 185.7V173.7L524.4 173.3V185.7H522.1Z" fill="white"/>
<path d="M526.3 185.7V173.7L528.6 173.3V177.5C529.3 176.9 530.1 176.7 531.1 176.7C531.9 176.7 532.7 176.9 533.4 177.3C534.1 177.7 534.6 178.3 535 178.9C535.4 179.6 535.6 180.4 535.6 181.2C535.6 182 535.4 182.8 535 183.5C534.6 184.2 534 184.7 533.3 185.1C532.6 185.5 531.8 185.7 531 185.7C530.6 185.7 530.1 185.6 529.7 185.5C529.3 185.4 528.9 185.2 528.5 185V185.6H526.3V185.7ZM530.8 183.8C531.3 183.8 531.7 183.7 532.1 183.5C532.5 183.3 532.8 183 533 182.6C533.2 182.2 533.3 181.8 533.3 181.3C533.3 180.8 533.2 180.4 533 180C532.8 179.6 532.5 179.3 532.1 179.1C531.7 178.9 531.3 178.8 530.8 178.8C530.4 178.8 530 178.9 529.6 179C529.2 179.1 528.9 179.4 528.7 179.6V183.1C529 183.4 529.3 183.6 529.6 183.7C530 183.8 530.3 183.8 530.8 183.8Z" fill="white"/>
<path d="M496.173 68.1001V58.3001H498.203V62.2481H502.711V58.3001H504.741V68.1001H502.711V64.0821H498.203V68.1001H496.173ZM508.584 68.2261C508.061 68.2261 507.599 68.1328 507.198 67.9461C506.797 67.7501 506.484 67.4841 506.26 67.1481C506.036 66.8121 505.924 66.4248 505.924 65.9861C505.924 65.2861 506.185 64.7448 506.708 64.3621C507.24 63.9701 507.968 63.7741 508.892 63.7741C509.527 63.7741 510.124 63.8721 510.684 64.0681V63.5361C510.684 63.1161 510.553 62.7988 510.292 62.5841C510.031 62.3694 509.648 62.2621 509.144 62.2621C508.836 62.2621 508.505 62.3134 508.15 62.4161C507.795 62.5094 507.385 62.6588 506.918 62.8641L506.218 61.4501C506.797 61.1888 507.347 60.9928 507.87 60.8621C508.402 60.7314 508.934 60.6661 509.466 60.6661C510.446 60.6661 511.207 60.9041 511.748 61.3801C512.299 61.8468 512.574 62.5094 512.574 63.3681V68.1001H510.684V67.5821C510.385 67.8061 510.063 67.9694 509.718 68.0721C509.373 68.1748 508.995 68.2261 508.584 68.2261ZM507.744 65.9441C507.744 66.2241 507.865 66.4481 508.108 66.6161C508.351 66.7748 508.673 66.8541 509.074 66.8541C509.391 66.8541 509.685 66.8168 509.956 66.7421C510.227 66.6581 510.469 66.5368 510.684 66.3781V65.3141C510.451 65.2208 510.208 65.1508 509.956 65.1041C509.704 65.0574 509.433 65.0341 509.144 65.0341C508.705 65.0341 508.36 65.1181 508.108 65.2861C507.865 65.4448 507.744 65.6641 507.744 65.9441ZM516.756 68.2401C516.084 68.2401 515.463 68.1561 514.894 67.9881C514.324 67.8108 513.83 67.5588 513.41 67.2321L514.362 65.9581C514.782 66.2381 515.183 66.4481 515.566 66.5881C515.958 66.7281 516.345 66.7981 516.728 66.7981C517.157 66.7981 517.498 66.7281 517.75 66.5881C518.011 66.4388 518.142 66.2474 518.142 66.0141C518.142 65.8274 518.067 65.6781 517.918 65.5661C517.778 65.4541 517.549 65.3748 517.232 65.3281L515.832 65.1181C515.104 65.0061 514.553 64.7728 514.18 64.4181C513.806 64.0541 513.62 63.5781 513.62 62.9901C513.62 62.5141 513.741 62.1081 513.984 61.7721C514.236 61.4268 514.586 61.1608 515.034 60.9741C515.491 60.7781 516.032 60.6801 516.658 60.6801C517.19 60.6801 517.708 60.7548 518.212 60.9041C518.725 61.0534 519.206 61.2821 519.654 61.5901L518.73 62.8361C518.328 62.5841 517.946 62.4021 517.582 62.2901C517.218 62.1781 516.849 62.1221 516.476 62.1221C516.13 62.1221 515.85 62.1874 515.636 62.3181C515.43 62.4488 515.328 62.6214 515.328 62.8361C515.328 63.0321 515.402 63.1861 515.552 63.2981C515.701 63.4101 515.958 63.4894 516.322 63.5361L517.708 63.7461C518.436 63.8488 518.991 64.0821 519.374 64.4461C519.756 64.8008 519.948 65.2628 519.948 65.8321C519.948 66.2988 519.808 66.7141 519.528 67.0781C519.248 67.4328 518.87 67.7174 518.394 67.9321C517.918 68.1374 517.372 68.2401 516.756 68.2401ZM524.224 68.2121C523.412 68.2121 522.796 68.0301 522.376 67.6661C521.965 67.2928 521.76 66.7514 521.76 66.0421V62.4021H520.262V60.8061H521.76V58.9441L523.678 58.5101V60.8061H525.764V62.4021H523.678V65.6501C523.678 65.9861 523.752 66.2288 523.902 66.3781C524.051 66.5181 524.312 66.5881 524.686 66.5881C524.872 66.5881 525.04 66.5788 525.19 66.5601C525.348 66.5321 525.521 66.4854 525.708 66.4201V68.0021C525.512 68.0674 525.264 68.1188 524.966 68.1561C524.676 68.1934 524.429 68.2121 524.224 68.2121ZM529.023 68.2261C528.501 68.2261 528.039 68.1328 527.637 67.9461C527.236 67.7501 526.923 67.4841 526.699 67.1481C526.475 66.8121 526.363 66.4248 526.363 65.9861C526.363 65.2861 526.625 64.7448 527.147 64.3621C527.679 63.9701 528.407 63.7741 529.331 63.7741C529.966 63.7741 530.563 63.8721 531.123 64.0681V63.5361C531.123 63.1161 530.993 62.7988 530.731 62.5841C530.47 62.3694 530.087 62.2621 529.583 62.2621C529.275 62.2621 528.944 62.3134 528.589 62.4161C528.235 62.5094 527.824 62.6588 527.357 62.8641L526.657 61.4501C527.236 61.1888 527.787 60.9928 528.309 60.8621C528.841 60.7314 529.373 60.6661 529.905 60.6661C530.885 60.6661 531.646 60.9041 532.187 61.3801C532.738 61.8468 533.013 62.5094 533.013 63.3681V68.1001H531.123V67.5821C530.825 67.8061 530.503 67.9694 530.157 68.0721C529.812 68.1748 529.434 68.2261 529.023 68.2261ZM528.183 65.9441C528.183 66.2241 528.305 66.4481 528.547 66.6161C528.79 66.7748 529.112 66.8541 529.513 66.8541C529.831 66.8541 530.125 66.8168 530.395 66.7421C530.666 66.6581 530.909 66.5368 531.123 66.3781V65.3141C530.89 65.2208 530.647 65.1508 530.395 65.1041C530.143 65.0574 529.873 65.0341 529.583 65.0341C529.145 65.0341 528.799 65.1181 528.547 65.2861C528.305 65.4448 528.183 65.6641 528.183 65.9441Z" fill="white"/>
<path d="M517.52 161.235L519.48 158.637L517.569 156.127H519.127L520.255 157.647L521.372 156.127H522.882L521 158.618L523 161.235H521.431L520.225 159.608L519.02 161.235H517.52Z" fill="white"/>
<path d="M513.5 161.324C513.134 161.324 512.811 161.258 512.53 161.127C512.249 160.99 512.03 160.804 511.873 160.569C511.716 160.333 511.637 160.062 511.637 159.755C511.637 159.265 511.82 158.886 512.186 158.618C512.559 158.343 513.069 158.206 513.716 158.206C514.16 158.206 514.579 158.275 514.971 158.412V158.039C514.971 157.745 514.879 157.523 514.696 157.373C514.513 157.222 514.245 157.147 513.892 157.147C513.677 157.147 513.445 157.183 513.196 157.255C512.948 157.32 512.66 157.425 512.334 157.569L511.843 156.578C512.249 156.395 512.634 156.258 513 156.167C513.373 156.075 513.745 156.029 514.118 156.029C514.804 156.029 515.337 156.196 515.716 156.529C516.102 156.856 516.294 157.32 516.294 157.922V161.235H514.971V160.873C514.762 161.029 514.536 161.144 514.294 161.216C514.052 161.288 513.788 161.324 513.5 161.324ZM512.912 159.725C512.912 159.922 512.997 160.078 513.167 160.196C513.337 160.307 513.562 160.363 513.843 160.363C514.066 160.363 514.271 160.337 514.461 160.284C514.651 160.225 514.82 160.141 514.971 160.029V159.284C514.807 159.219 514.637 159.17 514.461 159.137C514.285 159.105 514.095 159.088 513.892 159.088C513.585 159.088 513.343 159.147 513.167 159.265C512.997 159.376 512.912 159.529 512.912 159.725ZM513.196 155.275L514.079 154H515.608L514.285 155.275H513.196Z" fill="white"/>
<path d="M503 161.235V154.373H504.824L506.706 158.078L508.588 154.373H510.412V161.235H509.069V156.186L506.686 160.745L504.314 156.167V161.235H503Z" fill="white"/>
</svg>
