<?xml version="1.0" encoding="UTF-8"?><svg id="Capa_1" xmlns="http://www.w3.org/2000/svg" viewBox="0 0 608 250"><defs><style>.cls-1{fill:#fff;}.cls-2{fill:#1d9bf0;}.cls-3{fill:#e2e2e2;}.cls-4{fill:#c9c9c9;}.cls-5{fill:#1b1c1c;}.cls-6{fill:#0d7ab7;}.cls-7{fill:#9e9e9e;}.cls-8{fill:#fcfcfc;}</style></defs><g><path class="cls-7" d="M408.56,108.3s12.86-36.57-31.94-35.59c1.67,49.88,10.38,142.52,10.38,142.52,.4,3,2.88,5.29,5.91,5.45l21.87,1.11c.73-14.38-11.43-14.69-11.43-14.69l-1.37-22.06c-.26-4.18-.05-8.37,.64-12.5l5.33-32.29c.23-3.41,2.13-12.71,4.68-15l-4.07-16.94Z"/><path class="cls-7" d="M312.64,112.71c-1.03-14.92-13.36-26.87-28.31-27.45-13.15-.51-24.48,7.58-28.83,19.09l-.21-.11-10.62,48.66c-1.33,6.11-4.52,11.66-9.12,15.89l-9.6,8.83c-2.5,2.3-2.77,6.14-.63,8.77l27.04,33.16c1.82,2.24,4.56,3.54,7.45,3.54h20.81c0-18.58-20.27-17.51-20.27-17.51l-10.58-16.41c-1.17-1.81-.71-4.22,1.04-5.48l21.55-15.5c2.12-1.53,4.1-3.25,5.9-5.15l29.38-30.93-.39-.21c3.8-5.35,5.88-12.01,5.39-19.18Z"/><path class="cls-4" d="M452.75,41.35c.94-1.36,.02-3.23-1.63-3.32l-20.43-1.03c-2.3-.07-4.31-1.56-5.04-3.74l-2.35-7.05-5.34-2.67c-3.48-1.74-7.41-2.34-11.25-1.72l-13.49,2.19c-8.41,1.36-15.45,7.09-18.5,15.04l-11.15,29.09c-2.68,6.99-9.25,11.73-16.74,12.07l-86.1,3.86c-13.56,.61-26.51,5.82-36.71,14.77-27.86,24.46-68.95,60.85-69.15,60.65,39.41,24.68,75.99-23.7,75.99-23.7l108.92,30.92c18.33,5.2,38.05,1.34,53.06-10.39l10.75-8.4c13.96-10.91,21.5-28.11,20.05-45.77l-2.72-33.17c-.18-2.05,1.19-3.91,3.19-4.35l13.3-2.94c5.03-1.01,9.14-4.63,10.76-9.5l2.72-8.16,1.84-2.66Z"/><path class="cls-3" d="M297.81,117.81c-1.03-14.92-13.36-26.87-28.31-27.45-13.15-.51-24.48,7.58-28.83,19.09l-.21-.11-13.53,43.48c-1.28,4.12-4.62,7.27-8.81,8.31l-8.94,2.23c-3.39,.84-6,3.56-6.7,6.98l-10.66,51.88c-.63,3.06,1.72,5.92,4.85,5.88,9.94-.12,28.57-.29,28.2,.08,0-16.67-15.65-17.51-15.65-17.51l14.53-29.14c.71-1.42,2.04-2.42,3.6-2.69l28.92-5.17c9.57-1.71,17.99-7.35,23.21-15.54l13.33-20.92-.39-.21c3.8-5.35,5.88-12.01,5.39-19.18Z"/><path class="cls-3" d="M411.17,123.15c-5.17-9.6-18.91-28.93-63.61-25.68,4.19,49.73,25.07,125.82,25.07,125.82,.55,2.98,3.15,5.14,6.17,5.14h21.9c0-14.4-12.15-14.09-12.15-14.09l-2.48-21.96c-.47-4.16-.47-8.36,0-12.52l3.69-32.52c.06-3.42,1.45-6.68,3.88-9.09,0,0,15.02-9.92,17.52-15.09Z"/><path class="cls-7" d="M402.32,26.73l-11.59-1.41c-6.56-.8-12.97,2.38-16.31,8.08l-5.22,8.9c-2.97,5.07-2.54,11.44,1.1,16.06l13.1,16.65c3,3.82,8.1,5.31,12.68,3.7l1.36-.47c2.21-.77,3.65-2.9,3.54-5.24l-.76-16.11c-.25-5.34,.36-10.69,1.82-15.84l2.93-10.37c.52-1.85-.73-3.73-2.64-3.96Z"/><path class="cls-5" d="M420.46,35.49l-2.61-2.27c-.55-.48-1.29-.75-2.08-.67-.77,.07-1.44,.46-1.89,1.03h0s-2.68,2.93-2.68,2.93l2.26-.25c.43,1.14,1.57,1.9,2.84,1.77,1.29-.12,2.29-1.12,2.46-2.35l1.7-.19Z"/><circle class="cls-1" cx="417" cy="34.51" r=".58"/><ellipse class="cls-1" cx="449.96" cy="40.08" rx="1.38" ry=".86" transform="translate(-1.69 49.07) rotate(-6.23)"/></g><path class="cls-6" d="M322.75,166.56c-.84,0-1.67-.39-2.2-1.11-12.66-17.27-4.31-44.57-3.95-45.72,.45-1.44,1.98-2.24,3.42-1.79,1.44,.45,2.24,1.98,1.79,3.41h0c-.08,.26-7.88,25.84,3.15,40.87,.89,1.21,.63,2.92-.59,3.81-.49,.36-1.05,.53-1.61,.53Z"/><path class="cls-6" d="M423.59,115.33c-1.03,0-2.01-.58-2.47-1.58-9.61-20.73-50.22-25.75-50.62-25.8-1.49-.18-2.56-1.53-2.39-3.03,.18-1.49,1.53-2.56,3.03-2.39,1.79,.21,44.06,5.46,54.93,28.92,.63,1.37,.04,2.99-1.33,3.62-.37,.17-.76,.25-1.14,.25Z"/><path class="cls-2" d="M281.14,82.08l39.1-2.69c8.72,0,17.28-2.24,24.87-6.53l18.67-7.83c1.94-1.1,4.41-.19,5.17,1.9l5.76,15.74c4.04,11.06-.21,23.44-10.19,29.69l-13.86,8.67c-10.81,6.76-24.22,7.9-36.02,3.06l-25.34-10.39c-6.76-2.77-12.79-7.08-17.6-12.59l-11.89-13.6c-2.08-2.38-.32-6.09,2.83-5.99l18.5,.56Z"/><path class="cls-8" d="M338.03,97.57h-3.97s0-3.97,0-3.97c0-1.99-1.61-3.61-3.61-3.61s-3.61,1.61-3.61,3.61v3.97s-3.97,0-3.97,0c-1.99,0-3.61,1.61-3.61,3.61s1.61,3.61,3.61,3.61h3.97s0,3.97,0,3.97c0,1.99,1.61,3.61,3.61,3.61s3.61-1.61,3.61-3.61v-3.97s3.97,0,3.97,0c1.99,0,3.61-1.61,3.61-3.61s-1.61-3.61-3.61-3.61Z"/></svg>