<svg width="608" height="250" viewBox="0 0 608 250" fill="none" xmlns="http://www.w3.org/2000/svg">
<path d="M563 148.4H559L551.5 107.2C548.7 92.0001 535.5 80.9001 520 80.9001H457.7C456.7 80.9001 455.6 81.0002 454.6 81.1002C453.6 81.0002 452.6 80.9001 451.5 80.9001H389.2C373.7 80.9001 360.4 92.0001 357.7 107.2L350.2 148.4H346.2C343.3 148.4 341 150.8 341 153.6C341 156.4 343.4 158.8 346.2 158.8H350L356.3 190.5C359 204.1 371 213.9 384.8 213.9H524.4C538.2 213.9 550.2 204 553 190.5L559.3 158.8H563.1C566 158.8 568.3 156.4 568.3 153.6C568.3 150.8 565.9 148.4 563 148.4Z" fill="#FF684D"/>
<path d="M379.6 134.6C378.1 134.6 377 133.4 377 132V97.2999C377 95.8999 378.2 94.7 379.6 94.7C381 94.7 382.2 95.8999 382.2 97.2999V131.9C382.2 133.4 381 134.6 379.6 134.6Z" fill="white"/>
<path d="M389.9 134.6C388.4 134.6 387.3 133.4 387.3 132V97.2999C387.3 95.8999 388.5 94.7 389.9 94.7C391.3 94.7 392.5 95.8999 392.5 97.2999V131.9C392.5 133.4 391.3 134.6 389.9 134.6Z" fill="white"/>
<path d="M401.5 134.6C400 134.6 398.9 133.4 398.9 132V97.2999C398.9 95.8999 400.1 94.7 401.5 94.7C402.9 94.7 404.1 95.8999 404.1 97.2999V131.9C404.2 133.4 403 134.6 401.5 134.6Z" fill="white"/>
<path d="M134.5 148.1L128.7 140.2L149.7 124.8C162.6 115.3 180 115.3 192.9 124.8L213.9 140.2L208.1 148.1L187.1 132.7C177.7 125.8 165 125.8 155.5 132.7L134.5 148.1Z" fill="#FF684D"/>
<path d="M131 135.2H209.2C228.3 135.2 243.8 150.7 243.8 169.8V207.3C243.8 210.9 240.9 213.8 237.3 213.8H102.9C99.3 213.8 96.4 210.9 96.4 207.3V169.8C96.4 150.7 111.9 135.2 131 135.2Z" fill="#FF684D"/>
<path d="M100.2 109.6H98.4V110.2H100.2V109.6Z" fill="#1B1B1B"/>
<path d="M236.5 110.2H233.1V109.6H236.5V110.2ZM229.7 110.2H226.3V109.6H229.7V110.2ZM222.9 110.2H219.5V109.6H222.9V110.2ZM216.1 110.2H212.7V109.6H216.1V110.2ZM209.2 110.2H205.8V109.6H209.2V110.2ZM202.4 110.2H199V109.6H202.4V110.2ZM195.6 110.2H192.2V109.6H195.6V110.2ZM188.8 110.2H185.4V109.6H188.8V110.2ZM182 110.2H178.6V109.6H182V110.2ZM175.2 110.2H171.8V109.6H175.2V110.2ZM168.4 110.2H165V109.6H168.4V110.2ZM161.6 110.2H158.2V109.6H161.6V110.2ZM154.8 110.2H151.4V109.6H154.8V110.2ZM148 110.2H144.6V109.6H148V110.2ZM141.1 110.2H137.7V109.6H141.1V110.2ZM134.3 110.2H130.9V109.6H134.3V110.2ZM127.5 110.2H124.1V109.6H127.5V110.2ZM120.7 110.2H117.3V109.6H120.7V110.2ZM113.9 110.2H110.5V109.6H113.9V110.2ZM107.1 110.2H103.7V109.6H107.1V110.2Z" fill="#1B1B1B"/>
<path d="M241.6 109.6H239.8V110.2H241.6V109.6Z" fill="#1B1B1B"/>
<path d="M98.6 112.1C97.4 112.1 96.4 111.1 96.4 109.9C96.4 108.7 97.4 107.7 98.6 107.7C99.8 107.7 100.8 108.7 100.8 109.9C100.8 111.1 99.8 112.1 98.6 112.1Z" fill="#1B1B1B"/>
<path d="M241.5 112.1C242.7 112.1 243.7 111.1 243.7 109.9C243.7 108.7 242.7 107.7 241.5 107.7C240.3 107.7 239.3 108.7 239.3 109.9C239.3 111.1 240.3 112.1 241.5 112.1Z" fill="#1B1B1B"/>
<path d="M86.4 206.6V203.2H87V206.6H86.4ZM86.4 199.8V196.4H87V199.8H86.4ZM86.4 193V189.6H87V193H86.4ZM86.4 186.1V182.7H87V186.1H86.4ZM86.4 179.3V175.9H87V179.3H86.4ZM86.4 172.5V169.1H87V172.5H86.4ZM86.4 165.7V162.3H87V165.7H86.4ZM86.4 158.9V155.5H87V158.9H86.4ZM86.4 152.1V148.7H87V152.1H86.4ZM86.4 145.3V141.9H87V145.3H86.4ZM86.4 138.5V135.1H87V138.5H86.4ZM86.4 131.7V128.3H87V131.7H86.4ZM86.4 124.9V121.5H87V124.9H86.4Z" fill="#1B1B1B"/>
<path d="M87 211.7V209.9H86.4V211.7H87Z" fill="#1B1B1B"/>
<path d="M84.5 119.9C84.5 118.7 85.5 117.7 86.7 117.7C87.9 117.7 88.9 118.7 88.9 119.9C88.9 121.1 87.9 122.1 86.7 122.1C85.5 122.1 84.5 121.1 84.5 119.9Z" fill="#1B1B1B"/>
<path d="M84.5 211.6C84.5 212.8 85.5 213.8 86.7 213.8C87.9 213.8 88.9 212.8 88.9 211.6C88.9 210.4 87.9 209.4 86.7 209.4C85.5 209.4 84.5 210.4 84.5 211.6Z" fill="#1B1B1B"/>
<path d="M237.4 227.1L237 226.7L239.5 224.2L239.9 224.6L237.4 227.1ZM242.3 222.2L241.9 221.8L244.4 219.3L244.8 219.7L242.3 222.2ZM247.3 217.2L246.9 216.8L249.4 214.3L249.8 214.7L247.3 217.2ZM252.2 212.3L251.8 211.9L254.3 209.4L254.7 209.8L252.2 212.3ZM257.1 207.3L256.7 206.9L258.6 205L259 205.4L257.1 207.3Z" fill="#1B1B1B"/>
<path d="M238.8 228.4C237.9 229.3 236.6 229.3 235.7 228.4C234.8 227.5 234.8 226.2 235.7 225.3C236.6 224.4 237.9 224.4 238.8 225.3C239.7 226.1 239.7 227.5 238.8 228.4Z" fill="#1B1B1B"/>
<path d="M260.2 206.8C261.1 205.9 261.1 204.6 260.2 203.7C259.3 202.8 258 202.8 257.1 203.7C256.2 204.6 256.2 205.9 257.1 206.8C258 207.7 259.4 207.7 260.2 206.8Z" fill="#1B1B1B"/>
<path d="M145.3 178.2L153 177.3C156.7 176.9 160.4 177.6 163.7 179.5L164.5 179.9C172 184.3 173.6 194.6 167.8 201L164.4 204.7L169 204.6C170.5 204.6 171.9 205.3 172.6 206.5L174.3 209.2H146.1C144.1 209.2 142.2 208.4 140.6 207.1L138.5 205.2C132.1 199.2 131.5 189.3 137.2 182.5C139.3 180.1 142.2 178.5 145.3 178.2Z" fill="#D2D2D2"/>
<path d="M176.4 190.4L183.4 205.8C184.3 207.8 186.3 209.2 188.7 209.2H209.8L209.4 207.5C208.8 205 206.6 203.3 204.1 203.3L198.4 201.7C196.6 201.3 195.3 199.8 194.8 198.1L193.9 194.8L194 192.7C194.1 191.2 193.6 189.8 192.4 188.8L192 188.4C187.7 184.2 180.8 184.7 177.1 189.4L176.4 190.4Z" fill="#D2D2D2"/>
<path d="M219 165.7C219.442 165.7 219.8 165.431 219.8 165.1C219.8 164.769 219.442 164.5 219 164.5C218.558 164.5 218.2 164.769 218.2 165.1C218.2 165.431 218.558 165.7 219 165.7Z" fill="white"/>
<path d="M200.9 167.8L204.8 171.7C208.2 175.1 213.7 174.6 216.5 170.7L219.4 166.7L221 165.7C222.2 165 222 163.5 220.9 162.8L217.5 161C216.3 160.7 212.6 157.5 211.8 156.7L210.8 155.5C210.1 154.7 209.1 147 208 146.6L201.3 144.4C196.1 142.7 190.6 144.3 187.1 148.4L181.3 159.6C174.6 170.4 172.2 176.1 159.4 176.8L134.7 178.3C131.3 178.4 128.6 175.7 128.9 172.2L129.2 170.3C129.5 167.2 132.7 164.9 135.8 165.7C136.8 166 137.4 164.5 136.4 164L133.5 162.7C130.4 161.1 126.5 165.8 126 166.4C125.4 167 123.8 178.3 123.8 178.3C123.2 181.2 124.1 184.3 126.2 186.5L139.6 203.5L142.3 204.1L166 207.5C173 209.4 180.7 207.8 186.3 203.1L195.6 196.1C197.6 194.5 199.1 192.2 199.2 189.6L200.9 168.1C200.7 168.1 200.8 167.8 200.9 167.8Z" fill="#E4E4E4"/>
<path d="M191.2 147.8L194.1 145.8C195.8 144.6 197.8 144.6 199.6 145.5L202.2 147.1C203.8 147.9 204.6 149.7 204.2 151.5L203.2 157.9C202.9 159.5 201.9 160.5 200.4 160.8L200 160.9C199.3 161 198.7 160.6 198.3 160.1L196.1 155.7C195.4 154.1 194.4 152.9 193.3 151.8L190.9 149.4C190.7 148.9 190.7 148.2 191.2 147.8Z" fill="#1B1B1B"/>
<path d="M209.8 157.6L208.6 156.3C208.3 156 207.9 155.7 207.4 155.7C207 155.7 206.6 155.8 206.2 156.1L204.5 157.7H205.7C205.8 158.4 206.5 158.9 207.3 158.9C208 158.9 208.6 158.3 208.9 157.7L209.8 157.6Z" fill="#1B1C1C"/>
<path d="M207.9 157.2C208.066 157.2 208.2 157.066 208.2 156.9C208.2 156.734 208.066 156.6 207.9 156.6C207.734 156.6 207.6 156.734 207.6 156.9C207.6 157.066 207.734 157.2 207.9 157.2Z" fill="white"/>
<path d="M219.9 164.8C220.342 164.8 220.7 164.531 220.7 164.2C220.7 163.869 220.342 163.6 219.9 163.6C219.458 163.6 219.1 163.869 219.1 164.2C219.1 164.531 219.458 164.8 219.9 164.8Z" fill="white"/>
<path d="M200.3 189.2C200 189.2 199.7 189.1 199.5 188.8C199.4 188.7 184.1 179.1 178.5 179.1C177.9 179.1 177.5 178.7 177.5 178.1C177.5 177.5 177.9 177.1 178.5 177.1C185.2 177.2 201 187.4 201 187.7C201.3 188.1 201.1 188.9 200.7 189C200.8 189.2 200.6 189.2 200.3 189.2Z" fill="#C5220C"/>
<path d="M139.5 178.2L147.2 177.3C150.9 176.9 154.6 177.6 157.9 179.5L158.7 179.9C166.2 184.3 167.8 194.6 162 201L158.6 204.7L163.2 204.6C164.7 204.6 166.1 205.3 166.8 206.5L168.5 209.2H140.3C138.3 209.2 136.4 208.4 134.8 207.1L132.7 205.2C126.3 199.2 125.7 189.3 131.4 182.5C133.4 180.1 136.2 178.5 139.5 178.2Z" fill="#F1F1F1"/>
<path d="M145.6 175.3L159.4 174.9C162.4 174.8 165.5 173.9 168.2 172.3L174.7 168.3C175.4 167.9 176.3 168.2 176.5 168.9L178.7 174.4C180.3 178.3 178.8 182.7 175.6 185L170.9 188.1C167.2 190.6 162.4 191.1 158.3 189.7L149.3 186.3C146.8 185.5 144.7 183.9 142.9 182L138.2 177.4C137.4 176.6 138.1 175.2 139.2 175.2L145.6 175.3Z" fill="#FF2802"/>
<path d="M167.9 180.6C167.9 179.4 166.7 178.6 165.5 178.6C164.3 178.7 163.7 179.4 163.6 179.8H163.5C163.4 179.2 162.7 178.6 161.6 178.6C160.4 178.6 159.4 179.6 159.4 180.8C159.4 181.4 159.5 181.8 159.8 182C159.9 182.1 159.9 182.1 159.9 182.1L163.5 185.7C163.6 185.8 163.8 185.8 163.9 185.7L167.3 182C167.3 182 167.4 181.9 167.4 181.7C167.7 181.5 167.9 181 167.9 180.6Z" fill="white"/>
<path d="M171.6 191.5L178.1 206C179 208 181 209.4 183.4 209.4H204.5L204.1 207.7C203.5 205.2 201.3 203.5 198.8 203.5L193.1 201.9C191.3 201.5 190 200 189.5 198.3L188.6 195L188.7 192.9C188.8 191.4 188.3 190 187.1 189L186.7 188.6C182.4 184.4 175.5 184.9 171.8 189.6C171.4 190.1 171.3 190.9 171.6 191.5Z" fill="#F1F1F1"/>
<path d="M133 103.6C131.6 103.6 130.3 103.1 129.2 102.2L130.4 100.8C130.8 101.2 131.3 101.5 131.7 101.6C132.1 101.7 132.6 101.9 133.1 101.9C133.5 101.9 133.9 101.8 134.2 101.7C134.5 101.6 134.7 101.3 134.9 101.1C135.1 100.9 135.2 100.5 135.2 100.2C135.2 99.7001 135 99.3001 134.6 98.9001C134.2 98.6001 133.7 98.4001 133.1 98.4001C132.8 98.4001 132.5 98.4001 132.2 98.5001C131.9 98.6001 131.6 98.7001 131.2 98.9001L129.8 98.5001L130 93.0001H136.6V94.6001H131.7L131.6 97.3001C132 97.1001 132.3 97.0001 132.7 96.9001C133 96.8001 133.4 96.8001 133.7 96.8001C134.4 96.8001 135 96.9001 135.6 97.2001C136.1 97.5001 136.5 97.8001 136.8 98.3001C137.1 98.8001 137.2 99.3001 137.2 100C137.2 100.7 137 101.3 136.7 101.9C136.4 102.5 135.9 102.9 135.3 103.2C134.5 103.4 133.8 103.6 133 103.6Z" fill="black"/>
<path d="M141.8 103.6C140.4 103.6 139.1 103.1 138 102.2L139.2 100.8C139.6 101.2 140.1 101.5 140.5 101.6C140.9 101.7 141.4 101.9 141.9 101.9C142.3 101.9 142.7 101.8 143 101.7C143.3 101.6 143.5 101.3 143.7 101.1C143.9 100.9 144 100.5 144 100.2C144 99.7001 143.8 99.3001 143.4 98.9001C143 98.6001 142.5 98.4001 141.9 98.4001C141.6 98.4001 141.3 98.4001 141 98.5001C140.7 98.6001 140.4 98.7001 140 98.9001L138.6 98.5001L138.8 93.0001H145.4V94.6001H140.5L140.4 97.3001C140.8 97.1001 141.1 97.0001 141.5 96.9001C141.8 96.8001 142.2 96.8001 142.5 96.8001C143.2 96.8001 143.8 96.9001 144.4 97.2001C144.9 97.5001 145.3 97.8001 145.6 98.3001C145.9 98.8001 146 99.3001 146 100C146 100.7 145.8 101.3 145.5 101.9C145.2 102.5 144.7 102.9 144.1 103.2C143.3 103.4 142.6 103.6 141.8 103.6Z" fill="black"/>
<path d="M154.1 103.5C153.3 103.5 152.6 103.3 152 103C151.4 102.7 150.9 102.2 150.5 101.5C150.1 100.8 150 100.2 150 99.4001C150 98.6001 150.2 97.9 150.5 97.3C150.8 96.7 151.3 96.2 152 95.8C152.7 95.4 153.3 95.3 154.1 95.3C154.7 95.3 155.3 95.4001 155.9 95.7001C156.5 95.9001 157 96.3001 157.4 96.7001L156.1 98.0001C155.8 97.7001 155.5 97.4 155.2 97.3C154.9 97.1 154.5 97.1001 154.2 97.1001C153.8 97.1001 153.4 97.2001 153.1 97.4001C152.8 97.6001 152.5 97.9001 152.4 98.2001C152.2 98.5001 152.1 98.9001 152.1 99.4001C152.1 99.8001 152.2 100.2 152.4 100.5C152.6 100.8 152.8 101.1 153.2 101.3C153.5 101.5 153.9 101.6 154.3 101.6C154.6 101.6 155 101.5 155.3 101.4C155.6 101.3 155.9 101 156.2 100.7L157.4 102C157 102.4 156.5 102.8 156 103C155.3 103.4 154.7 103.5 154.1 103.5Z" fill="black"/>
<path d="M158.3 103.4V95.6001H160.4V96.2001C161 95.7001 161.6 95.5001 162.4 95.5001C162.9 95.5001 163.4 95.6001 163.8 95.8001C164.2 96.0001 164.5 96.3001 164.8 96.7001C165.1 96.3001 165.5 96.0001 165.9 95.8001C166.3 95.6001 166.8 95.5001 167.3 95.5001C167.9 95.5001 168.4 95.6001 168.9 95.9001C169.4 96.2001 169.7 96.5001 169.9 97.0001C170.2 97.5001 170.3 98.0001 170.3 98.6001V103.4H168.3V98.9001C168.3 98.4001 168.2 98.0001 167.9 97.7001C167.6 97.4001 167.3 97.3001 166.8 97.3001C166.5 97.3001 166.2 97.4001 166 97.5001C165.7 97.6001 165.5 97.8001 165.3 98.1001C165.3 98.2001 165.3 98.3001 165.3 98.4001C165.3 98.5001 165.3 98.6001 165.3 98.7001V103.5H163.2V99.0001C163.2 98.5001 163.1 98.1001 162.8 97.8001C162.5 97.5001 162.2 97.4001 161.7 97.4001C161.4 97.4001 161.1 97.5001 160.9 97.6001C160.7 97.7001 160.4 97.9001 160.3 98.1001V103.6H158.3V103.4Z" fill="black"/>
<path d="M178.8 106.7C177.6 106 176.6 105 175.9 103.8C175.2 102.6 174.9 101.2 174.9 99.7001C174.9 98.2001 175.2 96.8001 175.9 95.6001C176.6 94.4001 177.5 93.4001 178.8 92.7001L179.9 94.0001C178.9 94.6001 178.1 95.4001 177.6 96.4001C177.1 97.4001 176.8 98.5001 176.8 99.7001C176.8 100.9 177.1 102 177.6 103C178.1 104 178.9 104.8 179.9 105.4L178.8 106.7Z" fill="black"/>
<path d="M181 103.4V102L185.4 97.6001C185.6 97.4001 185.8 97.2001 185.9 97.0001C186 96.8001 186.1 96.6001 186.2 96.4001C186.3 96.2001 186.3 96 186.3 95.8C186.3 95.4 186.1 95.1 185.8 94.8C185.5 94.5 185.1 94.4001 184.6 94.4001C184.1 94.4001 183.7 94.5001 183.3 94.7001C182.9 94.9001 182.4 95.2001 182 95.7001L180.9 94.4001C181.5 93.9001 182.1 93.4001 182.7 93.2001C183.3 92.9001 184 92.8 184.7 92.8C185.4 92.8 186 92.9001 186.6 93.2001C187.1 93.4001 187.6 93.8001 187.9 94.2001C188.2 94.6001 188.3 95.2001 188.3 95.7001C188.3 96.0001 188.3 96.4001 188.2 96.7001C188.1 97.0001 188 97.3001 187.7 97.6001C187.5 97.9001 187.2 98.2001 186.9 98.6001L183.7 101.8H188.5V103.5H181V103.4Z" fill="black"/>
<path d="M189.6 103.4V102L194 97.6001C194.2 97.4001 194.4 97.2001 194.5 97.0001C194.6 96.8001 194.7 96.6001 194.8 96.4001C194.9 96.2001 194.9 96 194.9 95.8C194.9 95.4 194.7 95.1 194.4 94.8C194.1 94.5 193.7 94.4001 193.2 94.4001C192.7 94.4001 192.3 94.5001 191.9 94.7001C191.5 94.9001 191 95.2001 190.6 95.7001L189.5 94.4001C190.1 93.9001 190.7 93.4001 191.3 93.2001C191.9 92.9001 192.6 92.8 193.3 92.8C194 92.8 194.6 92.9001 195.2 93.2001C195.7 93.4001 196.2 93.8001 196.5 94.2001C196.8 94.6001 196.9 95.2001 196.9 95.7001C196.9 96.0001 196.9 96.4001 196.8 96.7001C196.7 97.0001 196.6 97.3001 196.3 97.6001C196.1 97.9001 195.8 98.2001 195.5 98.6001L192.3 101.8H197.1V103.5H189.6V103.4Z" fill="black"/>
<path d="M197.9 96.2001L198.9 92.3H201L199.4 96.2001H197.9ZM200.8 96.2001L201.8 92.3H203.9L202.3 96.2001H200.8Z" fill="black"/>
<path d="M205.7 92.7001C206.9 93.4001 207.9 94.4001 208.6 95.6001C209.3 96.8001 209.6 98.2001 209.6 99.7001C209.6 101.2 209.3 102.6 208.6 103.8C207.9 105 207 106 205.7 106.7L204.6 105.4C205.6 104.8 206.4 104 206.9 103C207.4 102 207.7 100.9 207.7 99.7001C207.7 98.5001 207.4 97.4001 206.9 96.4001C206.4 95.4001 205.6 94.6001 204.6 94.0001L205.7 92.7001Z" fill="black"/>
<path d="M269.5 219.5C268.7 219.5 267.9 219.4 267.2 219.1C266.5 218.8 265.9 218.4 265.5 217.9L266.8 216.7C267.2 217.1 267.6 217.4 268 217.6C268.4 217.8 268.9 217.9 269.5 217.9C269.9 217.9 270.3 217.8 270.6 217.7C270.9 217.6 271.2 217.4 271.3 217.2C271.5 217 271.6 216.7 271.6 216.4C271.6 216.1 271.5 215.9 271.4 215.7C271.3 215.5 271.1 215.3 270.8 215.2C270.6 215.1 270.3 215 269.9 215H268.6V213.4H269.7C270.2 213.4 270.5 213.3 270.8 213C271.1 212.8 271.2 212.4 271.2 212C271.2 211.7 271.1 211.5 271 211.2C270.9 210.9 270.6 210.8 270.3 210.7C270 210.6 269.7 210.5 269.4 210.5C268.9 210.5 268.4 210.6 268.1 210.8C267.8 211 267.3 211.3 266.9 211.8L265.6 210.6C266.1 210.1 266.7 209.6 267.4 209.3C268.1 209 268.8 208.8 269.6 208.8C270.3 208.8 271 208.9 271.5 209.2C272.1 209.5 272.5 209.8 272.8 210.3C273.1 210.8 273.3 211.3 273.3 211.8C273.3 212.4 273.1 212.9 272.7 213.3C272.3 213.7 271.9 214 271.3 214.2C272 214.3 272.6 214.6 273 215C273.4 215.4 273.6 215.9 273.6 216.5C273.6 217.1 273.4 217.6 273.1 218.1C272.8 218.6 272.3 218.9 271.7 219.2C271 219.3 270.3 219.5 269.5 219.5Z" fill="black"/>
<path d="M278.4 219.5C277 219.5 275.7 219 274.6 218.1L275.8 216.7C276.2 217.1 276.7 217.4 277.1 217.5C277.5 217.6 278 217.8 278.5 217.8C278.9 217.8 279.3 217.7 279.6 217.6C279.9 217.5 280.1 217.2 280.3 217C280.5 216.8 280.6 216.4 280.6 216.1C280.6 215.6 280.4 215.2 280 214.8C279.6 214.5 279.1 214.3 278.5 214.3C278.2 214.3 277.9 214.3 277.6 214.4C277.3 214.5 277 214.6 276.6 214.8L275.2 214.4L275.4 208.9H282V210.6H277.1L277 213.3C277.4 213.1 277.7 213 278.1 212.9C278.4 212.8 278.8 212.8 279.1 212.8C279.8 212.8 280.4 212.9 281 213.2C281.5 213.5 281.9 213.8 282.2 214.3C282.5 214.8 282.6 215.3 282.6 216C282.6 216.7 282.4 217.3 282.1 217.9C281.8 218.5 281.3 218.9 280.7 219.2C279.9 219.3 279.2 219.5 278.4 219.5Z" fill="black"/>
<path d="M290.7 219.4C289.9 219.4 289.2 219.2 288.6 218.9C288 218.6 287.5 218.1 287.1 217.4C286.7 216.7 286.6 216.1 286.6 215.3C286.6 214.5 286.8 213.8 287.1 213.2C287.4 212.6 287.9 212.1 288.6 211.7C289.3 211.3 289.9 211.2 290.7 211.2C291.3 211.2 291.9 211.3 292.5 211.6C293.1 211.8 293.6 212.2 294 212.6L292.7 213.9C292.4 213.6 292.1 213.3 291.8 213.2C291.5 213 291.1 213 290.8 213C290.4 213 290 213.1 289.7 213.3C289.4 213.5 289.1 213.8 289 214.1C288.8 214.4 288.7 214.8 288.7 215.3C288.7 215.7 288.8 216.1 289 216.4C289.2 216.7 289.4 217 289.8 217.2C290.1 217.4 290.5 217.5 290.9 217.5C291.2 217.5 291.6 217.4 291.9 217.3C292.2 217.2 292.5 216.9 292.8 216.6L294 217.9C293.6 218.3 293.1 218.7 292.6 218.9C291.9 219.3 291.3 219.4 290.7 219.4Z" fill="black"/>
<path d="M294.9 219.3V211.5H297V212.1C297.6 211.6 298.2 211.4 299 211.4C299.5 211.4 300 211.5 300.4 211.7C300.8 211.9 301.1 212.2 301.4 212.6C301.7 212.2 302.1 211.9 302.5 211.7C302.9 211.5 303.4 211.4 303.9 211.4C304.5 211.4 305 211.5 305.5 211.8C306 212.1 306.3 212.4 306.5 212.9C306.8 213.4 306.9 213.9 306.9 214.5V219.3H304.9V214.8C304.9 214.3 304.8 213.9 304.5 213.6C304.2 213.3 303.9 213.2 303.4 213.2C303.1 213.2 302.8 213.3 302.6 213.4C302.3 213.5 302.1 213.7 301.9 214C301.9 214.1 301.9 214.2 301.9 214.3C301.9 214.4 301.9 214.5 301.9 214.6V219.4H299.8V214.9C299.8 214.4 299.7 214 299.4 213.7C299.1 213.4 298.8 213.3 298.3 213.3C298 213.3 297.7 213.4 297.5 213.5C297.3 213.6 297 213.8 296.9 214V219.5H294.9V219.3Z" fill="black"/>
<path d="M278.2 240.6C277 239.9 276 238.9 275.3 237.7C274.6 236.5 274.3 235.1 274.3 233.6C274.3 232.1 274.6 230.7 275.3 229.5C276 228.3 276.9 227.3 278.2 226.6L279.3 227.9C278.3 228.5 277.5 229.3 277 230.3C276.5 231.3 276.2 232.4 276.2 233.6C276.2 234.8 276.5 235.9 277 236.9C277.5 237.9 278.3 238.7 279.3 239.3L278.2 240.6Z" fill="black"/>
<path d="M282.1 237.3V228.9L280 229.8V228L282.8 226.9H284.1V237.4H282.1V237.3Z" fill="black"/>
<path d="M291.3 237.3V234.8H285.4V233.2L291 226.8H293.4V233.1H294.7V234.8H293.4V237.3H291.3ZM287.7 233.1H291.2V229.1L287.7 233.1Z" fill="black"/>
<path d="M294.8 230.1L295.8 226.2H297.9L296.3 230.1H294.8ZM297.7 230.1L298.7 226.2H300.8L299.2 230.1H297.7Z" fill="black"/>
<path d="M302.7 226.6C303.9 227.3 304.9 228.3 305.6 229.5C306.3 230.7 306.6 232.1 306.6 233.6C306.6 235.1 306.3 236.5 305.6 237.7C304.9 238.9 304 239.9 302.7 240.6L301.6 239.3C302.6 238.7 303.4 237.9 303.9 236.9C304.4 235.9 304.7 234.8 304.7 233.6C304.7 232.4 304.4 231.3 303.9 230.3C303.4 229.3 302.6 228.5 301.6 227.9L302.7 226.6Z" fill="black"/>
<path d="M39.1 158.9V157.5L43.5 153.1C43.7 152.9 43.9 152.7 44 152.5C44.1 152.3 44.2 152.1 44.3 151.9C44.4 151.7 44.4 151.5 44.4 151.3C44.4 150.9 44.2 150.6 43.9 150.3C43.6 150 43.2 149.9 42.7 149.9C42.2 149.9 41.8 150 41.4 150.2C41 150.4 40.5 150.7 40.1 151.2L39 149.9C39.6 149.4 40.2 148.9 40.8 148.7C41.4 148.4 42.1 148.3 42.8 148.3C43.5 148.3 44.1 148.4 44.7 148.7C45.2 148.9 45.7 149.3 46 149.7C46.3 150.1 46.4 150.7 46.4 151.2C46.4 151.5 46.4 151.9 46.3 152.2C46.2 152.5 46.1 152.8 45.8 153.1C45.6 153.4 45.3 153.7 45 154.1L41.8 157.3H46.6V159H39.1V158.9Z" fill="black"/>
<path d="M51.2 159.1C49.8 159.1 48.5 158.6 47.4 157.7L48.6 156.3C49 156.7 49.5 157 49.9 157.1C50.3 157.2 50.8 157.4 51.3 157.4C51.7 157.4 52.1 157.3 52.4 157.2C52.7 157.1 52.9 156.8 53.1 156.6C53.3 156.4 53.4 156 53.4 155.7C53.4 155.2 53.2 154.8 52.8 154.4C52.4 154.1 51.9 153.9 51.3 153.9C51 153.9 50.7 153.9 50.4 154C50.1 154.1 49.8 154.2 49.4 154.4L48 154L48.2 148.5H54.8V150.2H49.9L49.8 152.9C50.2 152.7 50.5 152.6 50.9 152.5C51.2 152.4 51.6 152.4 51.9 152.4C52.6 152.4 53.2 152.5 53.8 152.8C54.3 153.1 54.7 153.4 55 153.9C55.3 154.4 55.4 154.9 55.4 155.6C55.4 156.3 55.2 156.9 54.9 157.5C54.6 158.1 54.1 158.5 53.5 158.8C52.8 158.9 52 159.1 51.2 159.1Z" fill="black"/>
<path d="M63.5 159C62.7 159 62 158.8 61.4 158.5C60.8 158.2 60.3 157.7 59.9 157C59.5 156.3 59.4 155.7 59.4 154.9C59.4 154.1 59.6 153.4 59.9 152.8C60.2 152.2 60.7 151.7 61.4 151.3C62.1 150.9 62.7 150.8 63.5 150.8C64.1 150.8 64.7 150.9 65.3 151.2C65.9 151.4 66.4 151.8 66.8 152.2L65.5 153.5C65.2 153.2 64.9 152.9 64.6 152.8C64.3 152.6 63.9 152.6 63.6 152.6C63.2 152.6 62.8 152.7 62.5 152.9C62.2 153.1 61.9 153.4 61.8 153.7C61.6 154 61.5 154.4 61.5 154.9C61.5 155.3 61.6 155.7 61.8 156C62 156.3 62.2 156.6 62.6 156.8C62.9 157 63.3 157.1 63.7 157.1C64 157.1 64.4 157 64.7 156.9C65 156.8 65.3 156.5 65.6 156.2L66.8 157.5C66.4 157.9 65.9 158.3 65.4 158.5C64.7 158.9 64.1 159 63.5 159Z" fill="black"/>
<path d="M67.8 158.9V151.1H69.9001V151.7C70.5001 151.2 71.1001 151 71.9001 151C72.4001 151 72.9 151.1 73.3 151.3C73.7 151.5 74 151.8 74.3 152.2C74.6 151.8 75.0001 151.5 75.4001 151.3C75.8001 151.1 76.3 151 76.8 151C77.4 151 77.9001 151.1 78.4001 151.4C78.9001 151.7 79.2001 152 79.4001 152.5C79.7001 153 79.8 153.5 79.8 154.1V158.9H77.8V154.4C77.8 153.9 77.7001 153.5 77.4001 153.2C77.1001 152.9 76.8 152.8 76.3 152.8C76 152.8 75.7 152.9 75.5 153C75.2 153.1 75 153.3 74.8 153.6C74.8 153.7 74.8 153.8 74.8 153.9C74.8 154 74.8 154.1 74.8 154.2V159H72.7001V154.5C72.7001 154 72.6 153.6 72.3 153.3C72 153 71.7001 152.9 71.2001 152.9C70.9001 152.9 70.6001 153 70.4001 153.1C70.2001 153.2 69.9 153.4 69.8 153.6V159.1H67.8V158.9Z" fill="black"/>
<path d="M50.7 180.2C49.5 179.5 48.5 178.5 47.8 177.3C47.1 176.1 46.8 174.7 46.8 173.2C46.8 171.7 47.1 170.3 47.8 169.1C48.5 167.9 49.4 166.9 50.7 166.2L51.8 167.5C50.8 168.1 50 168.9 49.5 169.9C49 170.9 48.7 172 48.7 173.2C48.7 174.4 49 175.5 49.5 176.5C50 177.5 50.8 178.3 51.8 178.9L50.7 180.2Z" fill="black"/>
<path d="M54.6 176.9V168.5L52.5 169.4V167.6L55.3 166.5H56.6V177H54.6V176.9Z" fill="black"/>
<path d="M62.6 177.1C61.7 177.1 60.9 176.9 60.2 176.4C59.5 175.9 59 175.3 58.6 174.5C58.2 173.7 58 172.7 58 171.7C58 170.6 58.2 169.7 58.6 168.9C59 168.1 59.5 167.5 60.2 167C60.9 166.5 61.7 166.3 62.6 166.3C63.5 166.3 64.3 166.5 65 167C65.7 167.5 66.2 168.1 66.6 168.9C67 169.7 67.2 170.7 67.2 171.7C67.2 172.8 67 173.7 66.6 174.5C66.2 175.3 65.7 175.9 65 176.4C64.3 176.8 63.5 177.1 62.6 177.1ZM62.6 175.3C63.1 175.3 63.6 175.2 64 174.9C64.4 174.6 64.7 174.2 64.9 173.6C65.1 173.1 65.2 172.4 65.2 171.7C65.2 171 65.1 170.3 64.9 169.8C64.7 169.3 64.4 168.8 64 168.5C63.6 168.2 63.1 168.1 62.6 168.1C62.1 168.1 61.6 168.2 61.2 168.5C60.8 168.8 60.5 169.2 60.3 169.8C60.1 170.3 60 171 60 171.7C60 172.4 60.1 173.1 60.3 173.6C60.5 174.1 60.8 174.6 61.2 174.9C61.6 175.1 62.1 175.3 62.6 175.3Z" fill="black"/>
<path d="M67.9 169.7L68.9 165.8H71L69.4 169.7H67.9ZM70.8 169.7L71.8 165.8H73.9L72.3 169.7H70.8Z" fill="black"/>
<path d="M75.8001 166.2C77.0001 166.9 78.0001 167.9 78.7001 169.1C79.4001 170.3 79.7001 171.7 79.7001 173.2C79.7001 174.7 79.4001 176.1 78.7001 177.3C78.0001 178.5 77.1001 179.5 75.8001 180.2L74.7001 178.9C75.7001 178.3 76.5001 177.5 77.0001 176.5C77.5001 175.5 77.8001 174.4 77.8001 173.2C77.8001 172 77.5001 170.9 77.0001 169.9C76.5001 168.9 75.7001 168.1 74.7001 167.5L75.8001 166.2Z" fill="black"/>
<path d="M428.2 166.6L444.2 164.8C448.9 164.3 453.6 165.3 457.7 167.6L458.7 168.2C468.2 173.8 470.2 186.7 462.8 194.9L458.6 199.5L464.4 199.3C466.3 199.2 468 200.2 469 201.8L471.1 205.2H431.4L425.9 200C417.8 192.4 417.1 179.9 424.2 171.4L428.2 166.6Z" fill="#D2D2D2"/>
<path d="M500.9 149.3C498.8 145.4 502.8 143.9 484.5 145.2C486.2 165.5 491.7 203.2 491.7 203.2C491.9 204.4 493 205.3 494.2 205.3H503.2C503.2 199.4 498.2 199.5 498.2 199.5L497.2 190.5C497 188.8 497 187.1 497.2 185.4L498.7 167.1C498.7 165.7 502 152.4 502 152.4L501.5 151.6C501.5 151.5 500.7 149.8 500.9 149.3Z" fill="#D2D2D2"/>
<path d="M539.4 112.8L524.5 106.5C523.5 106.1 522.7 105.3 522.3 104.3L520.2 99.3C519.8 98.4 519.2 97.7 518.2 97.2L516.2 96.3C509.3 92.9 501 94.3 495.5 99.7L479.4 127.2L450.2 142.1C444.7 144.9 439.8 148.6 435.5 153L421.8 167.3C416.3 173 412.7 180.2 411.4 188C409.5 198.9 418 208.9 429 208.9L446.7 199L452.7 186.3L491.4 165.5C501 159.8 506.4 149 504.9 137.9L503.1 123.6C503.9 121 506.5 119.5 509.1 120.1L525.6 123.5C527.8 124 530.2 123.2 531.9 121.7L536.5 117.4L539.5 115.2C540.4 114.6 540.3 113.3 539.4 112.8Z" fill="#E4E4E4"/>
<path d="M501.1 156C501.4 155.2 501.7 154.4 501.9 153.8C499.7 149.8 492.9 146.8 474.2 148.1C476 169 481.6 207.7 481.6 207.7C481.8 208.9 482.9 209.9 484.2 209.9H493.5C493.5 203.8 488.4 203.9 488.4 203.9L487.4 194.6C487.2 192.8 487.2 191.1 487.4 189.3L488.9 170.5C488.9 169.1 489.5 167.7 490.5 166.7L493.9 164.7C497.3 162.9 499.9 159.8 501.1 156Z" fill="#F1F1F1"/>
<path d="M505.2 98.4L499.4 100C496.1 100.9 493.8 103.7 493.3 106.9L492.5 112.1C492.1 115.1 493.5 118 496.2 119.4L505.6 124.6C507.7 125.8 510.4 125.5 512.3 123.8L512.8 123.3C513.7 122.5 514 121.2 513.5 120.2L510 112.7C508.8 110.2 508 107.6 507.8 104.9L507.1 99.4C507.2 98.6 506.3 98 505.2 98.4Z" fill="#1B1B1B"/>
<path d="M520.1 105.3L518.5 103.6C518.2 103.2 517.7 103.1 517.2 103.1C516.7 103.1 516.2 103.4 515.9 103.6L513.8 105.4H515.2C515.5 106.2 516.1 106.8 516.9 106.8C517.8 106.8 518.5 106.3 518.7 105.4L520.1 105.3Z" fill="#1B1C1C"/>
<path d="M517.9 104.9C518.121 104.9 518.3 104.721 518.3 104.5C518.3 104.279 518.121 104.1 517.9 104.1C517.679 104.1 517.5 104.279 517.5 104.5C517.5 104.721 517.679 104.9 517.9 104.9Z" fill="white"/>
<path d="M493.2 152.8L490.3 154C488.6 154 488.3 150.9 489.1 149.3L491.8 146.2C492.6 144.5 495.1 144.4 496 146.2L496.7 147.6C497.5 149 495.8 152.3 494.1 152.7C493.8 152.6 493.6 152.7 493.2 152.8Z" fill="#1B1B1B"/>
<path d="M450 189.1L451.3 189.6C452.9 190.3 453.3 192.3 452 193.5L450.8 194.5C449.4 195.8 447 194.8 446.9 192.9L446.8 191.3C446.6 189.6 448.5 188.4 450 189.1Z" fill="#1B1B1B"/>
<path d="M459.4 151C460.725 151 461.8 150.284 461.8 149.4C461.8 148.516 460.725 147.8 459.4 147.8C458.075 147.8 457 148.516 457 149.4C457 150.284 458.075 151 459.4 151Z" fill="#1B1B1B"/>
<path d="M431.1 195.3C433.475 195.3 435.4 193.823 435.4 192C435.4 190.177 433.475 188.7 431.1 188.7C428.725 188.7 426.8 190.177 426.8 192C426.8 193.823 428.725 195.3 431.1 195.3Z" fill="#1B1B1B"/>
<path d="M464.4 166.1C465.615 166.1 466.6 165.473 466.6 164.7C466.6 163.927 465.615 163.3 464.4 163.3C463.185 163.3 462.2 163.927 462.2 164.7C462.2 165.473 463.185 166.1 464.4 166.1Z" fill="#1B1B1B"/>
<path d="M498.923 134.188C500.442 131.557 500.704 128.865 499.508 128.175C498.313 127.484 496.112 129.057 494.593 131.688C493.074 134.318 492.813 137.01 494.008 137.701C495.204 138.391 497.404 136.818 498.923 134.188Z" fill="#1B1B1B"/>
<path d="M443.7 159.9L446.4 158.5C448.1 158.2 450.2 161.2 449.7 162.8L445.9 166.5C445.2 168.3 442.8 168.7 441.7 167L440.8 165.7C439.9 164.4 441.2 161 442.8 160.3C443 160.1 443.4 160.1 443.7 159.9Z" fill="#1B1B1B"/>
<path d="M446.7 140.5L464.3 134.2C468.2 132.8 471.7 130.4 474.4 127.3L481.1 119.5C481.8 118.7 483 118.7 483.7 119.6L488.8 125.7C492.4 130 492.5 136.2 489 140.7L484.2 146.8C480.4 151.6 474.6 154.3 468.6 154L455.5 153.4C452.1 153.2 448.6 152.3 445.6 150.6L438.1 146.4C436.8 145.7 436.9 143.7 438.4 143.3L446.7 140.5Z" fill="#FF2802"/>
<path d="M477.7 138.1C477.2 136.6 475.4 135.8 473.9 136.5C472.5 137.1 471.9 138.2 472 139C472 139.1 471.9 139.1 471.9 139C471.4 138.4 470.3 137.9 468.9 138.3C467.4 138.8 466.5 140.5 467 142C467.2 142.6 467.6 143.2 468.1 143.5L468.2 143.6C468.3 143.7 468.4 143.7 468.6 143.8L474.6 146.9C474.7 147 475 146.9 475 146.7L477.6 140.5C477.7 140.4 477.7 140.3 477.8 140.1L477.9 140C477.9 139.4 477.9 138.7 477.7 138.1Z" fill="white"/>
<path d="M538.2 114.5C538.697 114.5 539.1 114.276 539.1 114C539.1 113.724 538.697 113.5 538.2 113.5C537.703 113.5 537.3 113.724 537.3 114C537.3 114.276 537.703 114.5 538.2 114.5Z" fill="white"/>
<path d="M483.544 187.096C484.104 186.413 483.728 185.178 482.704 184.337C481.679 183.496 480.394 183.368 479.833 184.051C479.273 184.734 479.649 185.969 480.674 186.81C481.698 187.651 482.983 187.779 483.544 187.096Z" fill="#1B1B1B"/>
<path d="M416.6 190.6L416.5 182.5L409.8 186.1C404.9 188.7 400.1 188.6 394.6 187.8C383.3 186 374.3 175.8 371.2 167.6C370.8 166.5 369 167.2 369.2 168.4C371.8 179.9 383.3 188.6 393.6 193C400.6 196 408.6 195.6 415.1 191.6C415.7 191.2 416.2 190.9 416.6 190.6Z" fill="#E4E4E4"/>
<path d="M418.5 171.3L434.5 169.5C439.2 169 443.9 170 448 172.3L449 172.9C458.5 178.5 460.5 191.4 453.1 199.6L448.9 204.2L454.7 204C456.6 203.9 458.3 204.9 459.3 206.5L461.4 209.9H421.8L416.3 204.7C408.2 197.1 407.5 184.6 414.6 176.1L418.5 171.3Z" fill="#F1F1F1"/>
<path d="M429.2 189.8L430.5 190.3C432.1 191 432.5 193 431.2 194.2L430 195.2C428.6 196.5 426.2 195.5 426.1 193.6L426 192C425.8 190.4 427.7 189.2 429.2 189.8Z" fill="#1B1B1B"/>
<path d="M424.5 174.5L427.2 173.1C428.9 172.8 431 175.8 430.5 177.4L426.7 181.1C426 182.9 423.6 183.3 422.5 181.6L421.6 180.3C420.7 179 422 175.6 423.6 174.9C423.8 174.8 424.2 174.7 424.5 174.5Z" fill="#1B1B1B"/>
<path d="M448.528 190.693C449.841 188.201 449.401 185.388 447.544 184.409C445.687 183.431 443.118 184.658 441.805 187.15C440.491 189.642 440.932 192.455 442.789 193.433C444.646 194.412 447.215 193.185 448.528 190.693Z" fill="#1B1B1B"/>
<path d="M139.9 66.8C155.9 66.8 168.8 53.8 168.8 37.9C168.8 22 155.8 9 139.9 9C124 9 111 21.9 111 37.9C111 53.9 123.9 66.8 139.9 66.8Z" fill="#1B1B1B"/>
<path d="M123.7 48.6V37.8L121 38.9V36.6L124.6 35.1H126.3V48.6H123.7Z" fill="white"/>
<path d="M133.9 48.8C132.7 48.8 131.7 48.5 130.8 47.9C129.9 47.3 129.2 46.5 128.7 45.5C128.2 44.5 128 43.3 128 41.9C128 40.5 128.2 39.3 128.7 38.3C129.2 37.3 129.9 36.5 130.8 35.9C131.7 35.3 132.7 35 133.9 35C135.1 35 136.1 35.3 137 35.9C137.9 36.5 138.6 37.3 139.1 38.3C139.6 39.3 139.8 40.5 139.8 41.9C139.8 43.3 139.6 44.5 139.1 45.5C138.6 46.5 137.9 47.4 137 47.9C136.1 48.5 135.1 48.8 133.9 48.8ZM133.9 46.5C134.6 46.5 135.2 46.3 135.7 45.9C136.2 45.5 136.6 45 136.9 44.3C137.2 43.6 137.3 42.8 137.3 41.8C137.3 40.8 137.2 40 136.9 39.3C136.6 38.6 136.2 38.1 135.7 37.7C135.2 37.3 134.6 37.1 133.9 37.1C133.2 37.1 132.6 37.3 132.1 37.7C131.6 38.1 131.2 38.6 130.9 39.3C130.6 40 130.5 40.8 130.5 41.8C130.5 42.7 130.6 43.6 130.9 44.3C131.2 45 131.6 45.5 132.1 45.9C132.6 46.3 133.2 46.5 133.9 46.5Z" fill="white"/>
<path d="M144.2 47.9V38.1L146.1 37.8V43.7L149.2 40.6H151.4L148 43.9L151.6 47.8H149.2L146.1 44.5V47.8H144.2V47.9Z" fill="white"/>
<path d="M155.1 50.9C154.5 50.9 154 50.8 153.5 50.7C153 50.6 152.5 50.4 152.1 50.2L152.8 48.7C153.2 48.9 153.6 49 154 49.1C154.4 49.2 154.8 49.2 155.1 49.2C155.7 49.2 156.1 49.1 156.4 48.8C156.7 48.5 156.8 48.2 156.8 47.7V47.1C156.2 47.5 155.5 47.8 154.8 47.8C154.1 47.8 153.5 47.6 152.9 47.3C152.3 47 151.9 46.5 151.6 46C151.3 45.4 151.1 44.8 151.1 44.1C151.1 43.4 151.3 42.8 151.6 42.2C151.9 41.6 152.4 41.2 152.9 40.9C153.4 40.6 154.1 40.4 154.8 40.4C155.2 40.4 155.5 40.5 155.8 40.6C156.1 40.7 156.4 40.8 156.7 41V40.6H158.6V47.9C158.6 48.9 158.3 49.6 157.7 50.1C157.2 50.6 156.3 50.9 155.1 50.9ZM155.1 46.3C155.5 46.3 155.8 46.2 156.1 46.1C156.4 46 156.6 45.8 156.8 45.6V42.8C156.6 42.6 156.3 42.4 156.1 42.3C155.8 42.2 155.5 42.1 155.2 42.1C154.8 42.1 154.4 42.2 154.1 42.4C153.8 42.6 153.5 42.8 153.3 43.1C153.1 43.4 153 43.8 153 44.2C153 44.6 153.1 45 153.3 45.3C153.5 45.6 153.7 45.9 154.1 46.1C154.4 46.2 154.7 46.3 155.1 46.3Z" fill="white"/>
<path d="M204.4 66.8C217.4 66.8 227.9 56.2 227.9 43.3C227.9 30.4 217.4 19.7 204.4 19.7C191.4 19.7 180.8 30.3 180.8 43.2C180.8 56.1 191.4 66.8 204.4 66.8Z" fill="#1B1B1B"/>
<path d="M207.894 35.904L209.494 33.784L207.934 31.736H209.206L210.126 32.976L211.038 31.736H212.27L210.734 33.768L212.366 35.904H211.086L210.102 34.576L209.118 35.904H207.894Z" fill="white"/>
<path d="M205.233 35.976C204.934 35.976 204.67 35.9227 204.441 35.816C204.211 35.704 204.033 35.552 203.905 35.36C203.777 35.168 203.713 34.9467 203.713 34.696C203.713 34.296 203.862 33.9867 204.161 33.768C204.465 33.544 204.881 33.432 205.409 33.432C205.771 33.432 206.113 33.488 206.433 33.6V33.296C206.433 33.056 206.358 32.8747 206.209 32.752C206.059 32.6293 205.841 32.568 205.553 32.568C205.377 32.568 205.187 32.5973 204.985 32.656C204.782 32.7093 204.547 32.7947 204.281 32.912L203.881 32.104C204.211 31.9547 204.526 31.8427 204.825 31.768C205.129 31.6933 205.433 31.656 205.737 31.656C206.297 31.656 206.731 31.792 207.041 32.064C207.355 32.3307 207.513 32.7093 207.513 33.2V35.904H206.433V35.608C206.262 35.736 206.078 35.8293 205.881 35.888C205.683 35.9467 205.467 35.976 205.233 35.976ZM204.753 34.672C204.753 34.832 204.822 34.96 204.961 35.056C205.099 35.1467 205.283 35.192 205.513 35.192C205.694 35.192 205.862 35.1707 206.017 35.128C206.171 35.08 206.31 35.0107 206.433 34.92V34.312C206.299 34.2587 206.161 34.2187 206.017 34.192C205.873 34.1653 205.718 34.152 205.553 34.152C205.302 34.152 205.105 34.2 204.961 34.296C204.822 34.3867 204.753 34.512 204.753 34.672ZM204.985 31.04L205.705 30H206.953L205.873 31.04H204.985Z" fill="white"/>
<path d="M197 35.904V30.304H198.488L200.024 33.328L201.56 30.304H203.048V35.904H201.952V31.784L200.008 35.504L198.072 31.768V35.904H197Z" fill="white"/>
<path d="M189.1 52.5V51L193.7 46.4C193.9 46.2 194.1 46 194.2 45.8C194.3 45.6 194.4 45.4 194.5 45.2C194.6 45 194.6 44.8 194.6 44.6C194.6 44.2 194.4 43.9 194.1 43.6C193.8 43.3 193.3 43.2 192.8 43.2C192.3 43.2 191.8 43.3 191.4 43.5C191 43.7 190.5 44 190 44.5L188.8 43.1C189.4 42.5 190.1 42.1 190.7 41.8C191.4 41.5 192.1 41.4 192.8 41.4C193.5 41.4 194.2 41.5 194.8 41.8C195.4 42.1 195.8 42.4 196.1 42.9C196.4 43.4 196.6 43.9 196.6 44.5C196.6 44.9 196.6 45.2 196.5 45.5C196.4 45.8 196.2 46.1 196 46.4C195.8 46.7 195.5 47.1 195.1 47.4L191.8 50.7H196.8V52.5H189.1Z" fill="white"/>
<path d="M198 52.5V51L202.6 46.4C202.8 46.2 203 46 203.1 45.8C203.2 45.6 203.3 45.4 203.4 45.2C203.5 45 203.5 44.8 203.5 44.6C203.5 44.2 203.3 43.9 203 43.6C202.7 43.3 202.2 43.2 201.7 43.2C201.2 43.2 200.7 43.3 200.3 43.5C199.9 43.7 199.4 44 198.9 44.5L197.7 43.1C198.3 42.5 199 42.1 199.6 41.8C200.3 41.5 201 41.4 201.7 41.4C202.4 41.4 203.1 41.5 203.7 41.8C204.3 42.1 204.7 42.4 205 42.9C205.3 43.4 205.5 43.9 205.5 44.5C205.5 44.9 205.5 45.2 205.4 45.5C205.3 45.8 205.1 46.1 204.9 46.4C204.7 46.7 204.4 47.1 204 47.4L200.7 50.7H205.7V52.5H198Z" fill="white"/>
<path d="M209.5 52.7V44.7L211.1 44.4V52.6H209.5V52.7Z" fill="white"/>
<path d="M212.2 52.7V44.7L213.8 44.4V47.2C214.3 46.8 214.8 46.6 215.5 46.6C216.1 46.6 216.6 46.7 217 47C217.5 47.3 217.8 47.6 218.1 48.1C218.4 48.6 218.5 49.1 218.5 49.6C218.5 50.1 218.4 50.7 218.1 51.1C217.8 51.6 217.5 51.9 217 52.2C216.5 52.5 216 52.6 215.5 52.6C215.2 52.6 214.9 52.6 214.6 52.5C214.3 52.4 214.1 52.3 213.8 52.1V52.5H212.2V52.7ZM215.2 51.4C215.5 51.4 215.8 51.3 216.1 51.2C216.4 51.1 216.6 50.8 216.7 50.6C216.8 50.4 216.9 50.1 216.9 49.7C216.9 49.4 216.8 49.1 216.7 48.8C216.5 48.5 216.3 48.3 216.1 48.2C215.9 48.1 215.5 48 215.2 48C214.9 48 214.6 48 214.4 48.1C214.2 48.2 214 48.3 213.8 48.5V50.8C214 51 214.2 51.1 214.4 51.2C214.6 51.3 214.9 51.4 215.2 51.4Z" fill="white"/>
<path d="M427.1 65.8C442.7 65.8 455.5 53.1 455.5 37.4C455.5 21.7 442.8 9 427.1 9C411.4 9 398.7 21.7 398.7 37.4C398.7 53.1 411.4 65.8 427.1 65.8Z" fill="#1B1B1B"/>
<path d="M408.2 47.8L414.1 36.8H406.7V34.6H416.7V36.4L411.1 47.7H408.2V47.8Z" fill="white"/>
<path d="M423.7 48C422.6 48 421.5 47.7 420.7 47.1C419.8 46.5 419.1 45.7 418.7 44.7C418.2 43.7 418 42.5 418 41.2C418 39.8 418.2 38.7 418.7 37.6C419.2 36.6 419.9 35.8 420.7 35.2C421.6 34.6 422.6 34.3 423.7 34.3C424.9 34.3 425.9 34.6 426.7 35.2C427.6 35.8 428.3 36.6 428.7 37.6C429.2 38.6 429.4 39.8 429.4 41.2C429.4 42.5 429.2 43.7 428.7 44.7C428.2 45.7 427.5 46.5 426.7 47.1C425.8 47.7 424.8 48 423.7 48ZM423.7 45.8C424.4 45.8 425 45.6 425.5 45.3C426 44.9 426.4 44.4 426.6 43.7C426.8 43 427 42.2 427 41.3C427 40.4 426.9 39.5 426.6 38.9C426.3 38.2 426 37.7 425.5 37.3C425 36.9 424.4 36.8 423.7 36.8C423 36.8 422.5 37 422 37.3C421.5 37.7 421.1 38.2 420.9 38.9C420.6 39.6 420.5 40.4 420.5 41.3C420.5 42.2 420.6 43 420.9 43.7C421.2 44.4 421.5 44.9 422 45.3C422.4 45.6 423 45.8 423.7 45.8Z" fill="white"/>
<path d="M433.6 47.2V37.6L435.4 37.3V43.1L438.5 40.1H440.6L437.2 43.4L440.8 47.3H438.4L435.4 44V47.3H433.6V47.2Z" fill="white"/>
<path d="M444.3 50.1C443.8 50.1 443.2 50 442.7 49.9C442.2 49.8 441.7 49.6 441.3 49.4L442 47.9C442.4 48.1 442.8 48.2 443.1 48.3C443.4 48.4 443.8 48.4 444.2 48.4C444.8 48.4 445.2 48.3 445.5 48C445.8 47.7 445.9 47.4 445.9 46.9V46.3C445.3 46.7 444.7 46.9 443.9 46.9C443.2 46.9 442.6 46.7 442.1 46.4C441.6 46.1 441.1 45.6 440.8 45.1C440.5 44.5 440.3 43.9 440.3 43.3C440.3 42.7 440.5 42 440.8 41.5C441.1 41 441.6 40.5 442.1 40.2C442.7 39.9 443.3 39.7 444 39.7C444.3 39.7 444.7 39.7 445 39.9C445.3 40.1 445.6 40.1 445.9 40.3V39.8H447.7V46.9C447.7 47.8 447.4 48.6 446.8 49.1C446.2 49.6 445.4 50.1 444.3 50.1ZM444.3 45.6C444.6 45.6 445 45.5 445.2 45.4C445.5 45.3 445.7 45.1 445.9 44.9V42.1C445.7 41.9 445.5 41.7 445.2 41.6C444.9 41.5 444.6 41.4 444.3 41.4C443.9 41.4 443.6 41.5 443.2 41.7C442.9 41.9 442.6 42.1 442.5 42.4C442.4 42.7 442.2 43.1 442.2 43.4C442.2 43.8 442.3 44.1 442.5 44.5C442.7 44.8 442.9 45.1 443.2 45.2C443.6 45.5 443.9 45.6 444.3 45.6Z" fill="white"/>
<path d="M490.6 65.8C503.4 65.8 513.7 55.4 513.7 42.7C513.7 30 503.3 19.6 490.6 19.6C477.8 19.6 467.5 30 467.5 42.7C467.5 55.4 477.8 65.8 490.6 65.8Z" fill="#1B1B1B"/>
<path d="M474.6 51.1V42.5L472.5 43.4V41.6L475.4 40.4H476.7V51.1H474.6Z" fill="white"/>
<path d="M481.9 51.3C480.4 51.3 479.1 50.8 478.1 49.9L479.3 48.5C479.8 48.9 480.2 49.2 480.6 49.3C481 49.5 481.5 49.6 482 49.6C482.4 49.6 482.8 49.5 483.1 49.4C483.4 49.3 483.6 49 483.8 48.8C484 48.5 484.1 48.2 484.1 47.8C484.1 47.3 483.9 46.8 483.5 46.5C483.1 46.2 482.6 46 481.9 46C481.6 46 481.3 46 480.9 46.1C480.5 46.2 480.3 46.3 479.9 46.5L478.5 46.1L478.7 40.4H485.5V42.1H480.5L480.4 44.8C480.8 44.6 481.1 44.5 481.5 44.4C481.8 44.3 482.2 44.3 482.5 44.3C483.2 44.3 483.9 44.4 484.4 44.7C484.9 45 485.4 45.4 485.6 45.8C485.9 46.3 486 46.9 486 47.5C486 48.2 485.8 48.9 485.5 49.4C485.1 50 484.7 50.4 484 50.7C483.3 51 482.8 51.3 481.9 51.3Z" fill="white"/>
<path d="M493.3 51.1V48.6H487.2V46.9L492.9 40.4H495.3V46.9H496.6V48.7H495.3V51.2H493.3V51.1ZM489.6 46.9H493.2V42.8L489.6 46.9Z" fill="white"/>
<path d="M499.7 51.3V43.5L501.2 43.2V51.3H499.7Z" fill="white"/>
<path d="M502.4 51.3V43.5L503.9 43.2V45.9C504.4 45.5 504.9 45.4 505.5 45.4C506 45.4 506.5 45.5 507 45.8C507.4 46.1 507.8 46.4 508.1 46.9C508.4 47.3 508.5 47.9 508.5 48.4C508.5 49 508.4 49.5 508.1 49.9C507.8 50.3 507.5 50.7 507 51C506.5 51.3 506 51.4 505.5 51.4C505.2 51.4 504.9 51.4 504.7 51.3C504.4 51.2 504.2 51.1 503.9 50.9V51.3H502.4ZM505.3 50C505.6 50 505.9 49.9 506.2 49.8C506.5 49.7 506.7 49.5 506.8 49.2C506.9 48.9 507 48.7 507 48.3C507 47.9 506.9 47.7 506.8 47.4C506.7 47.1 506.4 46.9 506.2 46.8C505.9 46.7 505.7 46.6 505.3 46.6C505 46.6 504.8 46.6 504.5 46.7C504.3 46.8 504.1 46.9 503.9 47.1V49.4C504.1 49.6 504.3 49.7 504.5 49.8C504.8 50 505 50 505.3 50Z" fill="white"/>
<path d="M493.894 35.904L495.494 33.784L493.934 31.736H495.206L496.126 32.976L497.038 31.736H498.27L496.734 33.768L498.366 35.904H497.086L496.102 34.576L495.118 35.904H493.894Z" fill="white"/>
<path d="M491.233 35.976C490.934 35.976 490.67 35.9227 490.441 35.816C490.211 35.704 490.033 35.552 489.905 35.36C489.777 35.168 489.713 34.9467 489.713 34.696C489.713 34.296 489.862 33.9867 490.161 33.768C490.465 33.544 490.881 33.432 491.409 33.432C491.771 33.432 492.113 33.488 492.433 33.6V33.296C492.433 33.056 492.358 32.8747 492.209 32.752C492.059 32.6293 491.841 32.568 491.553 32.568C491.377 32.568 491.187 32.5973 490.985 32.656C490.782 32.7093 490.547 32.7947 490.281 32.912L489.881 32.104C490.211 31.9547 490.526 31.8427 490.825 31.768C491.129 31.6933 491.433 31.656 491.737 31.656C492.297 31.656 492.731 31.792 493.041 32.064C493.355 32.3307 493.513 32.7093 493.513 33.2V35.904H492.433V35.608C492.262 35.736 492.078 35.8293 491.881 35.888C491.683 35.9467 491.467 35.976 491.233 35.976ZM490.753 34.672C490.753 34.832 490.822 34.96 490.961 35.056C491.099 35.1467 491.283 35.192 491.513 35.192C491.694 35.192 491.862 35.1707 492.017 35.128C492.171 35.08 492.31 35.0107 492.433 34.92V34.312C492.299 34.2587 492.161 34.2187 492.017 34.192C491.873 34.1653 491.718 34.152 491.553 34.152C491.302 34.152 491.105 34.2 490.961 34.296C490.822 34.3867 490.753 34.512 490.753 34.672ZM490.985 31.04L491.705 30H492.953L491.873 31.04H490.985Z" fill="white"/>
<path d="M483 35.904V30.304H484.488L486.024 33.328L487.56 30.304H489.048V35.904H487.952V31.784L486.008 35.504L484.072 31.768V35.904H483Z" fill="white"/>
<path d="M127.909 30V23H129.359V25.82H132.579V23H134.029V30H132.579V27.13H129.359V30H127.909ZM136.774 30.09C136.401 30.09 136.071 30.0233 135.784 29.89C135.498 29.75 135.274 29.56 135.114 29.32C134.954 29.08 134.874 28.8033 134.874 28.49C134.874 27.99 135.061 27.6033 135.434 27.33C135.814 27.05 136.334 26.91 136.994 26.91C137.448 26.91 137.874 26.98 138.274 27.12V26.74C138.274 26.44 138.181 26.2133 137.994 26.06C137.808 25.9067 137.534 25.83 137.174 25.83C136.954 25.83 136.718 25.8667 136.464 25.94C136.211 26.0067 135.918 26.1133 135.584 26.26L135.084 25.25C135.498 25.0633 135.891 24.9233 136.264 24.83C136.644 24.7367 137.024 24.69 137.404 24.69C138.104 24.69 138.648 24.86 139.034 25.2C139.428 25.5333 139.624 26.0067 139.624 26.62V30H138.274V29.63C138.061 29.79 137.831 29.9067 137.584 29.98C137.338 30.0533 137.068 30.09 136.774 30.09ZM136.174 28.46C136.174 28.66 136.261 28.82 136.434 28.94C136.608 29.0533 136.838 29.11 137.124 29.11C137.351 29.11 137.561 29.0833 137.754 29.03C137.948 28.97 138.121 28.8833 138.274 28.77V28.01C138.108 27.9433 137.934 27.8933 137.754 27.86C137.574 27.8267 137.381 27.81 137.174 27.81C136.861 27.81 136.614 27.87 136.434 27.99C136.261 28.1033 136.174 28.26 136.174 28.46ZM142.611 30.1C142.131 30.1 141.688 30.04 141.281 29.92C140.874 29.7933 140.521 29.6133 140.221 29.38L140.901 28.47C141.201 28.67 141.488 28.82 141.761 28.92C142.041 29.02 142.318 29.07 142.591 29.07C142.898 29.07 143.141 29.02 143.321 28.92C143.508 28.8133 143.601 28.6767 143.601 28.51C143.601 28.3767 143.548 28.27 143.441 28.19C143.341 28.11 143.178 28.0533 142.951 28.02L141.951 27.87C141.431 27.79 141.038 27.6233 140.771 27.37C140.504 27.11 140.371 26.77 140.371 26.35C140.371 26.01 140.458 25.72 140.631 25.48C140.811 25.2333 141.061 25.0433 141.381 24.91C141.708 24.77 142.094 24.7 142.541 24.7C142.921 24.7 143.291 24.7533 143.651 24.86C144.018 24.9667 144.361 25.13 144.681 25.35L144.021 26.24C143.734 26.06 143.461 25.93 143.201 25.85C142.941 25.77 142.678 25.73 142.411 25.73C142.164 25.73 141.964 25.7767 141.811 25.87C141.664 25.9633 141.591 26.0867 141.591 26.24C141.591 26.38 141.644 26.49 141.751 26.57C141.858 26.65 142.041 26.7067 142.301 26.74L143.291 26.89C143.811 26.9633 144.208 27.13 144.481 27.39C144.754 27.6433 144.891 27.9733 144.891 28.38C144.891 28.7133 144.791 29.01 144.591 29.27C144.391 29.5233 144.121 29.7267 143.781 29.88C143.441 30.0267 143.051 30.1 142.611 30.1ZM147.946 30.08C147.366 30.08 146.926 29.95 146.626 29.69C146.332 29.4233 146.186 29.0367 146.186 28.53V25.93H145.116V24.79H146.186V23.46L147.556 23.15V24.79H149.046V25.93H147.556V28.25C147.556 28.49 147.609 28.6633 147.716 28.77C147.822 28.87 148.009 28.92 148.276 28.92C148.409 28.92 148.529 28.9133 148.636 28.9C148.749 28.88 148.872 28.8467 149.006 28.8V29.93C148.866 29.9767 148.689 30.0133 148.476 30.04C148.269 30.0667 148.092 30.08 147.946 30.08ZM151.374 30.09C151 30.09 150.67 30.0233 150.384 29.89C150.097 29.75 149.874 29.56 149.714 29.32C149.554 29.08 149.474 28.8033 149.474 28.49C149.474 27.99 149.66 27.6033 150.034 27.33C150.414 27.05 150.934 26.91 151.594 26.91C152.047 26.91 152.474 26.98 152.874 27.12V26.74C152.874 26.44 152.78 26.2133 152.594 26.06C152.407 25.9067 152.134 25.83 151.774 25.83C151.554 25.83 151.317 25.8667 151.064 25.94C150.81 26.0067 150.517 26.1133 150.184 26.26L149.684 25.25C150.097 25.0633 150.49 24.9233 150.864 24.83C151.244 24.7367 151.624 24.69 152.004 24.69C152.704 24.69 153.247 24.86 153.634 25.2C154.027 25.5333 154.224 26.0067 154.224 26.62V30H152.874V29.63C152.66 29.79 152.43 29.9067 152.184 29.98C151.937 30.0533 151.667 30.09 151.374 30.09ZM150.774 28.46C150.774 28.66 150.86 28.82 151.034 28.94C151.207 29.0533 151.437 29.11 151.724 29.11C151.95 29.11 152.16 29.0833 152.354 29.03C152.547 28.97 152.72 28.8833 152.874 28.77V28.01C152.707 27.9433 152.534 27.8933 152.354 27.86C152.174 27.8267 151.98 27.81 151.774 27.81C151.46 27.81 151.214 27.87 151.034 27.99C150.86 28.1033 150.774 28.26 150.774 28.46Z" fill="white"/>
<path d="M413.909 28V21H415.359V23.82H418.579V21H420.029V28H418.579V25.13H415.359V28H413.909ZM422.774 28.09C422.401 28.09 422.071 28.0233 421.784 27.89C421.498 27.75 421.274 27.56 421.114 27.32C420.954 27.08 420.874 26.8033 420.874 26.49C420.874 25.99 421.061 25.6033 421.434 25.33C421.814 25.05 422.334 24.91 422.994 24.91C423.448 24.91 423.874 24.98 424.274 25.12V24.74C424.274 24.44 424.181 24.2133 423.994 24.06C423.808 23.9067 423.534 23.83 423.174 23.83C422.954 23.83 422.718 23.8667 422.464 23.94C422.211 24.0067 421.918 24.1133 421.584 24.26L421.084 23.25C421.498 23.0633 421.891 22.9233 422.264 22.83C422.644 22.7367 423.024 22.69 423.404 22.69C424.104 22.69 424.648 22.86 425.034 23.2C425.428 23.5333 425.624 24.0067 425.624 24.62V28H424.274V27.63C424.061 27.79 423.831 27.9067 423.584 27.98C423.338 28.0533 423.068 28.09 422.774 28.09ZM422.174 26.46C422.174 26.66 422.261 26.82 422.434 26.94C422.608 27.0533 422.838 27.11 423.124 27.11C423.351 27.11 423.561 27.0833 423.754 27.03C423.948 26.97 424.121 26.8833 424.274 26.77V26.01C424.108 25.9433 423.934 25.8933 423.754 25.86C423.574 25.8267 423.381 25.81 423.174 25.81C422.861 25.81 422.614 25.87 422.434 25.99C422.261 26.1033 422.174 26.26 422.174 26.46ZM428.611 28.1C428.131 28.1 427.688 28.04 427.281 27.92C426.874 27.7933 426.521 27.6133 426.221 27.38L426.901 26.47C427.201 26.67 427.488 26.82 427.761 26.92C428.041 27.02 428.318 27.07 428.591 27.07C428.898 27.07 429.141 27.02 429.321 26.92C429.508 26.8133 429.601 26.6767 429.601 26.51C429.601 26.3767 429.548 26.27 429.441 26.19C429.341 26.11 429.178 26.0533 428.951 26.02L427.951 25.87C427.431 25.79 427.038 25.6233 426.771 25.37C426.504 25.11 426.371 24.77 426.371 24.35C426.371 24.01 426.458 23.72 426.631 23.48C426.811 23.2333 427.061 23.0433 427.381 22.91C427.708 22.77 428.094 22.7 428.541 22.7C428.921 22.7 429.291 22.7533 429.651 22.86C430.018 22.9667 430.361 23.13 430.681 23.35L430.021 24.24C429.734 24.06 429.461 23.93 429.201 23.85C428.941 23.77 428.678 23.73 428.411 23.73C428.164 23.73 427.964 23.7767 427.811 23.87C427.664 23.9633 427.591 24.0867 427.591 24.24C427.591 24.38 427.644 24.49 427.751 24.57C427.858 24.65 428.041 24.7067 428.301 24.74L429.291 24.89C429.811 24.9633 430.208 25.13 430.481 25.39C430.754 25.6433 430.891 25.9733 430.891 26.38C430.891 26.7133 430.791 27.01 430.591 27.27C430.391 27.5233 430.121 27.7267 429.781 27.88C429.441 28.0267 429.051 28.1 428.611 28.1ZM433.946 28.08C433.366 28.08 432.926 27.95 432.626 27.69C432.332 27.4233 432.186 27.0367 432.186 26.53V23.93H431.116V22.79H432.186V21.46L433.556 21.15V22.79H435.046V23.93H433.556V26.25C433.556 26.49 433.609 26.6633 433.716 26.77C433.822 26.87 434.009 26.92 434.276 26.92C434.409 26.92 434.529 26.9133 434.636 26.9C434.749 26.88 434.872 26.8467 435.006 26.8V27.93C434.866 27.9767 434.689 28.0133 434.476 28.04C434.269 28.0667 434.092 28.08 433.946 28.08ZM437.374 28.09C437 28.09 436.67 28.0233 436.384 27.89C436.097 27.75 435.874 27.56 435.714 27.32C435.554 27.08 435.474 26.8033 435.474 26.49C435.474 25.99 435.66 25.6033 436.034 25.33C436.414 25.05 436.934 24.91 437.594 24.91C438.047 24.91 438.474 24.98 438.874 25.12V24.74C438.874 24.44 438.78 24.2133 438.594 24.06C438.407 23.9067 438.134 23.83 437.774 23.83C437.554 23.83 437.317 23.8667 437.064 23.94C436.81 24.0067 436.517 24.1133 436.184 24.26L435.684 23.25C436.097 23.0633 436.49 22.9233 436.864 22.83C437.244 22.7367 437.624 22.69 438.004 22.69C438.704 22.69 439.247 22.86 439.634 23.2C440.027 23.5333 440.224 24.0067 440.224 24.62V28H438.874V27.63C438.66 27.79 438.43 27.9067 438.184 27.98C437.937 28.0533 437.667 28.09 437.374 28.09ZM436.774 26.46C436.774 26.66 436.86 26.82 437.034 26.94C437.207 27.0533 437.437 27.11 437.724 27.11C437.95 27.11 438.16 27.0833 438.354 27.03C438.547 26.97 438.72 26.8833 438.874 26.77V26.01C438.707 25.9433 438.534 25.8933 438.354 25.86C438.174 25.8267 437.98 25.81 437.774 25.81C437.46 25.81 437.214 25.87 437.034 25.99C436.86 26.1033 436.774 26.26 436.774 26.46Z" fill="white"/>
</svg>
