<svg width="288" height="193" viewBox="0 0 288 193" fill="none" xmlns="http://www.w3.org/2000/svg">
<path d="M97.53 105.48H189.97C192.86 105.48 195.21 107.82 195.21 110.72V134.99C195.21 137.88 192.87 140.23 189.97 140.23H97.53C94.64 140.23 92.29 137.89 92.29 134.99V110.72C92.29 107.83 94.63 105.48 97.53 105.48Z" fill="#1B1B1B"/>
<path d="M159.41 2.01H128.1C125.13 2.01 122.72 4.54 122.72 7.67V17.02C122.72 20.14 125.14 22.68 128.1 22.68H159.41C162.38 22.68 164.79 20.15 164.79 17.02V7.66C164.79 4.54 162.37 2 159.41 2V2.01ZM159.73 9.72V15.64C159.73 17.32 158.43 18.68 156.84 18.68H130.65C129.05 18.68 127.76 17.32 127.76 15.64V9.72C127.76 8.04 129.06 6.68 130.65 6.68H156.84C158.44 6.68 159.73 8.04 159.73 9.72Z" fill="#1B1B1B"/>
<path d="M155.38 0.839966H132.18C130.79 0.839966 129.66 1.96997 129.66 3.35997V5.41997C129.66 6.80997 130.79 7.93997 132.18 7.93997H155.38C156.77 7.93997 157.9 6.80997 157.9 5.41997V3.35997C157.9 1.96997 156.77 0.839966 155.38 0.839966Z" fill="#FF2802"/>
<path d="M99.0998 139.36C95.3498 139.36 92.2998 142.54 92.2998 146.46C92.2998 150.38 95.3498 153.55 99.0998 153.55C102.85 153.55 105.9 150.37 105.9 146.46C105.9 142.55 102.85 139.36 99.0998 139.36Z" fill="#1B1B1B"/>
<path d="M100.15 145.68H98.0498V147.22H100.15V145.68Z" fill="#CECDCD"/>
<path d="M187.92 131.52H191.79C195.39 131.52 198.31 128.45 198.31 124.67V21.3801C198.31 16.1001 194.23 11.8201 189.21 11.8201H98.4501C93.4301 11.8201 89.3501 16.0901 89.3501 21.3801V124.68C89.3501 128.47 92.2701 131.53 95.8701 131.53H100.14C103.77 131.53 105.71 130.08 106.64 135.47C107.2 138.73 109.9 141.11 113.06 141.11H174.72C177.82 141.11 180.5 138.82 181.11 135.62C182.15 130.21 184.25 131.54 187.92 131.54V131.52Z" fill="#FF2802"/>
<path d="M130.87 12.16V141.44H156.63V12.16H132.24" fill="#D22E10"/>
<path d="M188.41 139.36C184.66 139.36 181.61 142.54 181.61 146.45C181.61 150.36 184.66 153.54 188.41 153.54C192.16 153.54 195.21 150.36 195.21 146.45C195.21 142.54 192.16 139.36 188.41 139.36Z" fill="#1B1B1B"/>
<path d="M189.46 145.68H187.36V147.22H189.46V145.68Z" fill="#CECDCD"/>
<path d="M127.89 27.75H126.01V29.91H127.89V27.75Z" fill="#CC1709"/>
<path d="M119.05 27.75H117.17V29.91H119.05V27.75Z" fill="#CC1709"/>
<path d="M170.34 27.75H168.46V29.91H170.34V27.75Z" fill="#CC1709"/>
<path d="M161.48 27.75H159.6V29.91H161.48V27.75Z" fill="#CC1709"/>
<path d="M189.13 12.16H98.3699C97.8599 12.16 97.3499 12.21 96.8599 12.3H190.65C190.15 12.21 189.65 12.16 189.14 12.16H189.13Z" fill="#FF2802"/>
<path d="M89.3201 36.8301C89.3201 38.7601 90.8701 40.3201 92.7801 40.3201H97.7801C103.42 40.3201 108 37.5001 108 28.5401V23.1201C108 20.7201 109.23 18.7701 110.74 18.7701H176.78C178.29 18.7701 179.52 20.7201 179.52 23.1201V28.5401C179.52 37.4901 184.09 40.3201 189.74 40.3201H194.74C196.65 40.3201 198.2 38.7501 198.2 36.8301V20.8301C197.82 16.5001 194.68 13.0101 190.65 12.3101H96.8601C92.8301 13.0101 89.7001 16.5101 89.3101 20.8301V36.8301H89.3201Z" fill="#FF684D"/>
<path d="M148.93 52.13H138.88C137.25 52.13 135.91 50.8 135.91 49.16V31.72C135.91 30.09 137.24 28.75 138.88 28.75H148.93C150.56 28.75 151.9 30.08 151.9 31.72V49.16C151.9 50.79 150.57 52.13 148.93 52.13ZM138.88 29.68C137.75 29.68 136.83 30.6 136.83 31.73V49.17C136.83 50.3 137.75 51.22 138.88 51.22H148.93C150.06 51.22 150.98 50.3 150.98 49.17V31.73C150.98 30.6 150.06 29.68 148.93 29.68H138.88Z" fill="#A3A3A3"/>
<path d="M143.91 0C143.06 0 142.37 0.69 142.37 1.54V7.17C142.37 7.8 142.75 8.34 143.29 8.58V29.22H144.52V8.58C145.06 8.35 145.44 7.8 145.44 7.17V1.54C145.44 0.69 144.75 0 143.9 0H143.92H143.91Z" fill="#A3A3A3"/>
<path d="M136.68 32.04V48.86C136.68 50.25 137.81 51.37 139.19 51.37H148.62C150.01 51.37 151.13 50.24 151.13 48.86V32.04C151.13 30.65 150 29.53 148.62 29.53H139.19C137.8 29.53 136.68 30.66 136.68 32.04Z" fill="#CECECE"/>
<path d="M147.75 33.53H140.06V34.45H147.75V33.53Z" fill="#A3A3A3"/>
<path d="M147.75 37.8301H140.06V38.7501H147.75V37.8301Z" fill="#A3A3A3"/>
<path d="M147.75 42.14H140.06V43.06H147.75V42.14Z" fill="#A3A3A3"/>
<path d="M147.75 46.4399H140.06V47.3599H147.75V46.4399Z" fill="#A3A3A3"/>
<path d="M232.42 51.56C243.15 51.56 251.84 42.82 251.84 32.03C251.84 21.24 243.14 12.5 232.42 12.5C221.7 12.5 213 21.24 213 32.03C213 42.82 221.7 51.56 232.42 51.56Z" fill="#1B1B1B"/>
<path d="M218.268 37.5V35.996L222.94 31.26C223.164 31.0253 223.34 30.8067 223.468 30.604C223.607 30.4013 223.703 30.204 223.756 30.012C223.82 29.8093 223.852 29.6067 223.852 29.404C223.852 28.988 223.676 28.6413 223.324 28.364C222.983 28.0867 222.546 27.948 222.012 27.948C221.5 27.948 221.026 28.0547 220.588 28.268C220.151 28.4707 219.671 28.8227 219.148 29.324L217.964 27.884C218.594 27.2973 219.25 26.86 219.932 26.572C220.615 26.2733 221.33 26.124 222.076 26.124C222.834 26.124 223.5 26.2573 224.076 26.524C224.652 26.7907 225.1 27.1587 225.42 27.628C225.74 28.0973 225.9 28.6467 225.9 29.276C225.9 29.6387 225.847 29.98 225.74 30.3C225.644 30.62 225.484 30.9453 225.26 31.276C225.036 31.596 224.738 31.9427 224.364 32.316L220.972 35.724L226.076 35.708V37.5H218.268ZM231.44 37.676C230.576 37.676 229.771 37.5267 229.024 37.228C228.288 36.9187 227.67 36.4867 227.168 35.932L228.576 34.62C229.003 35.0787 229.424 35.3987 229.84 35.58C230.267 35.7507 230.79 35.836 231.408 35.836C231.856 35.836 232.246 35.772 232.576 35.644C232.918 35.5053 233.179 35.3133 233.36 35.068C233.552 34.8227 233.648 34.54 233.648 34.22C233.648 33.9213 233.574 33.6653 233.424 33.452C233.275 33.2387 233.072 33.0733 232.816 32.956C232.56 32.828 232.256 32.764 231.904 32.764H230.496V31.036H231.712C232.214 31.036 232.608 30.908 232.896 30.652C233.184 30.3853 233.328 30.0227 233.328 29.564C233.328 29.2653 233.243 28.9987 233.072 28.764C232.902 28.5187 232.667 28.3267 232.368 28.188C232.08 28.0493 231.75 27.98 231.376 27.98C230.822 27.98 230.342 28.076 229.936 28.268C229.542 28.46 229.126 28.8013 228.688 29.292L227.264 27.98C227.787 27.3933 228.411 26.94 229.136 26.62C229.872 26.2893 230.646 26.124 231.456 26.124C232.235 26.124 232.923 26.2627 233.52 26.54C234.118 26.8067 234.587 27.18 234.928 27.66C235.27 28.14 235.44 28.6893 235.44 29.308C235.44 29.9053 235.243 30.4387 234.848 30.908C234.454 31.3667 233.942 31.6867 233.312 31.868C234.059 32.0173 234.651 32.316 235.088 32.764C235.536 33.212 235.76 33.7507 235.76 34.38C235.76 35.0093 235.574 35.5747 235.2 36.076C234.827 36.5773 234.315 36.972 233.664 37.26C233.024 37.5373 232.283 37.676 231.44 37.676Z" fill="white"/>
<path d="M238.809 37.5V31.2L240.042 30.993V34.782L242.067 32.811H243.462L241.248 34.962L243.597 37.5H242.022L240.042 35.358V37.5H238.809ZM245.878 39.426C245.518 39.426 245.17 39.387 244.834 39.309C244.498 39.237 244.195 39.132 243.925 38.994L244.357 38.04C244.615 38.166 244.867 38.259 245.113 38.319C245.359 38.379 245.605 38.409 245.851 38.409C246.217 38.409 246.493 38.331 246.679 38.175C246.871 38.019 246.967 37.785 246.967 37.473V37.104C246.583 37.386 246.154 37.527 245.68 37.527C245.236 37.527 244.834 37.422 244.474 37.212C244.12 36.996 243.835 36.705 243.619 36.339C243.409 35.973 243.304 35.568 243.304 35.124C243.304 34.68 243.409 34.278 243.619 33.918C243.835 33.558 244.126 33.273 244.492 33.063C244.858 32.847 245.266 32.739 245.716 32.739C245.944 32.739 246.166 32.772 246.382 32.838C246.598 32.904 246.799 32.997 246.985 33.117V32.811H248.2V37.491C248.2 38.109 247.999 38.586 247.597 38.922C247.201 39.258 246.628 39.426 245.878 39.426ZM245.869 36.483C246.097 36.483 246.304 36.447 246.49 36.375C246.676 36.297 246.835 36.189 246.967 36.051V34.215C246.835 34.083 246.673 33.981 246.481 33.909C246.295 33.831 246.094 33.792 245.878 33.792C245.62 33.792 245.389 33.852 245.185 33.972C244.981 34.086 244.819 34.245 244.699 34.449C244.579 34.647 244.519 34.872 244.519 35.124C244.519 35.382 244.576 35.613 244.69 35.817C244.81 36.021 244.972 36.183 245.176 36.303C245.386 36.423 245.617 36.483 245.869 36.483Z" fill="white"/>
<path d="M87.1421 170V163.268L85.4981 163.952V162.512L87.7421 161.6H88.7861V170H87.1421ZM92.8497 170.132C91.6897 170.132 90.6857 169.756 89.8377 169.004L90.7737 167.912C91.1337 168.216 91.4817 168.436 91.8177 168.572C92.1537 168.708 92.5217 168.776 92.9217 168.776C93.2497 168.776 93.5337 168.716 93.7737 168.596C94.0137 168.476 94.2017 168.308 94.3377 168.092C94.4817 167.876 94.5537 167.624 94.5537 167.336C94.5537 166.928 94.3937 166.592 94.0737 166.328C93.7617 166.064 93.3537 165.932 92.8497 165.932C92.6017 165.932 92.3537 165.968 92.1057 166.04C91.8577 166.112 91.6017 166.22 91.3377 166.364L90.2217 166.028L90.4137 161.6H95.7057V162.944H91.7937L91.6977 165.068C91.9937 164.924 92.2737 164.828 92.5377 164.78C92.8097 164.732 93.0777 164.708 93.3417 164.708C93.9097 164.708 94.4017 164.816 94.8177 165.032C95.2417 165.24 95.5697 165.536 95.8017 165.92C96.0337 166.304 96.1497 166.752 96.1497 167.264C96.1497 167.832 96.0097 168.332 95.7297 168.764C95.4577 169.196 95.0737 169.532 94.5777 169.772C94.0817 170.012 93.5057 170.132 92.8497 170.132ZM100.393 170.132C99.769 170.132 99.217 170.028 98.737 169.82C98.257 169.604 97.881 169.312 97.609 168.944C97.337 168.568 97.201 168.14 97.201 167.66C97.201 167.348 97.269 167.06 97.405 166.796C97.549 166.524 97.749 166.292 98.005 166.1C98.269 165.9 98.565 165.752 98.893 165.656C98.469 165.504 98.125 165.264 97.861 164.936C97.597 164.608 97.465 164.24 97.465 163.832C97.465 163.384 97.593 162.984 97.849 162.632C98.105 162.272 98.453 161.988 98.893 161.78C99.341 161.572 99.841 161.468 100.393 161.468C100.953 161.468 101.453 161.572 101.893 161.78C102.333 161.988 102.681 162.272 102.937 162.632C103.193 162.984 103.321 163.384 103.321 163.832C103.321 164.24 103.189 164.608 102.925 164.936C102.661 165.264 102.317 165.504 101.893 165.656C102.397 165.808 102.805 166.064 103.117 166.424C103.429 166.776 103.585 167.188 103.585 167.66C103.585 168.14 103.449 168.568 103.177 168.944C102.913 169.312 102.537 169.604 102.049 169.82C101.569 170.028 101.017 170.132 100.393 170.132ZM100.393 165.104C100.657 165.104 100.893 165.056 101.101 164.96C101.317 164.856 101.485 164.716 101.605 164.54C101.725 164.364 101.785 164.164 101.785 163.94C101.785 163.716 101.725 163.516 101.605 163.34C101.485 163.156 101.317 163.016 101.101 162.92C100.893 162.816 100.657 162.764 100.393 162.764C100.129 162.764 99.889 162.816 99.673 162.92C99.465 163.016 99.301 163.152 99.181 163.328C99.061 163.504 99.001 163.708 99.001 163.94C99.001 164.164 99.061 164.364 99.181 164.54C99.301 164.716 99.465 164.856 99.673 164.96C99.889 165.056 100.129 165.104 100.393 165.104ZM100.393 168.824C100.713 168.824 100.993 168.772 101.233 168.668C101.473 168.556 101.661 168.404 101.797 168.212C101.933 168.012 102.001 167.792 102.001 167.552C102.001 167.304 101.933 167.084 101.797 166.892C101.661 166.7 101.473 166.548 101.233 166.436C100.993 166.324 100.713 166.268 100.393 166.268C100.081 166.268 99.801 166.324 99.553 166.436C99.313 166.548 99.125 166.7 98.989 166.892C98.853 167.084 98.785 167.304 98.785 167.552C98.785 167.792 98.853 168.012 98.989 168.212C99.125 168.404 99.313 168.556 99.553 168.668C99.801 168.772 100.081 168.824 100.393 168.824ZM110.269 170.12C109.653 170.12 109.097 169.98 108.601 169.7C108.105 169.412 107.713 169.024 107.425 168.536C107.137 168.04 106.993 167.488 106.993 166.88C106.993 166.264 107.137 165.712 107.425 165.224C107.713 164.736 108.105 164.348 108.601 164.06C109.097 163.772 109.653 163.628 110.269 163.628C110.765 163.628 111.237 163.724 111.685 163.916C112.141 164.108 112.533 164.384 112.861 164.744L111.853 165.812C111.621 165.556 111.377 165.368 111.121 165.248C110.873 165.12 110.601 165.056 110.305 165.056C109.985 165.056 109.697 165.136 109.441 165.296C109.193 165.456 108.993 165.672 108.841 165.944C108.697 166.216 108.625 166.528 108.625 166.88C108.625 167.216 108.697 167.524 108.841 167.804C108.993 168.076 109.201 168.292 109.465 168.452C109.729 168.604 110.021 168.68 110.341 168.68C110.621 168.68 110.881 168.624 111.121 168.512C111.369 168.392 111.605 168.216 111.829 167.984L112.813 169.016C112.493 169.36 112.109 169.632 111.661 169.832C111.213 170.024 110.749 170.12 110.269 170.12ZM113.668 170V163.748H115.312V164.228C115.76 163.828 116.304 163.628 116.944 163.628C117.352 163.628 117.716 163.712 118.036 163.88C118.356 164.04 118.62 164.268 118.828 164.564C119.084 164.26 119.384 164.028 119.728 163.868C120.08 163.708 120.468 163.628 120.892 163.628C121.364 163.628 121.776 163.736 122.128 163.952C122.488 164.16 122.768 164.452 122.968 164.828C123.176 165.196 123.28 165.628 123.28 166.124V170H121.648V166.364C121.648 165.956 121.54 165.636 121.324 165.404C121.108 165.164 120.82 165.044 120.46 165.044C120.212 165.044 119.984 165.096 119.776 165.2C119.576 165.304 119.404 165.46 119.26 165.668C119.268 165.74 119.276 165.812 119.284 165.884C119.292 165.956 119.296 166.036 119.296 166.124V170H117.652V166.364C117.652 165.956 117.544 165.636 117.328 165.404C117.12 165.164 116.836 165.044 116.476 165.044C116.228 165.044 116.004 165.092 115.804 165.188C115.612 165.284 115.448 165.428 115.312 165.62V170H113.668ZM130.053 172.556C129.085 171.98 128.345 171.216 127.833 170.264C127.321 169.32 127.065 168.236 127.065 167.012C127.065 165.788 127.321 164.704 127.833 163.76C128.345 162.808 129.085 162.048 130.053 161.48L130.521 162.08C129.689 162.568 129.045 163.24 128.589 164.096C128.141 164.952 127.917 165.924 127.917 167.012C127.917 168.1 128.141 169.076 128.589 169.94C129.045 170.796 129.689 171.464 130.521 171.944L130.053 172.556ZM134.933 170.12C134.285 170.12 133.713 169.948 133.217 169.604C132.729 169.26 132.345 168.788 132.065 168.188C131.785 167.58 131.645 166.88 131.645 166.088C131.645 165.16 131.801 164.352 132.113 163.664C132.425 162.968 132.865 162.428 133.433 162.044C134.001 161.66 134.661 161.468 135.413 161.468C135.765 161.468 136.113 161.516 136.457 161.612C136.801 161.708 137.109 161.848 137.381 162.032L136.949 162.704C136.701 162.56 136.441 162.448 136.169 162.368C135.897 162.288 135.621 162.248 135.341 162.248C134.765 162.248 134.265 162.4 133.841 162.704C133.425 163 133.101 163.428 132.869 163.988C132.645 164.548 132.525 165.22 132.509 166.004C132.821 165.604 133.193 165.292 133.625 165.068C134.057 164.844 134.505 164.732 134.969 164.732C135.513 164.732 135.997 164.844 136.421 165.068C136.845 165.292 137.177 165.604 137.417 166.004C137.657 166.396 137.777 166.844 137.777 167.348C137.777 167.876 137.653 168.352 137.405 168.776C137.157 169.192 136.817 169.52 136.385 169.76C135.961 170 135.477 170.12 134.933 170.12ZM134.849 165.44C134.409 165.44 133.985 165.552 133.577 165.776C133.177 165.992 132.829 166.292 132.533 166.676C132.597 167.212 132.733 167.684 132.941 168.092C133.157 168.492 133.433 168.804 133.769 169.028C134.113 169.252 134.497 169.364 134.921 169.364C135.305 169.364 135.645 169.28 135.941 169.112C136.245 168.936 136.481 168.696 136.649 168.392C136.825 168.088 136.913 167.748 136.913 167.372C136.913 166.996 136.825 166.664 136.649 166.376C136.473 166.08 136.229 165.852 135.917 165.692C135.613 165.524 135.257 165.44 134.849 165.44ZM138.592 170V169.364L141.952 165.692C142.216 165.404 142.42 165.152 142.564 164.936C142.716 164.712 142.82 164.504 142.876 164.312C142.94 164.12 142.972 163.916 142.972 163.7C142.972 163.276 142.804 162.928 142.468 162.656C142.14 162.376 141.72 162.236 141.208 162.236C140.816 162.236 140.452 162.312 140.116 162.464C139.78 162.616 139.404 162.88 138.988 163.256L138.484 162.656C138.924 162.256 139.368 161.96 139.816 161.768C140.264 161.568 140.732 161.468 141.22 161.468C141.724 161.468 142.172 161.564 142.564 161.756C142.956 161.94 143.264 162.196 143.488 162.524C143.712 162.852 143.824 163.228 143.824 163.652C143.824 163.932 143.788 164.192 143.716 164.432C143.644 164.664 143.516 164.916 143.332 165.188C143.148 165.452 142.884 165.772 142.54 166.148L139.672 169.256L144.004 169.244V170H138.592ZM146.896 163.904L147.592 161.372H148.552L147.592 163.904H146.896ZM145.264 163.904L145.96 161.372H146.92L145.96 163.904H145.264ZM150.049 161.408C151.017 161.984 151.757 162.748 152.269 163.7C152.781 164.644 153.037 165.728 153.037 166.952C153.037 168.176 152.781 169.26 152.269 170.204C151.757 171.156 151.017 171.916 150.049 172.484L149.581 171.884C150.413 171.396 151.053 170.724 151.501 169.868C151.957 169.012 152.185 168.04 152.185 166.952C152.185 165.864 151.957 164.892 151.501 164.036C151.053 163.172 150.413 162.5 149.581 162.02L150.049 161.408ZM156.863 170V161.6L158.507 161.324V170H156.863ZM159.793 170V163.748H161.437V170H159.793ZM160.609 163.004C160.353 163.004 160.133 162.912 159.949 162.728C159.765 162.544 159.673 162.324 159.673 162.068C159.673 161.804 159.765 161.584 159.949 161.408C160.133 161.224 160.353 161.132 160.609 161.132C160.873 161.132 161.093 161.224 161.269 161.408C161.453 161.584 161.545 161.804 161.545 162.068C161.545 162.324 161.453 162.544 161.269 162.728C161.093 162.912 160.873 163.004 160.609 163.004ZM162.722 170V163.748H164.366V164.264C164.838 163.84 165.422 163.628 166.118 163.628C166.606 163.628 167.034 163.736 167.402 163.952C167.778 164.16 168.07 164.452 168.278 164.828C168.486 165.196 168.59 165.628 168.59 166.124V170H166.946V166.364C166.946 165.956 166.83 165.636 166.598 165.404C166.366 165.164 166.05 165.044 165.65 165.044C165.37 165.044 165.122 165.1 164.906 165.212C164.69 165.316 164.51 165.468 164.366 165.668V170H162.722ZM172.896 170.12C172.272 170.12 171.704 169.976 171.192 169.688C170.688 169.4 170.288 169.012 169.992 168.524C169.696 168.036 169.548 167.488 169.548 166.88C169.548 166.272 169.688 165.724 169.968 165.236C170.256 164.748 170.644 164.36 171.132 164.072C171.62 163.784 172.164 163.64 172.764 163.64C173.364 163.64 173.896 163.788 174.36 164.084C174.824 164.38 175.188 164.78 175.452 165.284C175.724 165.788 175.86 166.36 175.86 167V167.432H171.228C171.3 167.68 171.416 167.904 171.576 168.104C171.744 168.304 171.948 168.46 172.188 168.572C172.436 168.684 172.7 168.74 172.98 168.74C173.26 168.74 173.516 168.696 173.748 168.608C173.988 168.52 174.192 168.396 174.36 168.236L175.44 169.22C175.056 169.532 174.66 169.76 174.252 169.904C173.852 170.048 173.4 170.12 172.896 170.12ZM171.204 166.256H174.24C174.184 166.008 174.08 165.792 173.928 165.608C173.784 165.416 173.608 165.268 173.4 165.164C173.2 165.052 172.976 164.996 172.728 164.996C172.472 164.996 172.24 165.048 172.032 165.152C171.824 165.256 171.648 165.404 171.504 165.596C171.368 165.78 171.268 166 171.204 166.256ZM178.824 170.108C178.376 170.108 177.98 170.028 177.636 169.868C177.292 169.7 177.024 169.472 176.832 169.184C176.64 168.896 176.544 168.564 176.544 168.188C176.544 167.588 176.768 167.124 177.216 166.796C177.672 166.46 178.296 166.292 179.088 166.292C179.632 166.292 180.144 166.376 180.624 166.544V166.088C180.624 165.728 180.512 165.456 180.288 165.272C180.064 165.088 179.736 164.996 179.304 164.996C179.04 164.996 178.756 165.04 178.452 165.128C178.148 165.208 177.796 165.336 177.396 165.512L176.796 164.3C177.292 164.076 177.764 163.908 178.212 163.796C178.668 163.684 179.124 163.628 179.58 163.628C180.42 163.628 181.072 163.832 181.536 164.24C182.008 164.64 182.244 165.208 182.244 165.944V170H180.624V169.556C180.368 169.748 180.092 169.888 179.796 169.976C179.5 170.064 179.176 170.108 178.824 170.108ZM178.104 168.152C178.104 168.392 178.208 168.584 178.416 168.728C178.624 168.864 178.9 168.932 179.244 168.932C179.516 168.932 179.768 168.9 180 168.836C180.232 168.764 180.44 168.66 180.624 168.524V167.612C180.424 167.532 180.216 167.472 180 167.432C179.784 167.392 179.552 167.372 179.304 167.372C178.928 167.372 178.632 167.444 178.416 167.588C178.208 167.724 178.104 167.912 178.104 168.152ZM183.488 170V161.6L185.132 161.324V170H183.488ZM189.478 170.12C188.854 170.12 188.286 169.976 187.774 169.688C187.27 169.4 186.87 169.012 186.574 168.524C186.278 168.036 186.13 167.488 186.13 166.88C186.13 166.272 186.27 165.724 186.55 165.236C186.838 164.748 187.226 164.36 187.714 164.072C188.202 163.784 188.746 163.64 189.346 163.64C189.946 163.64 190.478 163.788 190.942 164.084C191.406 164.38 191.77 164.78 192.034 165.284C192.306 165.788 192.442 166.36 192.442 167V167.432H187.81C187.882 167.68 187.998 167.904 188.158 168.104C188.326 168.304 188.53 168.46 188.77 168.572C189.018 168.684 189.282 168.74 189.562 168.74C189.842 168.74 190.098 168.696 190.33 168.608C190.57 168.52 190.774 168.396 190.942 168.236L192.022 169.22C191.638 169.532 191.242 169.76 190.834 169.904C190.434 170.048 189.982 170.12 189.478 170.12ZM187.786 166.256H190.822C190.766 166.008 190.662 165.792 190.51 165.608C190.366 165.416 190.19 165.268 189.982 165.164C189.782 165.052 189.558 164.996 189.31 164.996C189.054 164.996 188.822 165.048 188.614 165.152C188.406 165.256 188.23 165.404 188.086 165.596C187.95 165.78 187.85 166 187.786 166.256ZM195.847 170.12C195.271 170.12 194.739 170.048 194.251 169.904C193.763 169.752 193.339 169.536 192.979 169.256L193.795 168.164C194.155 168.404 194.499 168.584 194.827 168.704C195.163 168.824 195.495 168.884 195.823 168.884C196.191 168.884 196.483 168.824 196.699 168.704C196.923 168.576 197.035 168.412 197.035 168.212C197.035 168.052 196.971 167.924 196.843 167.828C196.723 167.732 196.527 167.664 196.255 167.624L195.055 167.444C194.431 167.348 193.959 167.148 193.639 166.844C193.319 166.532 193.159 166.124 193.159 165.62C193.159 165.212 193.263 164.864 193.471 164.576C193.687 164.28 193.987 164.052 194.371 163.892C194.763 163.724 195.227 163.64 195.763 163.64C196.219 163.64 196.663 163.704 197.095 163.832C197.535 163.96 197.947 164.156 198.331 164.42L197.539 165.488C197.195 165.272 196.867 165.116 196.555 165.02C196.243 164.924 195.927 164.876 195.607 164.876C195.311 164.876 195.071 164.932 194.887 165.044C194.711 165.156 194.623 165.304 194.623 165.488C194.623 165.656 194.687 165.788 194.815 165.884C194.943 165.98 195.163 166.048 195.475 166.088L196.663 166.268C197.287 166.356 197.763 166.556 198.091 166.868C198.419 167.172 198.583 167.568 198.583 168.056C198.583 168.456 198.463 168.812 198.223 169.124C197.983 169.428 197.659 169.672 197.251 169.856C196.843 170.032 196.375 170.12 195.847 170.12ZM89.2306 188.556C88.2626 187.98 87.5226 187.216 87.0106 186.264C86.4986 185.32 86.2426 184.236 86.2426 183.012C86.2426 181.788 86.4986 180.704 87.0106 179.76C87.5226 178.808 88.2626 178.048 89.2306 177.48L89.6986 178.08C88.8666 178.568 88.2226 179.24 87.7666 180.096C87.3186 180.952 87.0946 181.924 87.0946 183.012C87.0946 184.1 87.3186 185.076 87.7666 185.94C88.2226 186.796 88.8666 187.464 89.6986 187.944L89.2306 188.556ZM90.8947 186V177.6L91.7827 177.396V186H90.8947ZM95.193 186.108C94.753 186.108 94.365 186.032 94.029 185.88C93.701 185.728 93.441 185.516 93.249 185.244C93.065 184.972 92.973 184.656 92.973 184.296C92.973 183.728 93.189 183.28 93.621 182.952C94.053 182.624 94.637 182.46 95.373 182.46C96.021 182.46 96.609 182.596 97.137 182.868V182.076C97.137 181.596 97.001 181.236 96.729 180.996C96.457 180.748 96.061 180.624 95.541 180.624C95.245 180.624 94.945 180.668 94.641 180.756C94.345 180.836 94.017 180.968 93.657 181.152L93.321 180.468C93.753 180.26 94.153 180.108 94.521 180.012C94.889 179.916 95.257 179.868 95.625 179.868C96.385 179.868 96.969 180.048 97.377 180.408C97.793 180.768 98.001 181.284 98.001 181.956V186H97.137V185.412C96.865 185.644 96.565 185.82 96.237 185.94C95.917 186.052 95.569 186.108 95.193 186.108ZM93.825 184.272C93.825 184.608 93.965 184.884 94.245 185.1C94.533 185.308 94.901 185.412 95.349 185.412C95.709 185.412 96.037 185.356 96.333 185.244C96.629 185.132 96.897 184.956 97.137 184.716V183.588C96.889 183.42 96.625 183.3 96.345 183.228C96.065 183.148 95.749 183.108 95.397 183.108C94.917 183.108 94.533 183.216 94.245 183.432C93.965 183.64 93.825 183.92 93.825 184.272ZM99.4845 186V179.988H100.373V180.84C100.557 180.528 100.789 180.288 101.069 180.12C101.357 179.944 101.685 179.856 102.053 179.856C102.261 179.856 102.449 179.884 102.617 179.94V180.756C102.513 180.716 102.409 180.688 102.305 180.672C102.201 180.656 102.097 180.648 101.993 180.648C101.625 180.648 101.301 180.756 101.021 180.972C100.749 181.18 100.533 181.484 100.373 181.884V186H99.4845ZM106.139 188.568C105.723 188.568 105.311 188.512 104.903 188.4C104.495 188.296 104.123 188.144 103.787 187.944L104.171 187.248C104.531 187.44 104.863 187.58 105.167 187.668C105.479 187.756 105.791 187.8 106.103 187.8C106.671 187.8 107.103 187.664 107.399 187.392C107.695 187.12 107.843 186.72 107.843 186.192V185.352C107.291 185.816 106.655 186.048 105.935 186.048C105.383 186.048 104.879 185.912 104.423 185.64C103.967 185.368 103.603 185 103.331 184.536C103.067 184.064 102.935 183.54 102.935 182.964C102.935 182.388 103.067 181.868 103.331 181.404C103.603 180.932 103.967 180.56 104.423 180.288C104.879 180.016 105.391 179.88 105.959 179.88C106.303 179.88 106.635 179.94 106.955 180.06C107.283 180.18 107.583 180.356 107.855 180.588V179.988H108.731V186.18C108.731 186.948 108.507 187.536 108.059 187.944C107.611 188.36 106.971 188.568 106.139 188.568ZM106.007 185.268C106.391 185.268 106.743 185.196 107.063 185.052C107.383 184.908 107.643 184.704 107.843 184.44V181.488C107.643 181.232 107.379 181.032 107.051 180.888C106.731 180.744 106.383 180.672 106.007 180.672C105.591 180.672 105.215 180.772 104.879 180.972C104.551 181.172 104.291 181.448 104.099 181.8C103.907 182.144 103.811 182.532 103.811 182.964C103.811 183.396 103.907 183.788 104.099 184.14C104.299 184.484 104.563 184.76 104.891 184.968C105.227 185.168 105.599 185.268 106.007 185.268ZM113.038 186.12C112.47 186.12 111.95 185.984 111.478 185.712C111.014 185.432 110.646 185.056 110.374 184.584C110.102 184.112 109.966 183.584 109.966 183C109.966 182.416 110.102 181.888 110.374 181.416C110.646 180.944 111.014 180.572 111.478 180.3C111.95 180.02 112.47 179.88 113.038 179.88C113.614 179.88 114.134 180.02 114.598 180.3C115.062 180.572 115.43 180.944 115.702 181.416C115.974 181.888 116.11 182.416 116.11 183C116.11 183.584 115.974 184.112 115.702 184.584C115.43 185.056 115.062 185.432 114.598 185.712C114.134 185.984 113.614 186.12 113.038 186.12ZM113.038 185.328C113.446 185.328 113.814 185.224 114.142 185.016C114.478 184.808 114.742 184.528 114.934 184.176C115.134 183.824 115.234 183.432 115.234 183C115.234 182.56 115.134 182.168 114.934 181.824C114.742 181.472 114.478 181.192 114.142 180.984C113.814 180.776 113.446 180.672 113.038 180.672C112.63 180.672 112.258 180.776 111.922 180.984C111.594 181.192 111.33 181.472 111.13 181.824C110.938 182.168 110.842 182.56 110.842 183C110.842 183.432 110.938 183.824 111.13 184.176C111.33 184.528 111.594 184.808 111.922 185.016C112.258 185.224 112.63 185.328 113.038 185.328ZM122.394 184.26V182.088H120.39V181.368H122.394V179.196H123.138V181.368H125.142V182.088H123.138V184.26H122.394ZM131.591 186.108C131.151 186.108 130.763 186.032 130.427 185.88C130.099 185.728 129.839 185.516 129.647 185.244C129.463 184.972 129.371 184.656 129.371 184.296C129.371 183.728 129.587 183.28 130.019 182.952C130.451 182.624 131.035 182.46 131.771 182.46C132.419 182.46 133.007 182.596 133.535 182.868V182.076C133.535 181.596 133.399 181.236 133.127 180.996C132.855 180.748 132.459 180.624 131.939 180.624C131.643 180.624 131.343 180.668 131.039 180.756C130.743 180.836 130.415 180.968 130.055 181.152L129.719 180.468C130.151 180.26 130.551 180.108 130.919 180.012C131.287 179.916 131.655 179.868 132.023 179.868C132.783 179.868 133.367 180.048 133.775 180.408C134.191 180.768 134.399 181.284 134.399 181.956V186H133.535V185.412C133.263 185.644 132.963 185.82 132.635 185.94C132.315 186.052 131.967 186.108 131.591 186.108ZM130.223 184.272C130.223 184.608 130.363 184.884 130.643 185.1C130.931 185.308 131.299 185.412 131.747 185.412C132.107 185.412 132.435 185.356 132.731 185.244C133.027 185.132 133.295 184.956 133.535 184.716V183.588C133.287 183.42 133.023 183.3 132.743 183.228C132.463 183.148 132.147 183.108 131.795 183.108C131.315 183.108 130.931 183.216 130.643 183.432C130.363 183.64 130.223 183.92 130.223 184.272ZM135.883 186V179.988H136.771V180.696C137.243 180.144 137.875 179.868 138.667 179.868C139.123 179.868 139.523 179.968 139.867 180.168C140.219 180.36 140.491 180.632 140.683 180.984C140.883 181.328 140.983 181.732 140.983 182.196V186H140.107V182.376C140.107 181.84 139.955 181.42 139.651 181.116C139.355 180.804 138.947 180.648 138.427 180.648C138.067 180.648 137.747 180.728 137.467 180.888C137.187 181.048 136.955 181.276 136.771 181.572V186H135.883ZM145.253 186.108C144.685 186.108 144.169 185.972 143.705 185.7C143.241 185.42 142.873 185.044 142.601 184.572C142.329 184.1 142.193 183.572 142.193 182.988C142.193 182.404 142.329 181.88 142.601 181.416C142.873 180.944 143.241 180.568 143.705 180.288C144.169 180.008 144.685 179.868 145.253 179.868C145.693 179.868 146.117 179.952 146.525 180.12C146.933 180.28 147.293 180.512 147.605 180.816L147.041 181.464C146.801 181.208 146.525 181.016 146.213 180.888C145.909 180.752 145.593 180.684 145.265 180.684C144.857 180.684 144.485 180.788 144.149 180.996C143.821 181.196 143.557 181.472 143.357 181.824C143.165 182.168 143.069 182.556 143.069 182.988C143.069 183.42 143.165 183.812 143.357 184.164C143.557 184.516 143.825 184.796 144.161 185.004C144.497 185.204 144.869 185.304 145.277 185.304C145.605 185.304 145.913 185.24 146.201 185.112C146.497 184.984 146.773 184.796 147.029 184.548L147.581 185.148C147.261 185.452 146.901 185.688 146.501 185.856C146.101 186.024 145.685 186.108 145.253 186.108ZM148.621 186V177.6L149.509 177.396V180.696C149.981 180.144 150.613 179.868 151.405 179.868C151.861 179.868 152.261 179.968 152.605 180.168C152.957 180.36 153.229 180.632 153.421 180.984C153.621 181.328 153.721 181.732 153.721 182.196V186H152.845V182.376C152.845 181.84 152.693 181.42 152.389 181.116C152.093 180.804 151.685 180.648 151.165 180.648C150.805 180.648 150.485 180.728 150.205 180.888C149.925 181.048 149.693 181.276 149.509 181.572V186H148.621ZM158.003 186.12C157.435 186.12 156.915 185.984 156.443 185.712C155.979 185.432 155.611 185.056 155.339 184.584C155.067 184.112 154.931 183.584 154.931 183C154.931 182.416 155.067 181.888 155.339 181.416C155.611 180.944 155.979 180.572 156.443 180.3C156.915 180.02 157.435 179.88 158.003 179.88C158.579 179.88 159.099 180.02 159.563 180.3C160.027 180.572 160.395 180.944 160.667 181.416C160.939 181.888 161.075 182.416 161.075 183C161.075 183.584 160.939 184.112 160.667 184.584C160.395 185.056 160.027 185.432 159.563 185.712C159.099 185.984 158.579 186.12 158.003 186.12ZM158.003 185.328C158.411 185.328 158.779 185.224 159.107 185.016C159.443 184.808 159.707 184.528 159.899 184.176C160.099 183.824 160.199 183.432 160.199 183C160.199 182.56 160.099 182.168 159.899 181.824C159.707 181.472 159.443 181.192 159.107 180.984C158.779 180.776 158.411 180.672 158.003 180.672C157.595 180.672 157.223 180.776 156.887 180.984C156.559 181.192 156.295 181.472 156.095 181.824C155.903 182.168 155.807 182.56 155.807 183C155.807 183.432 155.903 183.824 156.095 184.176C156.295 184.528 156.559 184.808 156.887 185.016C157.223 185.224 157.595 185.328 158.003 185.328ZM167.359 184.26V182.088H165.355V181.368H167.359V179.196H168.103V181.368H170.107V182.088H168.103V184.26H167.359ZM176.556 186.108C176.116 186.108 175.728 186.032 175.392 185.88C175.064 185.728 174.804 185.516 174.612 185.244C174.428 184.972 174.336 184.656 174.336 184.296C174.336 183.728 174.552 183.28 174.984 182.952C175.416 182.624 176 182.46 176.736 182.46C177.384 182.46 177.972 182.596 178.5 182.868V182.076C178.5 181.596 178.364 181.236 178.092 180.996C177.82 180.748 177.424 180.624 176.904 180.624C176.608 180.624 176.308 180.668 176.004 180.756C175.708 180.836 175.38 180.968 175.02 181.152L174.684 180.468C175.116 180.26 175.516 180.108 175.884 180.012C176.252 179.916 176.62 179.868 176.988 179.868C177.748 179.868 178.332 180.048 178.74 180.408C179.156 180.768 179.364 181.284 179.364 181.956V186H178.5V185.412C178.228 185.644 177.928 185.82 177.6 185.94C177.28 186.052 176.932 186.108 176.556 186.108ZM175.188 184.272C175.188 184.608 175.328 184.884 175.608 185.1C175.896 185.308 176.264 185.412 176.712 185.412C177.072 185.412 177.4 185.356 177.696 185.244C177.992 185.132 178.26 184.956 178.5 184.716V183.588C178.252 183.42 177.988 183.3 177.708 183.228C177.428 183.148 177.112 183.108 176.76 183.108C176.28 183.108 175.896 183.216 175.608 183.432C175.328 183.64 175.188 183.92 175.188 184.272ZM180.848 186V177.6L181.736 177.396V186H180.848ZM185.614 186.12C185.094 186.12 184.694 185.996 184.414 185.748C184.134 185.5 183.994 185.14 183.994 184.668V180.744H182.698V179.988H183.994V178.464L184.87 178.236V179.988H186.682V180.744H184.87V184.44C184.87 184.76 184.942 184.992 185.086 185.136C185.23 185.272 185.466 185.34 185.794 185.34C185.962 185.34 186.11 185.328 186.238 185.304C186.374 185.28 186.518 185.24 186.67 185.184V185.964C186.518 186.02 186.346 186.06 186.154 186.084C185.97 186.108 185.79 186.12 185.614 186.12ZM190.312 186.12C189.744 186.12 189.224 185.984 188.752 185.712C188.288 185.432 187.92 185.056 187.648 184.584C187.376 184.112 187.24 183.584 187.24 183C187.24 182.416 187.376 181.888 187.648 181.416C187.92 180.944 188.288 180.572 188.752 180.3C189.224 180.02 189.744 179.88 190.312 179.88C190.888 179.88 191.408 180.02 191.872 180.3C192.336 180.572 192.704 180.944 192.976 181.416C193.248 181.888 193.384 182.416 193.384 183C193.384 183.584 193.248 184.112 192.976 184.584C192.704 185.056 192.336 185.432 191.872 185.712C191.408 185.984 190.888 186.12 190.312 186.12ZM190.312 185.328C190.72 185.328 191.088 185.224 191.416 185.016C191.752 184.808 192.016 184.528 192.208 184.176C192.408 183.824 192.508 183.432 192.508 183C192.508 182.56 192.408 182.168 192.208 181.824C192.016 181.472 191.752 181.192 191.416 180.984C191.088 180.776 190.72 180.672 190.312 180.672C189.904 180.672 189.532 180.776 189.196 180.984C188.868 181.192 188.604 181.472 188.404 181.824C188.212 182.168 188.116 182.56 188.116 183C188.116 183.432 188.212 183.824 188.404 184.176C188.604 184.528 188.868 184.808 189.196 185.016C189.532 185.224 189.904 185.328 190.312 185.328ZM194.773 177.408C195.741 177.984 196.481 178.748 196.993 179.7C197.505 180.644 197.761 181.728 197.761 182.952C197.761 184.176 197.505 185.26 196.993 186.204C196.481 187.156 195.741 187.916 194.773 188.484L194.305 187.884C195.137 187.396 195.777 186.724 196.225 185.868C196.681 185.012 196.909 184.04 196.909 182.952C196.909 181.864 196.681 180.892 196.225 180.036C195.777 179.172 195.137 178.5 194.305 178.02L194.773 177.408Z" fill="#1B1B1B"/>
<path d="M232.5 84.5C240.511 84.5 247 78.2366 247 70.5C247 62.7634 240.511 56.5 232.5 56.5C224.489 56.5 218 62.7634 218 70.5C218 78.2366 224.489 84.5 232.5 84.5Z" fill="#1B1B1B"/>
<path d="M231.095 74.291C230.44 74.291 229.861 74.1292 229.358 73.8054C228.861 73.4745 228.473 73.0177 228.192 72.435C227.919 71.8451 227.782 71.1653 227.782 70.3955C227.782 69.6186 227.919 68.9387 228.192 68.356C228.473 67.7733 228.861 67.3201 229.358 66.9964C229.861 66.6655 230.44 66.5 231.095 66.5C231.757 66.5 232.336 66.6655 232.832 66.9964C233.336 67.3201 233.724 67.7733 233.998 68.356C234.278 68.9387 234.419 69.6186 234.419 70.3955C234.419 71.1653 234.278 71.8451 233.998 72.435C233.724 73.0177 233.336 73.4745 232.832 73.8054C232.336 74.1292 231.757 74.291 231.095 74.291ZM231.095 73.0069C231.484 73.0069 231.818 72.9026 232.099 72.694C232.379 72.4854 232.595 72.1832 232.746 71.7875C232.904 71.3919 232.983 70.9279 232.983 70.3955C232.983 69.856 232.904 69.392 232.746 69.0035C232.595 68.6078 232.379 68.3057 232.099 68.0971C231.818 67.8884 231.484 67.7841 231.095 67.7841C230.714 67.7841 230.383 67.8884 230.102 68.0971C229.822 68.3057 229.602 68.6078 229.444 69.0035C229.293 69.392 229.217 69.856 229.217 70.3955C229.217 70.9279 229.293 71.3919 229.444 71.7875C229.602 72.1832 229.822 72.4854 230.102 72.694C230.383 72.9026 230.714 73.0069 231.095 73.0069Z" fill="white"/>
<path d="M223.979 74.291C222.935 74.291 222.033 73.9529 221.27 73.2767L222.112 72.2947C222.435 72.5681 222.748 72.7659 223.051 72.8882C223.353 73.0105 223.684 73.0717 224.043 73.0717C224.338 73.0717 224.594 73.0177 224.809 72.9098C225.025 72.8019 225.194 72.6508 225.317 72.4566C225.446 72.2624 225.511 72.0357 225.511 71.7768C225.511 71.4099 225.367 71.1077 225.079 70.8703C224.799 70.6329 224.432 70.5142 223.979 70.5142C223.756 70.5142 223.533 70.5466 223.309 70.6113C223.086 70.6761 222.856 70.7732 222.619 70.9027L221.615 70.6006L221.788 66.6187H226.547V67.8273H223.029L222.943 69.7373C223.209 69.6078 223.461 69.5215 223.698 69.4783C223.943 69.4351 224.184 69.4136 224.421 69.4136C224.932 69.4136 225.374 69.5107 225.748 69.7049C226.13 69.892 226.424 70.1581 226.633 70.5034C226.842 70.8487 226.946 71.2516 226.946 71.712C226.946 72.2228 226.82 72.6724 226.568 73.0609C226.324 73.4493 225.978 73.7515 225.532 73.9673C225.086 74.1831 224.568 74.291 223.979 74.291Z" fill="white"/>
<path d="M240.263 74.115V70.615L240.948 70.5V71.72C241.154 71.5567 241.398 71.475 241.678 71.475C241.924 71.475 242.148 71.535 242.348 71.655C242.548 71.775 242.706 71.9367 242.823 72.14C242.943 72.34 243.003 72.565 243.003 72.815C243.003 73.065 242.943 73.2917 242.823 73.495C242.703 73.695 242.541 73.855 242.338 73.975C242.134 74.0917 241.908 74.15 241.658 74.15C241.528 74.15 241.401 74.1317 241.278 74.095C241.154 74.0583 241.041 74.005 240.938 73.935V74.115H240.263ZM241.568 73.57C241.711 73.57 241.839 73.5367 241.953 73.47C242.069 73.4033 242.161 73.3133 242.228 73.2C242.294 73.0867 242.328 72.9583 242.328 72.815C242.328 72.6717 242.294 72.5433 242.228 72.43C242.161 72.3133 242.069 72.2233 241.953 72.16C241.839 72.0933 241.711 72.06 241.568 72.06C241.441 72.06 241.324 72.0817 241.218 72.125C241.114 72.165 241.024 72.2267 240.948 72.31V73.325C241.021 73.4017 241.111 73.4617 241.218 73.505C241.328 73.5483 241.444 73.57 241.568 73.57Z" fill="white"/>
<path d="M237.168 74.115V70.615H237.893V73.475H239.808V74.115H237.168Z" fill="white"/>
</svg>
