<svg width="288" height="192" viewBox="0 0 288 192" fill="none" xmlns="http://www.w3.org/2000/svg">
<path d="M126.42 35.15H121.49V75.24H126.42V35.15Z" fill="#CECECE"/>
<path d="M171.13 35.15H166.2V75.24H171.13V35.15Z" fill="#CECECE"/>
<path d="M147.27 64.3201C139.13 64.3201 131.35 67.1101 131.35 70.6701C131.35 74.2301 139.14 77.0201 147.27 77.0201C155.4 77.0201 161.78 74.2301 161.78 70.6701C161.78 67.1101 155.4 64.3201 147.27 64.3201ZM147.27 74.2401C141.65 74.2401 136.32 72.3501 136.32 70.6601C136.32 68.9701 141.64 67.0801 147.27 67.0801C152.9 67.0801 156.8 68.9701 156.8 70.6601C156.8 72.3501 152.89 74.2401 147.27 74.2401Z" fill="#1B1B1B"/>
<path d="M175.51 33.78L174.77 32.5C173.83 30.88 171.93 29.86 169.82 29.86H122.8C120.68 29.86 118.78 30.87 117.85 32.5L117.18 33.67C116.79 34.34 116.71 35.18 117.07 35.86C117.51 36.72 118.46 37.25 119.52 37.25H173.13C174.15 37.25 175.07 36.74 175.54 35.95C175.94 35.26 175.93 34.47 175.54 33.78H175.51Z" fill="#1B1B1B"/>
<path d="M96.4199 137.61V140.93C96.4199 148.77 102.74 155.15 110.5 155.15H182.62C190.38 155.15 196.7 148.77 196.7 140.93V137.61H96.4199Z" fill="#1B1B1B"/>
<path d="M183.21 71.48H109.93C102.47 71.48 96.4302 77.56 96.4302 85.05V138.09C96.4302 140 97.9802 141.56 99.8802 141.56H105.4C106.05 141.56 106.56 142.09 106.55 142.74L106.49 145.16C106.47 145.89 106.68 146.61 107.11 147.21C108.26 148.88 110.68 152.37 112 153.97C112.66 154.77 113.63 155.23 114.67 155.23H178.7C179.72 155.23 180.69 154.77 181.34 153.99C182.69 152.37 185.01 148.79 186.06 147.14C186.42 146.58 186.6 145.93 186.6 145.26V142.72C186.6 142.08 187.1 141.56 187.74 141.56H193.27C195.17 141.56 196.72 140 196.72 138.09V85.06C196.72 77.57 190.68 71.49 183.22 71.49H183.2L183.21 71.48Z" fill="#FF2802"/>
<path d="M107.31 87.3C107.31 83.59 110.3 80.59 113.99 80.59H179.14C182.83 80.59 185.82 83.6 185.82 87.3V89.56H107.3V87.3H107.31Z" fill="#FF684D"/>
<path d="M101.63 165.55C105.96 165.55 109.46 162.03 109.46 157.68C109.46 153.33 105.95 149.81 101.63 149.81C97.3098 149.81 93.7998 153.33 93.7998 157.68C93.7998 162.03 97.3098 165.55 101.63 165.55Z" fill="#1B1B1B"/>
<path d="M102.82 156.68H100.45V158.67H102.82V156.68Z" fill="#CECDCD"/>
<path d="M189.66 165.43C195.02 166.31 199.59 161.72 198.7 156.34C198.17 153.08 195.55 150.45 192.31 149.91C186.95 149.03 182.38 153.62 183.27 159C183.8 162.26 186.42 164.89 189.66 165.43Z" fill="#1B1B1B"/>
<path d="M192.17 156.68H189.8V158.67H192.17V156.68Z" fill="#CECDCD"/>
<path d="M179.45 144.09C179.45 147.8 176.82 150.8 173.59 150.8H119.75C116.52 150.8 113.89 147.79 113.89 144.09V141.83H179.45V144.09Z" fill="#D22E10"/>
<path d="M96.47 19.34H95.25V19.75H96.47V19.34Z" fill="#1B1B1B"/>
<path d="M191.67 19.75H189.29V19.34H191.67V19.75ZM186.91 19.75H184.53V19.34H186.91V19.75ZM182.15 19.75H179.77V19.34H182.15V19.75ZM177.39 19.75H175.01V19.34H177.39V19.75ZM172.63 19.75H170.25V19.34H172.63V19.75ZM167.87 19.75H165.49V19.34H167.87V19.75ZM163.11 19.75H160.73V19.34H163.11V19.75ZM158.35 19.75H155.97V19.34H158.35V19.75ZM153.59 19.75H151.21V19.34H153.59V19.75ZM148.83 19.75H146.45V19.34H148.83V19.75ZM144.07 19.75H141.69V19.34H144.07V19.75ZM139.31 19.75H136.93V19.34H139.31V19.75ZM134.55 19.75H132.17V19.34H134.55V19.75ZM129.79 19.75H127.41V19.34H129.79V19.75ZM125.03 19.75H122.65V19.34H125.03V19.75ZM120.27 19.75H117.89V19.34H120.27V19.75ZM115.51 19.75H113.13V19.34H115.51V19.75ZM110.75 19.75H108.37V19.34H110.75V19.75ZM105.99 19.75H103.61V19.34H105.99V19.75ZM101.23 19.75H98.8501V19.34H101.23V19.75Z" fill="#1B1B1B"/>
<path d="M195.26 19.34H194.04V19.75H195.26V19.34Z" fill="#1B1B1B"/>
<path d="M95.3198 21.08C94.4798 21.08 93.7998 20.4 93.7998 19.55C93.7998 18.7 94.4798 18.02 95.3198 18.02C96.1598 18.02 96.8398 18.7 96.8398 19.55C96.8398 20.4 96.1598 21.08 95.3198 21.08Z" fill="#1B1B1B"/>
<path d="M195.19 21.08C196.03 21.08 196.71 20.39 196.71 19.55C196.71 18.71 196.03 18.02 195.19 18.02C194.35 18.02 193.67 18.71 193.67 19.55C193.67 20.39 194.35 21.08 195.19 21.08Z" fill="#1B1B1B"/>
<path d="M82.2801 162.87H81.8701V164.09H82.2801V162.87Z" fill="#1B1B1B"/>
<path d="M82.2801 160.41H81.8701V157.95H82.2801V160.41ZM82.2801 155.49H81.8701V153.03H82.2801V155.49ZM82.2801 150.57H81.8701V148.11H82.2801V150.57ZM82.2801 145.65H81.8701V143.19H82.2801V145.65ZM82.2801 140.73H81.8701V138.27H82.2801V140.73ZM82.2801 135.81H81.8701V133.35H82.2801V135.81ZM82.2801 130.89H81.8701V128.43H82.2801V130.89ZM82.2801 125.97H81.8701V123.51H82.2801V125.97ZM82.2801 121.05H81.8701V118.59H82.2801V121.05ZM82.2801 116.13H81.8701V113.67H82.2801V116.13ZM82.2801 111.21H81.8701V108.75H82.2801V111.21ZM82.2801 106.29H81.8701V103.83H82.2801V106.29ZM82.2801 101.37H81.8701V98.91H82.2801V101.37ZM82.2801 96.4499H81.8701V93.9899H82.2801V96.4499ZM82.2801 91.5299H81.8701V89.07H82.2801V91.5299ZM82.2801 86.61H81.8701V84.15H82.2801V86.61ZM82.2801 81.69H81.8701V79.23H82.2801V81.69ZM82.2801 76.7699H81.8701V74.3099H82.2801V76.7699ZM82.2801 71.8499H81.8701V69.3899H82.2801V71.8499ZM82.2801 66.93H81.8701V64.47H82.2801V66.93ZM82.2801 62.0099H81.8701V59.5499H82.2801V62.0099ZM82.2801 57.09H81.8701V54.63H82.2801V57.09ZM82.2801 52.1699H81.8701V49.7099H82.2801V52.1699ZM82.2801 47.25H81.8701V44.79H82.2801V47.25ZM82.2801 42.33H81.8701V39.8699H82.2801V42.33ZM82.2801 37.41H81.8701V34.95H82.2801V37.41Z" fill="#1B1B1B"/>
<path d="M82.2801 31.3201H81.8701V32.5401H82.2801V31.3201Z" fill="#1B1B1B"/>
<path d="M83.6001 164.02C83.6001 164.87 82.9201 165.55 82.0801 165.55C81.2401 165.55 80.5601 164.87 80.5601 164.02C80.5601 163.17 81.2401 162.49 82.0801 162.49C82.9201 162.49 83.6001 163.17 83.6001 164.02Z" fill="#1B1B1B"/>
<path d="M83.6001 31.41C83.6001 30.56 82.9201 29.88 82.0801 29.88C81.2401 29.88 80.5601 30.56 80.5601 31.41C80.5601 32.26 81.2401 32.94 82.0801 32.94C82.9201 32.94 83.6001 32.26 83.6001 31.41Z" fill="#1B1B1B"/>
<path d="M200.616 172.742L200.336 172.452L202.056 170.722L202.336 171.012L200.616 172.742ZM204.056 169.292L203.776 169.002L205.496 167.272L205.776 167.562L204.056 169.292ZM207.496 165.842L207.216 165.552L208.936 163.822L209.216 164.112L207.496 165.842ZM210.936 162.392L210.656 162.102L212.376 160.372L212.656 160.662L210.936 162.392ZM214.376 158.942L214.096 158.652L215.386 157.352L215.666 157.642L214.376 158.942Z" fill="#1B1B1B"/>
<path d="M201.606 173.633C201.016 174.223 200.046 174.223 199.446 173.633C198.846 173.043 198.856 172.073 199.446 171.463C200.036 170.873 201.006 170.873 201.606 171.463C202.196 172.053 202.196 173.023 201.606 173.633Z" fill="#1B1B1B"/>
<path d="M216.537 158.612C217.127 158.022 217.127 157.053 216.537 156.442C215.947 155.853 214.977 155.853 214.377 156.442C213.787 157.033 213.787 158.002 214.377 158.612C214.967 159.202 215.937 159.202 216.537 158.612Z" fill="#1B1B1B"/>
<path d="M227.55 68.93C238.28 68.93 246.97 60.19 246.97 49.4C246.97 38.61 238.27 29.87 227.55 29.87C216.83 29.87 208.13 38.61 208.13 49.4C208.13 60.19 216.83 68.93 227.55 68.93Z" fill="#1B1B1B"/>
<path d="M227.5 103C235.511 103 242 96.5129 242 88.5C242 80.4871 235.511 74 227.5 74C219.489 74 213 80.4871 213 88.5C213 96.5129 219.489 103 227.5 103Z" fill="#1B1B1B"/>
<path d="M232.168 92V88.5H232.893V91.36H234.808V92H232.168ZM235.263 92V88.5L235.948 88.385V89.605C236.154 89.4417 236.398 89.36 236.678 89.36C236.924 89.36 237.148 89.42 237.348 89.54C237.548 89.66 237.706 89.8217 237.823 90.025C237.943 90.225 238.003 90.45 238.003 90.7C238.003 90.95 237.943 91.1767 237.823 91.38C237.703 91.58 237.541 91.74 237.338 91.86C237.134 91.9767 236.908 92.035 236.658 92.035C236.528 92.035 236.401 92.0167 236.278 91.98C236.154 91.9433 236.041 91.89 235.938 91.82V92H235.263ZM236.568 91.455C236.711 91.455 236.839 91.4217 236.953 91.355C237.069 91.2883 237.161 91.1983 237.228 91.085C237.294 90.9717 237.328 90.8433 237.328 90.7C237.328 90.5567 237.294 90.4283 237.228 90.315C237.161 90.1983 237.069 90.1083 236.953 90.045C236.839 89.9783 236.711 89.945 236.568 89.945C236.441 89.945 236.324 89.9667 236.218 90.01C236.114 90.05 236.024 90.1117 235.948 90.195V91.21C236.021 91.2867 236.111 91.3467 236.218 91.39C236.328 91.4333 236.444 91.455 236.568 91.455Z" fill="white"/>
<path d="M214.835 55V44.902L212.369 45.928V43.768L215.735 42.4H217.301V55H214.835ZM224.423 55.198C223.331 55.198 222.365 54.928 221.525 54.388C220.697 53.836 220.049 53.074 219.581 52.102C219.125 51.118 218.897 49.984 218.897 48.7C218.897 47.404 219.125 46.27 219.581 45.298C220.049 44.326 220.697 43.57 221.525 43.03C222.365 42.478 223.331 42.202 224.423 42.202C225.527 42.202 226.493 42.478 227.321 43.03C228.161 43.57 228.809 44.326 229.265 45.298C229.733 46.27 229.967 47.404 229.967 48.7C229.967 49.984 229.733 51.118 229.265 52.102C228.809 53.074 228.161 53.836 227.321 54.388C226.493 54.928 225.527 55.198 224.423 55.198ZM224.423 53.056C225.071 53.056 225.629 52.882 226.097 52.534C226.565 52.186 226.925 51.682 227.177 51.022C227.441 50.362 227.573 49.588 227.573 48.7C227.573 47.8 227.441 47.026 227.177 46.378C226.925 45.718 226.565 45.214 226.097 44.866C225.629 44.518 225.071 44.344 224.423 44.344C223.787 44.344 223.235 44.518 222.767 44.866C222.299 45.214 221.933 45.718 221.669 46.378C221.417 47.026 221.291 47.8 221.291 48.7C221.291 49.588 221.417 50.362 221.669 51.022C221.933 51.682 222.299 52.186 222.767 52.534C223.235 52.882 223.787 53.056 224.423 53.056Z" fill="white"/>
<path d="M217.733 92V90.966L220.945 87.71C221.099 87.5487 221.22 87.3983 221.308 87.259C221.404 87.1197 221.47 86.984 221.506 86.852C221.55 86.7127 221.572 86.5733 221.572 86.434C221.572 86.148 221.451 85.9097 221.209 85.719C220.975 85.5283 220.674 85.433 220.307 85.433C219.955 85.433 219.629 85.5063 219.328 85.653C219.028 85.7923 218.698 86.0343 218.338 86.379L217.524 85.389C217.957 84.9857 218.408 84.685 218.877 84.487C219.347 84.2817 219.838 84.179 220.351 84.179C220.872 84.179 221.33 84.2707 221.726 84.454C222.122 84.6373 222.43 84.8903 222.65 85.213C222.87 85.5357 222.98 85.9133 222.98 86.346C222.98 86.5953 222.944 86.83 222.87 87.05C222.804 87.27 222.694 87.4937 222.54 87.721C222.386 87.941 222.181 88.1793 221.924 88.436L219.592 90.779L223.101 90.768V92H217.733ZM224.039 92V90.966L227.251 87.71C227.405 87.5487 227.526 87.3983 227.614 87.259C227.709 87.1197 227.775 86.984 227.812 86.852C227.856 86.7127 227.878 86.5733 227.878 86.434C227.878 86.148 227.757 85.9097 227.515 85.719C227.28 85.5283 226.98 85.433 226.613 85.433C226.261 85.433 225.935 85.5063 225.634 85.653C225.333 85.7923 225.003 86.0343 224.644 86.379L223.83 85.389C224.263 84.9857 224.714 84.685 225.183 84.487C225.652 84.2817 226.144 84.179 226.657 84.179C227.178 84.179 227.636 84.2707 228.032 84.454C228.428 84.6373 228.736 84.8903 228.956 85.213C229.176 85.5357 229.286 85.9133 229.286 86.346C229.286 86.5953 229.249 86.83 229.176 87.05C229.11 87.27 229 87.4937 228.846 87.721C228.692 87.941 228.487 88.1793 228.23 88.436L225.898 90.779L229.407 90.768V92H224.039Z" fill="white"/>
<path d="M232.578 55V48L233.948 47.77V51.98L236.198 49.79H237.748L235.288 52.18L237.898 55H236.148L233.948 52.62V55H232.578ZM240.432 57.14C240.032 57.14 239.646 57.0967 239.272 57.01C238.899 56.93 238.562 56.8133 238.262 56.66L238.742 55.6C239.029 55.74 239.309 55.8433 239.582 55.91C239.856 55.9767 240.129 56.01 240.402 56.01C240.809 56.01 241.116 55.9233 241.322 55.75C241.536 55.5767 241.642 55.3167 241.642 54.97V54.56C241.216 54.8733 240.739 55.03 240.212 55.03C239.719 55.03 239.272 54.9133 238.872 54.68C238.479 54.44 238.162 54.1167 237.922 53.71C237.689 53.3033 237.572 52.8533 237.572 52.36C237.572 51.8667 237.689 51.42 237.922 51.02C238.162 50.62 238.486 50.3033 238.892 50.07C239.299 49.83 239.752 49.71 240.252 49.71C240.506 49.71 240.752 49.7467 240.992 49.82C241.232 49.8933 241.456 49.9967 241.662 50.13V49.79H243.012V54.99C243.012 55.6767 242.789 56.2067 242.342 56.58C241.902 56.9533 241.266 57.14 240.432 57.14ZM240.422 53.87C240.676 53.87 240.906 53.83 241.112 53.75C241.319 53.6633 241.496 53.5433 241.642 53.39V51.35C241.496 51.2033 241.316 51.09 241.102 51.01C240.896 50.9233 240.672 50.88 240.432 50.88C240.146 50.88 239.889 50.9467 239.662 51.08C239.436 51.2067 239.256 51.3833 239.122 51.61C238.989 51.83 238.922 52.08 238.922 52.36C238.922 52.6467 238.986 52.9033 239.112 53.13C239.246 53.3567 239.426 53.5367 239.652 53.67C239.886 53.8033 240.142 53.87 240.422 53.87Z" fill="white"/>
<path d="M119.049 12.132C118.401 12.132 117.797 12.02 117.237 11.796C116.685 11.564 116.221 11.24 115.845 10.824L116.901 9.84C117.221 10.184 117.537 10.424 117.849 10.56C118.169 10.688 118.561 10.752 119.025 10.752C119.361 10.752 119.653 10.704 119.901 10.608C120.157 10.504 120.353 10.36 120.489 10.176C120.633 9.992 120.705 9.78 120.705 9.54C120.705 9.316 120.649 9.124 120.537 8.964C120.425 8.804 120.273 8.68 120.081 8.592C119.889 8.496 119.661 8.448 119.397 8.448H118.341V7.152H119.253C119.629 7.152 119.925 7.056 120.141 6.864C120.357 6.664 120.465 6.392 120.465 6.048C120.465 5.824 120.401 5.624 120.273 5.448C120.145 5.264 119.969 5.12 119.745 5.016C119.529 4.912 119.281 4.86 119.001 4.86C118.585 4.86 118.225 4.932 117.921 5.076C117.625 5.22 117.313 5.476 116.985 5.844L115.917 4.86C116.309 4.42 116.777 4.08 117.321 3.84C117.873 3.592 118.453 3.468 119.061 3.468C119.645 3.468 120.161 3.572 120.609 3.78C121.057 3.98 121.409 4.26 121.665 4.62C121.921 4.98 122.049 5.392 122.049 5.856C122.049 6.304 121.901 6.704 121.605 7.056C121.309 7.4 120.925 7.64 120.453 7.776C121.013 7.888 121.457 8.112 121.785 8.448C122.121 8.784 122.289 9.188 122.289 9.66C122.289 10.132 122.149 10.556 121.869 10.932C121.589 11.308 121.205 11.604 120.717 11.82C120.237 12.028 119.681 12.132 119.049 12.132ZM126.158 12.132C124.998 12.132 123.994 11.756 123.146 11.004L124.082 9.912C124.442 10.216 124.79 10.436 125.126 10.572C125.462 10.708 125.83 10.776 126.23 10.776C126.558 10.776 126.842 10.716 127.082 10.596C127.322 10.476 127.51 10.308 127.646 10.092C127.79 9.876 127.862 9.624 127.862 9.336C127.862 8.928 127.702 8.592 127.382 8.328C127.07 8.064 126.662 7.932 126.158 7.932C125.91 7.932 125.662 7.968 125.414 8.04C125.166 8.112 124.91 8.22 124.646 8.364L123.53 8.028L123.722 3.6H129.014V4.944H125.102L125.006 7.068C125.302 6.924 125.582 6.828 125.846 6.78C126.118 6.732 126.386 6.708 126.65 6.708C127.218 6.708 127.71 6.816 128.126 7.032C128.55 7.24 128.878 7.536 129.11 7.92C129.342 8.304 129.458 8.752 129.458 9.264C129.458 9.832 129.318 10.332 129.038 10.764C128.766 11.196 128.382 11.532 127.886 11.772C127.39 12.012 126.814 12.132 126.158 12.132ZM136.019 12.12C135.403 12.12 134.847 11.98 134.351 11.7C133.855 11.412 133.463 11.024 133.175 10.536C132.887 10.04 132.743 9.488 132.743 8.88C132.743 8.264 132.887 7.712 133.175 7.224C133.463 6.736 133.855 6.348 134.351 6.06C134.847 5.772 135.403 5.628 136.019 5.628C136.515 5.628 136.987 5.724 137.435 5.916C137.891 6.108 138.283 6.384 138.611 6.744L137.603 7.812C137.371 7.556 137.127 7.368 136.871 7.248C136.623 7.12 136.351 7.056 136.055 7.056C135.735 7.056 135.447 7.136 135.191 7.296C134.943 7.456 134.743 7.672 134.591 7.944C134.447 8.216 134.375 8.528 134.375 8.88C134.375 9.216 134.447 9.524 134.591 9.804C134.743 10.076 134.951 10.292 135.215 10.452C135.479 10.604 135.771 10.68 136.091 10.68C136.371 10.68 136.631 10.624 136.871 10.512C137.119 10.392 137.355 10.216 137.579 9.984L138.563 11.016C138.243 11.36 137.859 11.632 137.411 11.832C136.963 12.024 136.499 12.12 136.019 12.12ZM139.418 12V5.748H141.062V6.228C141.51 5.828 142.054 5.628 142.694 5.628C143.102 5.628 143.466 5.712 143.786 5.88C144.106 6.04 144.37 6.268 144.578 6.564C144.834 6.26 145.134 6.028 145.478 5.868C145.83 5.708 146.218 5.628 146.642 5.628C147.114 5.628 147.526 5.736 147.878 5.952C148.238 6.16 148.518 6.452 148.718 6.828C148.926 7.196 149.03 7.628 149.03 8.124V12H147.398V8.364C147.398 7.956 147.29 7.636 147.074 7.404C146.858 7.164 146.57 7.044 146.21 7.044C145.962 7.044 145.734 7.096 145.526 7.2C145.326 7.304 145.154 7.46 145.01 7.668C145.018 7.74 145.026 7.812 145.034 7.884C145.042 7.956 145.046 8.036 145.046 8.124V12H143.402V8.364C143.402 7.956 143.294 7.636 143.078 7.404C142.87 7.164 142.586 7.044 142.226 7.044C141.978 7.044 141.754 7.092 141.554 7.188C141.362 7.284 141.198 7.428 141.062 7.62V12H139.418ZM155.803 14.556C154.835 13.98 154.095 13.216 153.583 12.264C153.071 11.32 152.815 10.236 152.815 9.012C152.815 7.788 153.071 6.704 153.583 5.76C154.095 4.808 154.835 4.048 155.803 3.48L156.271 4.08C155.439 4.568 154.795 5.24 154.339 6.096C153.891 6.952 153.667 7.924 153.667 9.012C153.667 10.1 153.891 11.076 154.339 11.94C154.795 12.796 155.439 13.464 156.271 13.944L155.803 14.556ZM158.463 12V4.524L157.047 5.148V4.344L158.775 3.6H159.339V12H158.463ZM165.28 12V9.756H160.504V9.06L165.22 3.6H166.156V9H167.164V9.756H166.156V12H165.28ZM161.584 9H165.28V4.716L161.584 9ZM169.634 5.904L170.33 3.372H171.29L170.33 5.904H169.634ZM168.002 5.904L168.698 3.372H169.658L168.698 5.904H168.002ZM172.787 3.408C173.755 3.984 174.495 4.748 175.007 5.7C175.519 6.644 175.775 7.728 175.775 8.952C175.775 10.176 175.519 11.26 175.007 12.204C174.495 13.156 173.755 13.916 172.787 14.484L172.319 13.884C173.151 13.396 173.791 12.724 174.239 11.868C174.695 11.012 174.923 10.04 174.923 8.952C174.923 7.864 174.695 6.892 174.239 6.036C173.791 5.172 173.151 4.5 172.319 4.02L172.787 3.408Z" fill="black"/>
<path d="M44.4708 94.132C43.3108 94.132 42.3068 93.756 41.4588 93.004L42.3948 91.912C42.7548 92.216 43.1028 92.436 43.4388 92.572C43.7748 92.708 44.1428 92.776 44.5428 92.776C44.8708 92.776 45.1548 92.716 45.3948 92.596C45.6348 92.476 45.8228 92.308 45.9588 92.092C46.1028 91.876 46.1748 91.624 46.1748 91.336C46.1748 90.928 46.0148 90.592 45.6948 90.328C45.3828 90.064 44.9748 89.932 44.4708 89.932C44.2228 89.932 43.9748 89.968 43.7268 90.04C43.4788 90.112 43.2228 90.22 42.9588 90.364L41.8428 90.028L42.0348 85.6H47.3268V86.944H43.4148L43.3188 89.068C43.6148 88.924 43.8948 88.828 44.1588 88.78C44.4308 88.732 44.6988 88.708 44.9628 88.708C45.5308 88.708 46.0228 88.816 46.4388 89.032C46.8628 89.24 47.1908 89.536 47.4228 89.92C47.6548 90.304 47.7708 90.752 47.7708 91.264C47.7708 91.832 47.6308 92.332 47.3508 92.764C47.0788 93.196 46.6948 93.532 46.1988 93.772C45.7028 94.012 45.1268 94.132 44.4708 94.132ZM51.5255 94.132C50.3655 94.132 49.3615 93.756 48.5135 93.004L49.4495 91.912C49.8095 92.216 50.1575 92.436 50.4935 92.572C50.8295 92.708 51.1975 92.776 51.5975 92.776C51.9255 92.776 52.2095 92.716 52.4495 92.596C52.6895 92.476 52.8775 92.308 53.0135 92.092C53.1575 91.876 53.2295 91.624 53.2295 91.336C53.2295 90.928 53.0695 90.592 52.7495 90.328C52.4375 90.064 52.0295 89.932 51.5255 89.932C51.2775 89.932 51.0295 89.968 50.7815 90.04C50.5335 90.112 50.2775 90.22 50.0135 90.364L48.8975 90.028L49.0895 85.6H54.3815V86.944H50.4695L50.3735 89.068C50.6695 88.924 50.9495 88.828 51.2135 88.78C51.4855 88.732 51.7535 88.708 52.0175 88.708C52.5855 88.708 53.0775 88.816 53.4935 89.032C53.9175 89.24 54.2455 89.536 54.4775 89.92C54.7095 90.304 54.8255 90.752 54.8255 91.264C54.8255 91.832 54.6855 92.332 54.4055 92.764C54.1335 93.196 53.7495 93.532 53.2535 93.772C52.7575 94.012 52.1815 94.132 51.5255 94.132ZM61.386 94.12C60.77 94.12 60.214 93.98 59.718 93.7C59.222 93.412 58.83 93.024 58.542 92.536C58.254 92.04 58.11 91.488 58.11 90.88C58.11 90.264 58.254 89.712 58.542 89.224C58.83 88.736 59.222 88.348 59.718 88.06C60.214 87.772 60.77 87.628 61.386 87.628C61.882 87.628 62.354 87.724 62.802 87.916C63.258 88.108 63.65 88.384 63.978 88.744L62.97 89.812C62.738 89.556 62.494 89.368 62.238 89.248C61.99 89.12 61.718 89.056 61.422 89.056C61.102 89.056 60.814 89.136 60.558 89.296C60.31 89.456 60.11 89.672 59.958 89.944C59.814 90.216 59.742 90.528 59.742 90.88C59.742 91.216 59.814 91.524 59.958 91.804C60.11 92.076 60.318 92.292 60.582 92.452C60.846 92.604 61.138 92.68 61.458 92.68C61.738 92.68 61.998 92.624 62.238 92.512C62.486 92.392 62.722 92.216 62.946 91.984L63.93 93.016C63.61 93.36 63.226 93.632 62.778 93.832C62.33 94.024 61.866 94.12 61.386 94.12ZM64.7847 94V87.748H66.4287V88.228C66.8767 87.828 67.4207 87.628 68.0607 87.628C68.4687 87.628 68.8327 87.712 69.1527 87.88C69.4727 88.04 69.7367 88.268 69.9447 88.564C70.2007 88.26 70.5007 88.028 70.8447 87.868C71.1967 87.708 71.5847 87.628 72.0087 87.628C72.4807 87.628 72.8927 87.736 73.2447 87.952C73.6047 88.16 73.8847 88.452 74.0847 88.828C74.2927 89.196 74.3967 89.628 74.3967 90.124V94H72.7647V90.364C72.7647 89.956 72.6567 89.636 72.4407 89.404C72.2247 89.164 71.9367 89.044 71.5767 89.044C71.3287 89.044 71.1007 89.096 70.8927 89.2C70.6927 89.304 70.5207 89.46 70.3767 89.668C70.3847 89.74 70.3927 89.812 70.4007 89.884C70.4087 89.956 70.4127 90.036 70.4127 90.124V94H68.7687V90.364C68.7687 89.956 68.6607 89.636 68.4447 89.404C68.2367 89.164 67.9527 89.044 67.5927 89.044C67.3447 89.044 67.1207 89.092 66.9207 89.188C66.7287 89.284 66.5647 89.428 66.4287 89.62V94H64.7847ZM51.7912 112.556C50.8232 111.98 50.0832 111.216 49.5712 110.264C49.0592 109.32 48.8032 108.236 48.8032 107.012C48.8032 105.788 49.0592 104.704 49.5712 103.76C50.0832 102.808 50.8232 102.048 51.7912 101.48L52.2592 102.08C51.4272 102.568 50.7832 103.24 50.3272 104.096C49.8792 104.952 49.6552 105.924 49.6552 107.012C49.6552 108.1 49.8792 109.076 50.3272 109.94C50.7832 110.796 51.4272 111.464 52.2592 111.944L51.7912 112.556ZM53.2872 110V109.364L56.6472 105.692C56.9112 105.404 57.1152 105.152 57.2592 104.936C57.4112 104.712 57.5152 104.504 57.5712 104.312C57.6352 104.12 57.6672 103.916 57.6672 103.7C57.6672 103.276 57.4992 102.928 57.1632 102.656C56.8352 102.376 56.4152 102.236 55.9032 102.236C55.5112 102.236 55.1472 102.312 54.8112 102.464C54.4752 102.616 54.0992 102.88 53.6832 103.256L53.1792 102.656C53.6192 102.256 54.0632 101.96 54.5112 101.768C54.9592 101.568 55.4272 101.468 55.9152 101.468C56.4192 101.468 56.8672 101.564 57.2592 101.756C57.6512 101.94 57.9592 102.196 58.1832 102.524C58.4072 102.852 58.5192 103.228 58.5192 103.652C58.5192 103.932 58.4832 104.192 58.4112 104.432C58.3392 104.664 58.2112 104.916 58.0272 105.188C57.8432 105.452 57.5792 105.772 57.2352 106.148L54.3672 109.256L58.6992 109.244V110H53.2872ZM59.7911 110V109.364L63.1511 105.692C63.4151 105.404 63.6191 105.152 63.7631 104.936C63.9151 104.712 64.0191 104.504 64.0751 104.312C64.1391 104.12 64.1711 103.916 64.1711 103.7C64.1711 103.276 64.0031 102.928 63.6671 102.656C63.3391 102.376 62.9191 102.236 62.4071 102.236C62.0151 102.236 61.6511 102.312 61.3151 102.464C60.9791 102.616 60.6031 102.88 60.1871 103.256L59.6831 102.656C60.1231 102.256 60.5671 101.96 61.0151 101.768C61.4631 101.568 61.9311 101.468 62.4191 101.468C62.9231 101.468 63.3711 101.564 63.7631 101.756C64.1551 101.94 64.4631 102.196 64.6871 102.524C64.9111 102.852 65.0231 103.228 65.0231 103.652C65.0231 103.932 64.9871 104.192 64.9151 104.432C64.8431 104.664 64.7151 104.916 64.5311 105.188C64.3471 105.452 64.0831 105.772 63.7391 106.148L60.8711 109.256L65.2031 109.244V110H59.7911ZM68.095 103.904L68.791 101.372H69.751L68.791 103.904H68.095ZM66.463 103.904L67.159 101.372H68.119L67.159 103.904H66.463ZM71.2479 101.408C72.2159 101.984 72.9559 102.748 73.4679 103.7C73.9799 104.644 74.2359 105.728 74.2359 106.952C74.2359 108.176 73.9799 109.26 73.4679 110.204C72.9559 111.156 72.2159 111.916 71.2479 112.484L70.7799 111.884C71.6119 111.396 72.2519 110.724 72.6999 109.868C73.1559 109.012 73.3839 108.04 73.3839 106.952C73.3839 105.864 73.1559 104.892 72.6999 104.036C72.2519 103.172 71.6119 102.5 70.7799 102.02L71.2479 101.408Z" fill="black"/>
<path d="M215.49 176V175.06L218.41 172.1C218.55 171.953 218.66 171.817 218.74 171.69C218.827 171.563 218.887 171.44 218.92 171.32C218.96 171.193 218.98 171.067 218.98 170.94C218.98 170.68 218.87 170.463 218.65 170.29C218.437 170.117 218.163 170.03 217.83 170.03C217.51 170.03 217.213 170.097 216.94 170.23C216.667 170.357 216.367 170.577 216.04 170.89L215.3 169.99C215.693 169.623 216.103 169.35 216.53 169.17C216.957 168.983 217.403 168.89 217.87 168.89C218.343 168.89 218.76 168.973 219.12 169.14C219.48 169.307 219.76 169.537 219.96 169.83C220.16 170.123 220.26 170.467 220.26 170.86C220.26 171.087 220.227 171.3 220.16 171.5C220.1 171.7 220 171.903 219.86 172.11C219.72 172.31 219.533 172.527 219.3 172.76L217.18 174.89L220.37 174.88V176H215.49ZM223.582 176.11C222.616 176.11 221.779 175.797 221.072 175.17L221.852 174.26C222.152 174.513 222.442 174.697 222.722 174.81C223.002 174.923 223.309 174.98 223.642 174.98C223.916 174.98 224.152 174.93 224.352 174.83C224.552 174.73 224.709 174.59 224.822 174.41C224.942 174.23 225.002 174.02 225.002 173.78C225.002 173.44 224.869 173.16 224.602 172.94C224.342 172.72 224.002 172.61 223.582 172.61C223.376 172.61 223.169 172.64 222.962 172.7C222.756 172.76 222.542 172.85 222.322 172.97L221.392 172.69L221.552 169H225.962V170.12H222.702L222.622 171.89C222.869 171.77 223.102 171.69 223.322 171.65C223.549 171.61 223.772 171.59 223.992 171.59C224.466 171.59 224.876 171.68 225.222 171.86C225.576 172.033 225.849 172.28 226.042 172.6C226.236 172.92 226.332 173.293 226.332 173.72C226.332 174.193 226.216 174.61 225.982 174.97C225.756 175.33 225.436 175.61 225.022 175.81C224.609 176.01 224.129 176.11 223.582 176.11ZM231.8 176.1C231.286 176.1 230.823 175.983 230.41 175.75C229.996 175.51 229.67 175.187 229.43 174.78C229.19 174.367 229.07 173.907 229.07 173.4C229.07 172.887 229.19 172.427 229.43 172.02C229.67 171.613 229.996 171.29 230.41 171.05C230.823 170.81 231.286 170.69 231.8 170.69C232.213 170.69 232.606 170.77 232.98 170.93C233.36 171.09 233.686 171.32 233.96 171.62L233.12 172.51C232.926 172.297 232.723 172.14 232.51 172.04C232.303 171.933 232.076 171.88 231.83 171.88C231.563 171.88 231.323 171.947 231.11 172.08C230.903 172.213 230.736 172.393 230.61 172.62C230.49 172.847 230.43 173.107 230.43 173.4C230.43 173.68 230.49 173.937 230.61 174.17C230.736 174.397 230.91 174.577 231.13 174.71C231.35 174.837 231.593 174.9 231.86 174.9C232.093 174.9 232.31 174.853 232.51 174.76C232.716 174.66 232.913 174.513 233.1 174.32L233.92 175.18C233.653 175.467 233.333 175.693 232.96 175.86C232.586 176.02 232.2 176.1 231.8 176.1ZM234.632 176V170.79H236.002V171.19C236.375 170.857 236.828 170.69 237.362 170.69C237.702 170.69 238.005 170.76 238.272 170.9C238.538 171.033 238.758 171.223 238.932 171.47C239.145 171.217 239.395 171.023 239.682 170.89C239.975 170.757 240.298 170.69 240.652 170.69C241.045 170.69 241.388 170.78 241.682 170.96C241.982 171.133 242.215 171.377 242.382 171.69C242.555 171.997 242.642 172.357 242.642 172.77V176H241.282V172.97C241.282 172.63 241.192 172.363 241.012 172.17C240.832 171.97 240.592 171.87 240.292 171.87C240.085 171.87 239.895 171.913 239.722 172C239.555 172.087 239.412 172.217 239.292 172.39C239.298 172.45 239.305 172.51 239.312 172.57C239.318 172.63 239.322 172.697 239.322 172.77V176H237.952V172.97C237.952 172.63 237.862 172.363 237.682 172.17C237.508 171.97 237.272 171.87 236.972 171.87C236.765 171.87 236.578 171.91 236.412 171.99C236.252 172.07 236.115 172.19 236.002 172.35V176H234.632ZM218.13 191.13C217.323 190.65 216.707 190.013 216.28 189.22C215.853 188.433 215.64 187.53 215.64 186.51C215.64 185.49 215.853 184.587 216.28 183.8C216.707 183.007 217.323 182.373 218.13 181.9L218.52 182.4C217.827 182.807 217.29 183.367 216.91 184.08C216.537 184.793 216.35 185.603 216.35 186.51C216.35 187.417 216.537 188.23 216.91 188.95C217.29 189.663 217.827 190.22 218.52 190.62L218.13 191.13ZM220.347 189V182.77L219.167 183.29V182.62L220.607 182H221.077V189H220.347ZM225.087 189.11C224.527 189.11 224.034 188.957 223.607 188.65C223.181 188.343 222.844 187.92 222.597 187.38C222.357 186.833 222.237 186.207 222.237 185.5C222.237 184.793 222.357 184.17 222.597 183.63C222.844 183.083 223.181 182.657 223.607 182.35C224.034 182.043 224.527 181.89 225.087 181.89C225.647 181.89 226.141 182.043 226.567 182.35C226.994 182.657 227.327 183.083 227.567 183.63C227.814 184.17 227.937 184.793 227.937 185.5C227.937 186.207 227.814 186.833 227.567 187.38C227.327 187.92 226.994 188.343 226.567 188.65C226.141 188.957 225.647 189.11 225.087 189.11ZM225.087 188.46C225.521 188.46 225.894 188.34 226.207 188.1C226.527 187.853 226.774 187.507 226.947 187.06C227.121 186.613 227.207 186.093 227.207 185.5C227.207 184.9 227.121 184.38 226.947 183.94C226.774 183.493 226.527 183.15 226.207 182.91C225.894 182.663 225.521 182.54 225.087 182.54C224.661 182.54 224.287 182.663 223.967 182.91C223.647 183.15 223.401 183.493 223.227 183.94C223.054 184.38 222.967 184.9 222.967 185.5C222.967 186.093 223.054 186.613 223.227 187.06C223.401 187.507 223.647 187.853 223.967 188.1C224.287 188.34 224.661 188.46 225.087 188.46ZM230.291 183.92L230.871 181.81H231.671L230.871 183.92H230.291ZM228.931 183.92L229.511 181.81H230.311L229.511 183.92H228.931ZM232.918 181.84C233.725 182.32 234.342 182.957 234.768 183.75C235.195 184.537 235.408 185.44 235.408 186.46C235.408 187.48 235.195 188.383 234.768 189.17C234.342 189.963 233.725 190.597 232.918 191.07L232.528 190.57C233.222 190.163 233.755 189.603 234.128 188.89C234.508 188.177 234.698 187.367 234.698 186.46C234.698 185.553 234.508 184.743 234.128 184.03C233.755 183.31 233.222 182.75 232.528 182.35L232.918 181.84Z" fill="black"/>
</svg>
