<svg width="225" height="150" viewBox="0 0 225 150" fill="none" xmlns="http://www.w3.org/2000/svg">
<g clip-path="url(#clip0_977_270)">
<path d="M50 127C50 128.105 50.8954 129 52 129C53.1046 129 54 128.105 54 127C54 125.895 53.1046 125 52 125C50.8954 125 50 125.895 50 127ZM50 25C50 26.1046 50.8954 27 52 27C53.1046 27 54 26.1046 54 25C54 23.8954 53.1046 23 52 23C50.8954 23 50 23.8954 50 25ZM51.625 25L51.625 25.9808L52.375 25.9808L52.375 25L51.625 25ZM51.625 27.9423L51.625 29.9038L52.375 29.9038L52.375 27.9423L51.625 27.9423ZM51.625 31.8654L51.625 33.8269L52.375 33.8269L52.375 31.8654L51.625 31.8654ZM51.625 35.7885L51.625 37.75L52.375 37.75L52.375 35.7885L51.625 35.7885ZM51.625 39.7115L51.625 41.6731L52.375 41.6731L52.375 39.7115L51.625 39.7115ZM51.625 43.6346L51.625 45.5962L52.375 45.5962L52.375 43.6346L51.625 43.6346ZM51.625 47.5577L51.625 49.5192L52.375 49.5192L52.375 47.5577L51.625 47.5577ZM51.625 51.4808L51.625 53.4423L52.375 53.4423L52.375 51.4808L51.625 51.4808ZM51.625 55.4038L51.625 57.3654L52.375 57.3654L52.375 55.4038L51.625 55.4038ZM51.625 59.3269L51.625 61.2885L52.375 61.2885L52.375 59.3269L51.625 59.3269ZM51.625 63.25L51.625 65.2115L52.375 65.2115L52.375 63.25L51.625 63.25ZM51.625 67.1731L51.625 69.1346L52.375 69.1346L52.375 67.1731L51.625 67.1731ZM51.625 71.0962L51.625 73.0577L52.375 73.0577L52.375 71.0962L51.625 71.0962ZM51.625 75.0192L51.625 76.9808L52.375 76.9808L52.375 75.0192L51.625 75.0192ZM51.625 78.9423L51.625 80.9039L52.375 80.9039L52.375 78.9423L51.625 78.9423ZM51.625 82.8654L51.625 84.8269L52.375 84.8269L52.375 82.8654L51.625 82.8654ZM51.625 86.7885L51.625 88.75L52.375 88.75L52.375 86.7885L51.625 86.7885ZM51.625 90.7116L51.625 92.6731L52.375 92.6731L52.375 90.7116L51.625 90.7116ZM51.625 94.6346L51.625 96.5962L52.375 96.5962L52.375 94.6346L51.625 94.6346ZM51.625 98.5577L51.625 100.519L52.375 100.519L52.375 98.5577L51.625 98.5577ZM51.625 102.481L51.625 104.442L52.375 104.442L52.375 102.481L51.625 102.481ZM51.625 106.404L51.625 108.365L52.375 108.365L52.375 106.404L51.625 106.404ZM51.625 110.327L51.625 112.289L52.375 112.289L52.375 110.327L51.625 110.327ZM51.625 114.25L51.625 116.212L52.375 116.212L52.375 114.25L51.625 114.25ZM51.625 118.173L51.625 120.135L52.375 120.135L52.375 118.173L51.625 118.173ZM51.625 122.096L51.625 124.058L52.375 124.058L52.375 122.096L51.625 122.096ZM51.625 126.019L51.625 127L52.375 127L52.375 126.019L51.625 126.019Z" fill="#1B1B1B"/>
<path d="M153.586 132.586C152.805 133.367 152.805 134.633 153.586 135.414C154.367 136.195 155.633 136.195 156.414 135.414C157.195 134.633 157.195 133.367 156.414 132.586C155.633 131.805 154.367 131.805 153.586 132.586ZM166.586 119.586C165.805 120.367 165.805 121.633 166.586 122.414C167.367 123.195 168.633 123.195 169.414 122.414C170.195 121.633 170.195 120.367 169.414 119.586C168.633 118.805 167.367 118.805 166.586 119.586ZM167.735 120.735L167.085 121.385L167.615 121.915L168.265 121.265L167.735 120.735ZM165.785 122.685L164.485 123.985L165.015 124.515L166.315 123.215L165.785 122.685ZM163.185 125.285L161.885 126.585L162.415 127.115L163.715 125.815L163.185 125.285ZM160.585 127.885L159.285 129.185L159.815 129.715L161.115 128.415L160.585 127.885ZM157.985 130.485L156.685 131.785L157.215 132.315L158.515 131.015L157.985 130.485ZM155.385 133.085L154.735 133.735L155.265 134.265L155.915 133.615L155.385 133.085Z" fill="#1B1B1B"/>
<path d="M61 9.99999C59.8954 9.99999 59 10.8954 59 12C59 13.1046 59.8954 14 61 14C62.1046 14 63 13.1046 63 12C63 10.8954 62.1046 9.99999 61 9.99999ZM163 10C161.895 10 161 10.8954 161 12C161 13.1046 161.895 14 163 14C164.105 14 165 13.1046 165 12C165 10.8954 164.105 10 163 10ZM163 11.625L162.019 11.625L162.019 12.375L163 12.375L163 11.625ZM160.058 11.625L158.096 11.625L158.096 12.375L160.058 12.375L160.058 11.625ZM156.135 11.625L154.173 11.625L154.173 12.375L156.135 12.375L156.135 11.625ZM152.212 11.625L150.25 11.625L150.25 12.375L152.212 12.375L152.212 11.625ZM148.288 11.625L146.327 11.625L146.327 12.375L148.288 12.375L148.288 11.625ZM144.365 11.625L142.404 11.625L142.404 12.375L144.365 12.375L144.365 11.625ZM140.442 11.625L138.481 11.625L138.481 12.375L140.442 12.375L140.442 11.625ZM136.519 11.625L134.558 11.625L134.558 12.375L136.519 12.375L136.519 11.625ZM132.596 11.625L130.635 11.625L130.635 12.375L132.596 12.375L132.596 11.625ZM128.673 11.625L126.712 11.625L126.712 12.375L128.673 12.375L128.673 11.625ZM124.75 11.625L122.788 11.625L122.788 12.375L124.75 12.375L124.75 11.625ZM120.827 11.625L118.865 11.625L118.865 12.375L120.827 12.375L120.827 11.625ZM116.904 11.625L114.942 11.625L114.942 12.375L116.904 12.375L116.904 11.625ZM112.981 11.625L111.019 11.625L111.019 12.375L112.981 12.375L112.981 11.625ZM109.058 11.625L107.096 11.625L107.096 12.375L109.058 12.375L109.058 11.625ZM105.135 11.625L103.173 11.625L103.173 12.375L105.135 12.375L105.135 11.625ZM101.212 11.625L99.25 11.625L99.25 12.375L101.212 12.375L101.212 11.625ZM97.2884 11.625L95.3269 11.625L95.3269 12.375L97.2884 12.375L97.2884 11.625ZM93.3654 11.625L91.4038 11.625L91.4038 12.375L93.3654 12.375L93.3654 11.625ZM89.4423 11.625L87.4807 11.625L87.4807 12.375L89.4423 12.375L89.4423 11.625ZM85.5192 11.625L83.5577 11.625L83.5577 12.375L85.5192 12.375L85.5192 11.625ZM81.5961 11.625L79.6346 11.625L79.6346 12.375L81.5961 12.375L81.5961 11.625ZM77.673 11.625L75.7115 11.625L75.7115 12.375L77.673 12.375L77.673 11.625ZM73.75 11.625L71.7884 11.625L71.7884 12.375L73.75 12.375L73.75 11.625ZM69.8269 11.625L67.8653 11.625L67.8653 12.375L69.8269 12.375L69.8269 11.625ZM65.9038 11.625L63.9423 11.625L63.9423 12.375L65.9038 12.375L65.9038 11.625ZM61.9807 11.625L61 11.625L61 12.375L61.9807 12.375L61.9807 11.625Z" fill="#1B1B1B"/>
<path d="M112.003 25C103.015 25 96.2329 28.0717 96.2329 32.1423C96.2329 36.213 103.012 39.2846 112.003 39.2846C120.994 39.2846 127.773 36.213 127.773 32.1423C127.773 28.0717 120.994 25 112.003 25ZM112.003 28.902C117.816 28.902 121.526 30.8222 121.526 32.1423C121.526 33.4624 117.816 35.3826 112.003 35.3826C106.191 35.3826 102.48 33.4624 102.48 32.1423C102.48 30.8222 106.191 28.902 112.003 28.902Z" fill="#1B1B1B"/>
<path d="M160.309 87.3867C159.52 86.5207 158.385 86.0244 157.188 86.0244H68.1268C66.93 86.0244 65.7947 86.5207 65.0066 87.3867C64.2508 88.2171 63.894 89.2809 64.001 90.3805L66.0931 111.986C66.2942 114.049 68.0652 115.602 70.2157 115.602H155.093C157.243 115.602 159.018 114.049 159.216 111.986L161.308 90.3805C161.415 89.2809 161.058 88.2171 160.302 87.3867H160.309Z" fill="#1B1B1B"/>
<path d="M112.003 32.1973C134.552 32.1973 152.855 50.5039 152.855 73.0498V112.874C152.855 120.668 146.527 127 138.73 127H85.2726C77.4784 127 71.147 120.672 71.147 112.874V73.0498C71.147 50.5006 89.4536 32.1973 112 32.1973H112.003Z" fill="#FF0000"/>
<path d="M87.8543 87.5V111.509C87.8543 114.117 89.648 116.238 91.8536 116.238H133.459C135.664 116.238 137.458 114.117 137.458 111.509V87.5H87.8511H87.8543Z" fill="#D00000"/>
<path d="M132.417 92.1123H96.0142V93.7341H132.417V92.1123Z" fill="#B60000"/>
<path d="M94.4442 92.1123H92.9067V93.7341H94.4442V92.1123Z" fill="#B60000"/>
<path d="M94.486 95.0249H92.8643V97.117H94.486V95.0249Z" fill="#B60000"/>
<path d="M136.482 58.4053H91.9443V60.0271H136.482V58.4053Z" fill="#E71E00"/>
<path d="M90.3719 58.4053H88.8345V60.0271H90.3719V58.4053Z" fill="#E71E00"/>
<path d="M90.4138 61.3149H88.792V63.407H90.4138V61.3149Z" fill="#E71E00"/>
<path d="M18.1731 70.1794L21.8062 65.3301H23.0431V70.1121H24.0109V70.8677C24.0109 70.9367 23.9868 70.9988 23.9385 71.0541C23.8936 71.1058 23.828 71.1317 23.7418 71.1317H23.0431V73H21.9045V71.1317H18.6699C18.5802 71.1317 18.5026 71.1041 18.437 71.0489C18.3715 70.9937 18.3301 70.9247 18.3128 70.8419L18.1731 70.1794ZM19.5756 70.1121H21.9045V67.6072C21.9045 67.3692 21.92 67.1087 21.9511 66.8258L19.5756 70.1121ZM24.7406 72.1823L25.1443 71.6285C25.2306 71.5078 25.341 71.4474 25.4755 71.4474C25.5652 71.4474 25.655 71.4767 25.7447 71.5354C25.8378 71.5906 25.9431 71.6527 26.0604 71.7217C26.1811 71.7872 26.3209 71.8476 26.4796 71.9028C26.6417 71.958 26.8367 71.9856 27.0644 71.9856C27.3059 71.9856 27.5181 71.9477 27.701 71.8718C27.8838 71.7924 28.0356 71.6837 28.1564 71.5457C28.2772 71.4043 28.3686 71.2386 28.4307 71.0489C28.4928 70.8557 28.5238 70.6452 28.5238 70.4175C28.5238 70 28.4031 69.6739 28.1616 69.4393C27.9201 69.2047 27.563 69.0874 27.0903 69.0874C26.728 69.0874 26.3554 69.1547 25.9724 69.2892L25.1547 69.0564L25.7912 65.3352H29.5745V65.8942C29.5745 66.0805 29.5158 66.2323 29.3985 66.3496C29.2812 66.4669 29.0828 66.5256 28.8033 66.5256H26.7021L26.4278 68.1248C26.7728 68.0558 27.0868 68.0195 27.3697 68.0161C27.7734 68.0161 28.1288 68.0765 28.4359 68.1972C28.7429 68.318 29 68.4853 29.207 68.6992C29.4175 68.9097 29.5745 69.1581 29.678 69.4445C29.7849 69.7274 29.8384 70.0328 29.8384 70.3605C29.8384 70.7677 29.7659 71.1386 29.621 71.4733C29.4796 71.8079 29.2812 72.096 29.0259 72.3375C28.774 72.5756 28.4738 72.7602 28.1253 72.8913C27.7769 73.019 27.3973 73.0828 26.9868 73.0828C26.7452 73.0828 26.5175 73.0587 26.3036 73.0104C26.0897 72.962 25.8878 72.8965 25.6981 72.8137C25.5083 72.7309 25.3324 72.636 25.1702 72.529C25.0115 72.4186 24.8683 72.303 24.7406 72.1823ZM33.3628 70.2726C33.3628 69.8723 33.4198 69.5014 33.5336 69.1599C33.6475 68.8183 33.8148 68.5233 34.0356 68.2749C34.2599 68.0264 34.5359 67.8315 34.8637 67.69C35.1949 67.5486 35.5745 67.4779 36.0023 67.4779C36.4094 67.4779 36.7648 67.5434 37.0684 67.6745C37.372 67.8056 37.6463 67.9919 37.8913 68.2335L37.5497 68.7148C37.5118 68.7631 37.4738 68.801 37.4359 68.8286C37.3979 68.8562 37.3427 68.87 37.2703 68.87C37.2047 68.87 37.1392 68.8511 37.0736 68.8131C37.0115 68.7717 36.9356 68.7251 36.8459 68.6734C36.7596 68.6216 36.6544 68.5768 36.5302 68.5388C36.4094 68.4974 36.2593 68.4767 36.0799 68.4767C35.8488 68.4767 35.6469 68.5181 35.4744 68.6009C35.3019 68.6837 35.157 68.8028 35.0397 68.958C34.9258 69.1133 34.8413 69.3013 34.7861 69.5221C34.7309 69.743 34.7033 69.9931 34.7033 70.2726C34.7033 70.5624 34.7343 70.8212 34.7964 71.0489C34.8585 71.2731 34.9465 71.4629 35.0604 71.6182C35.1777 71.77 35.3191 71.8856 35.4848 71.9649C35.6504 72.0443 35.8384 72.084 36.0489 72.084C36.2559 72.084 36.4232 72.0581 36.5509 72.0063C36.682 71.9546 36.7907 71.8976 36.8769 71.8355C36.9666 71.7734 37.0443 71.7182 37.1098 71.6699C37.1754 71.6182 37.2496 71.5923 37.3324 71.5923C37.4393 71.5923 37.5187 71.632 37.5704 71.7113L37.9431 72.1875C37.7982 72.3565 37.6412 72.4997 37.4721 72.617C37.303 72.7309 37.1271 72.8223 36.9442 72.8913C36.7648 72.9603 36.5785 73.0086 36.3853 73.0362C36.1921 73.0638 36.0006 73.0776 35.8108 73.0776C35.4761 73.0776 35.1587 73.0155 34.8585 72.8913C34.5618 72.7671 34.3013 72.5842 34.077 72.3427C33.8562 72.1012 33.682 71.8079 33.5543 71.4629C33.4267 71.1144 33.3628 70.7177 33.3628 70.2726ZM38.766 73V67.5607H39.5681C39.7372 67.5607 39.8476 67.64 39.8994 67.7987L39.9822 68.2024C40.0788 68.0955 40.1788 67.9988 40.2823 67.9126C40.3893 67.8229 40.5014 67.747 40.6187 67.6849C40.736 67.6193 40.862 67.5693 40.9965 67.5348C41.1346 67.4968 41.2846 67.4779 41.4468 67.4779C41.7884 67.4779 42.0696 67.571 42.2904 67.7573C42.5112 67.9436 42.6768 68.1903 42.7872 68.4974C42.8735 68.318 42.9787 68.1645 43.1029 68.0368C43.2306 67.9057 43.3703 67.8005 43.5221 67.7211C43.6774 67.6383 43.8396 67.5779 44.0086 67.54C44.1811 67.4986 44.3536 67.4779 44.5262 67.4779C44.8263 67.4779 45.092 67.5244 45.3232 67.6176C45.5578 67.7073 45.7545 67.8419 45.9132 68.0213C46.0719 68.1972 46.1926 68.4129 46.2754 68.6682C46.3617 68.9201 46.4048 69.2099 46.4048 69.5377V73H45.0955V69.5377C45.0955 69.1926 45.0195 68.9339 44.8677 68.7614C44.7159 68.5854 44.4934 68.4974 44.2001 68.4974C44.0656 68.4974 43.9396 68.5198 43.8223 68.5647C43.7085 68.6095 43.6084 68.6751 43.5221 68.7614C43.4359 68.8476 43.3669 68.9563 43.3151 69.0874C43.2668 69.2185 43.2427 69.3686 43.2427 69.5377V73H41.9281V69.5377C41.9281 69.1754 41.8539 68.9114 41.7056 68.7458C41.5607 68.5802 41.3467 68.4974 41.0638 68.4974C40.8741 68.4974 40.6964 68.544 40.5308 68.6371C40.3686 68.7303 40.2168 68.858 40.0753 69.0201V73H38.766ZM31.1638 80.484C31.1638 81.0547 31.2371 81.6093 31.3838 82.148C31.5305 82.684 31.7425 83.196 32.0198 83.684C32.0358 83.7133 32.0465 83.7387 32.0518 83.76C32.0571 83.7813 32.0598 83.8027 32.0598 83.824C32.0598 83.8613 32.0505 83.892 32.0318 83.916C32.0131 83.94 31.9891 83.9613 31.9598 83.98L31.6438 84.172C31.4438 83.8653 31.2731 83.5613 31.1318 83.26C30.9931 82.9587 30.8798 82.656 30.7918 82.352C30.7065 82.048 30.6438 81.7427 30.6038 81.436C30.5638 81.1267 30.5438 80.8093 30.5438 80.484C30.5438 80.1613 30.5638 79.8453 30.6038 79.536C30.6438 79.2267 30.7065 78.9213 30.7918 78.62C30.8798 78.316 30.9931 78.0133 31.1318 77.712C31.2731 77.4107 31.4438 77.1053 31.6438 76.796L31.9598 76.992C31.9891 77.0107 32.0131 77.032 32.0318 77.056C32.0505 77.08 32.0598 77.1107 32.0598 77.148C32.0598 77.188 32.0465 77.2333 32.0198 77.284C31.7398 77.7693 31.5265 78.2813 31.3798 78.82C31.2358 79.3587 31.1638 79.9133 31.1638 80.484ZM33.5543 82.456H34.7863V78.548C34.7863 78.4307 34.7903 78.312 34.7983 78.192L33.7743 79.068C33.7476 79.0893 33.7209 79.1053 33.6943 79.116C33.6676 79.124 33.6423 79.128 33.6183 79.128C33.5783 79.128 33.5423 79.12 33.5103 79.104C33.4783 79.0853 33.4543 79.064 33.4383 79.04L33.2143 78.732L34.9183 77.256H35.4983V82.456H36.6263V83H33.5543V82.456ZM39.3629 83.064C39.0775 83.064 38.8162 83.0267 38.5789 82.952C38.3415 82.8747 38.1375 82.7653 37.9669 82.624C37.7962 82.4827 37.6642 82.312 37.5709 82.112C37.4775 81.9093 37.4309 81.6827 37.4309 81.432C37.4309 81.064 37.5269 80.7613 37.7189 80.524C37.9109 80.284 38.1855 80.1133 38.5429 80.012C38.2415 79.9 38.0135 79.7333 37.8589 79.512C37.7069 79.288 37.6309 79.0213 37.6309 78.712C37.6309 78.5013 37.6722 78.304 37.7549 78.12C37.8375 77.936 37.9549 77.776 38.1069 77.64C38.2589 77.504 38.4402 77.3973 38.6509 77.32C38.8642 77.2427 39.1015 77.204 39.3629 77.204C39.6215 77.204 39.8575 77.2427 40.0709 77.32C40.2842 77.3973 40.4669 77.504 40.6189 77.64C40.7709 77.776 40.8882 77.936 40.9709 78.12C41.0535 78.304 41.0949 78.5013 41.0949 78.712C41.0949 79.0213 41.0175 79.288 40.8629 79.512C40.7082 79.7333 40.4815 79.9 40.1829 80.012C40.5402 80.1133 40.8149 80.284 41.0069 80.524C41.1989 80.7613 41.2949 81.064 41.2949 81.432C41.2949 81.6827 41.2469 81.9093 41.1509 82.112C41.0575 82.312 40.9255 82.4827 40.7549 82.624C40.5869 82.7653 40.3842 82.8747 40.1469 82.952C39.9095 83.0267 39.6482 83.064 39.3629 83.064ZM39.3629 82.496C39.5495 82.496 39.7162 82.4707 39.8629 82.42C40.0122 82.3667 40.1375 82.2933 40.2389 82.2C40.3429 82.104 40.4215 81.9907 40.4749 81.86C40.5309 81.7267 40.5589 81.58 40.5589 81.42C40.5589 81.2227 40.5255 81.0547 40.4589 80.916C40.3949 80.7747 40.3069 80.66 40.1949 80.572C40.0855 80.484 39.9589 80.42 39.8149 80.38C39.6709 80.3373 39.5202 80.316 39.3629 80.316C39.2055 80.316 39.0549 80.3373 38.9109 80.38C38.7669 80.42 38.6389 80.484 38.5269 80.572C38.4175 80.66 38.3295 80.7747 38.2629 80.916C38.1989 81.0547 38.1669 81.2227 38.1669 81.42C38.1669 81.58 38.1935 81.7267 38.2469 81.86C38.3029 81.9907 38.3815 82.104 38.4829 82.2C38.5869 82.2933 38.7122 82.3667 38.8589 82.42C39.0082 82.4707 39.1762 82.496 39.3629 82.496ZM39.3629 79.744C39.5495 79.744 39.7082 79.716 39.8389 79.66C39.9722 79.6013 40.0802 79.5253 40.1629 79.432C40.2455 79.336 40.3055 79.2267 40.3429 79.104C40.3802 78.9813 40.3989 78.8547 40.3989 78.724C40.3989 78.5907 40.3762 78.4653 40.3309 78.348C40.2882 78.2307 40.2229 78.128 40.1349 78.04C40.0495 77.952 39.9415 77.8827 39.8109 77.832C39.6829 77.7813 39.5335 77.756 39.3629 77.756C39.1922 77.756 39.0415 77.7813 38.9109 77.832C38.7829 77.8827 38.6749 77.952 38.5869 78.04C38.5015 78.128 38.4362 78.2307 38.3909 78.348C38.3482 78.4653 38.3269 78.5907 38.3269 78.724C38.3269 78.8547 38.3455 78.9813 38.3829 79.104C38.4202 79.2267 38.4802 79.336 38.5629 79.432C38.6455 79.5253 38.7522 79.6013 38.8829 79.66C39.0162 79.716 39.1762 79.744 39.3629 79.744ZM42.7715 76.968C42.8488 77.096 42.9048 77.224 42.9395 77.352C42.9742 77.48 42.9915 77.608 42.9915 77.736C42.9915 77.9787 42.9315 78.2107 42.8115 78.432C42.6942 78.6507 42.5302 78.852 42.3195 79.036L42.0995 78.9C42.0782 78.8867 42.0635 78.872 42.0555 78.856C42.0502 78.84 42.0475 78.824 42.0475 78.808C42.0475 78.7707 42.0608 78.7387 42.0875 78.712C42.1302 78.6613 42.1715 78.6067 42.2115 78.548C42.2515 78.4867 42.2875 78.424 42.3195 78.36C42.3515 78.2933 42.3768 78.224 42.3955 78.152C42.4142 78.08 42.4235 78.004 42.4235 77.924C42.4235 77.8387 42.4102 77.7507 42.3835 77.66C42.3595 77.5693 42.3168 77.4733 42.2555 77.372C42.2368 77.3427 42.2275 77.3133 42.2275 77.284C42.2275 77.22 42.2635 77.1733 42.3355 77.144L42.7715 76.968ZM43.9875 76.968C44.0648 77.096 44.1208 77.224 44.1555 77.352C44.1902 77.48 44.2075 77.608 44.2075 77.736C44.2075 77.9787 44.1475 78.2107 44.0275 78.432C43.9102 78.6507 43.7462 78.852 43.5355 79.036L43.3155 78.9C43.2942 78.8867 43.2795 78.872 43.2715 78.856C43.2662 78.84 43.2635 78.824 43.2635 78.808C43.2635 78.7707 43.2768 78.7387 43.3035 78.712C43.3462 78.6613 43.3875 78.6067 43.4275 78.548C43.4675 78.4867 43.5035 78.424 43.5355 78.36C43.5675 78.2933 43.5928 78.224 43.6115 78.152C43.6302 78.08 43.6395 78.004 43.6395 77.924C43.6395 77.8387 43.6262 77.7507 43.5995 77.66C43.5755 77.5693 43.5328 77.4733 43.4715 77.372C43.4528 77.3427 43.4435 77.3133 43.4435 77.284C43.4435 77.22 43.4795 77.1733 43.5515 77.144L43.9875 76.968ZM45.7936 80.484C45.7936 79.9133 45.7202 79.3587 45.5736 78.82C45.4296 78.2813 45.2176 77.7693 44.9376 77.284C44.9109 77.2333 44.8976 77.188 44.8976 77.148C44.8976 77.1107 44.9069 77.08 44.9256 77.056C44.9442 77.032 44.9682 77.0107 44.9976 76.992L45.3136 76.796C45.5136 77.1053 45.6829 77.4107 45.8216 77.712C45.9629 78.0133 46.0762 78.316 46.1616 78.62C46.2496 78.9213 46.3136 79.2267 46.3536 79.536C46.3936 79.8453 46.4136 80.1613 46.4136 80.484C46.4136 80.8093 46.3936 81.1267 46.3536 81.436C46.3136 81.7427 46.2496 82.048 46.1616 82.352C46.0762 82.656 45.9629 82.9587 45.8216 83.26C45.6829 83.5613 45.5136 83.8653 45.3136 84.172L44.9976 83.98C44.9682 83.9613 44.9442 83.94 44.9256 83.916C44.9069 83.892 44.8976 83.8613 44.8976 83.824C44.8976 83.8027 44.9002 83.7813 44.9056 83.76C44.9109 83.7387 44.9216 83.7133 44.9376 83.684C45.2149 83.196 45.4269 82.684 45.5736 82.148C45.7202 81.6093 45.7936 81.0547 45.7936 80.484Z" fill="black"/>
<path d="M166.404 137V136.565C166.404 136.476 166.421 136.382 166.455 136.286C166.493 136.189 166.554 136.103 166.637 136.027L168.96 133.693C169.154 133.496 169.328 133.308 169.483 133.129C169.638 132.946 169.766 132.767 169.866 132.591C169.97 132.415 170.049 132.235 170.104 132.052C170.159 131.869 170.187 131.678 170.187 131.478C170.187 131.295 170.159 131.135 170.104 130.997C170.052 130.855 169.978 130.738 169.882 130.645C169.785 130.548 169.668 130.476 169.53 130.427C169.395 130.379 169.243 130.355 169.074 130.355C168.919 130.355 168.774 130.377 168.639 130.422C168.508 130.467 168.391 130.529 168.288 130.608C168.187 130.688 168.101 130.781 168.029 130.888C167.96 130.991 167.906 131.107 167.868 131.235C167.81 131.397 167.732 131.505 167.635 131.561C167.542 131.612 167.406 131.624 167.227 131.597L166.533 131.473C166.585 131.107 166.687 130.786 166.838 130.51C166.994 130.231 167.185 129.998 167.413 129.811C167.641 129.625 167.901 129.485 168.194 129.392C168.491 129.299 168.809 129.252 169.147 129.252C169.499 129.252 169.821 129.304 170.114 129.408C170.411 129.511 170.663 129.66 170.87 129.853C171.077 130.043 171.239 130.272 171.357 130.541C171.474 130.81 171.532 131.109 171.532 131.436C171.532 131.719 171.491 131.982 171.408 132.223C171.325 132.461 171.213 132.691 171.072 132.911C170.934 133.129 170.77 133.341 170.58 133.548C170.394 133.752 170.199 133.959 169.995 134.169L168.262 135.934C168.431 135.886 168.598 135.848 168.764 135.82C168.929 135.792 169.086 135.779 169.235 135.779H171.201C171.343 135.779 171.455 135.82 171.538 135.903C171.62 135.982 171.662 136.086 171.662 136.213V137H166.404ZM172.412 133.17C172.412 132.497 172.483 131.916 172.625 131.426C172.766 130.933 172.963 130.526 173.214 130.205C173.466 129.884 173.761 129.646 174.099 129.491C174.441 129.332 174.812 129.252 175.212 129.252C175.612 129.252 175.983 129.332 176.325 129.491C176.67 129.646 176.968 129.884 177.22 130.205C177.476 130.526 177.674 130.933 177.815 131.426C177.96 131.916 178.033 132.497 178.033 133.17C178.033 133.84 177.96 134.421 177.815 134.914C177.674 135.404 177.476 135.81 177.22 136.131C176.968 136.451 176.67 136.691 176.325 136.85C175.983 137.005 175.612 137.083 175.212 137.083C174.812 137.083 174.441 137.005 174.099 136.85C173.761 136.691 173.466 136.451 173.214 136.131C172.963 135.81 172.766 135.403 172.625 134.909C172.483 134.416 172.412 133.836 172.412 133.17ZM173.763 133.17C173.763 133.726 173.803 134.185 173.882 134.547C173.961 134.909 174.068 135.199 174.203 135.416C174.338 135.63 174.493 135.78 174.669 135.867C174.845 135.953 175.026 135.996 175.212 135.996C175.402 135.996 175.585 135.953 175.761 135.867C175.94 135.78 176.097 135.63 176.232 135.416C176.366 135.199 176.475 134.909 176.558 134.547C176.641 134.185 176.682 133.726 176.682 133.17C176.682 132.615 176.641 132.156 176.558 131.794C176.475 131.428 176.366 131.138 176.232 130.924C176.097 130.707 175.94 130.555 175.761 130.469C175.585 130.382 175.402 130.339 175.212 130.339C175.026 130.339 174.845 130.382 174.669 130.469C174.493 130.555 174.338 130.707 174.203 130.924C174.068 131.138 173.961 131.428 173.882 131.794C173.803 132.156 173.763 132.615 173.763 133.17ZM181.231 134.273C181.231 133.872 181.288 133.501 181.402 133.16C181.516 132.818 181.683 132.523 181.904 132.275C182.128 132.026 182.404 131.832 182.732 131.69C183.063 131.549 183.443 131.478 183.871 131.478C184.278 131.478 184.633 131.543 184.937 131.675C185.24 131.806 185.515 131.992 185.76 132.233L185.418 132.715C185.38 132.763 185.342 132.801 185.304 132.829C185.266 132.856 185.211 132.87 185.139 132.87C185.073 132.87 185.007 132.851 184.942 132.813C184.88 132.772 184.804 132.725 184.714 132.673C184.628 132.622 184.523 132.577 184.399 132.539C184.278 132.497 184.128 132.477 183.948 132.477C183.717 132.477 183.515 132.518 183.343 132.601C183.17 132.684 183.025 132.803 182.908 132.958C182.794 133.113 182.71 133.301 182.654 133.522C182.599 133.743 182.572 133.993 182.572 134.273C182.572 134.562 182.603 134.821 182.665 135.049C182.727 135.273 182.815 135.463 182.929 135.618C183.046 135.77 183.187 135.886 183.353 135.965C183.519 136.044 183.707 136.084 183.917 136.084C184.124 136.084 184.292 136.058 184.419 136.006C184.55 135.955 184.659 135.898 184.745 135.836C184.835 135.773 184.913 135.718 184.978 135.67C185.044 135.618 185.118 135.592 185.201 135.592C185.308 135.592 185.387 135.632 185.439 135.711L185.811 136.187C185.666 136.357 185.51 136.5 185.34 136.617C185.171 136.731 184.995 136.822 184.813 136.891C184.633 136.96 184.447 137.009 184.254 137.036C184.06 137.064 183.869 137.078 183.679 137.078C183.344 137.078 183.027 137.016 182.727 136.891C182.43 136.767 182.17 136.584 181.945 136.343C181.725 136.101 181.55 135.808 181.423 135.463C181.295 135.114 181.231 134.718 181.231 134.273ZM186.634 137V131.561H187.436C187.606 131.561 187.716 131.64 187.768 131.799L187.851 132.202C187.947 132.095 188.047 131.999 188.151 131.913C188.258 131.823 188.37 131.747 188.487 131.685C188.604 131.619 188.73 131.569 188.865 131.535C189.003 131.497 189.153 131.478 189.315 131.478C189.657 131.478 189.938 131.571 190.159 131.757C190.38 131.944 190.545 132.19 190.656 132.497C190.742 132.318 190.847 132.164 190.971 132.037C191.099 131.906 191.239 131.8 191.39 131.721C191.546 131.638 191.708 131.578 191.877 131.54C192.049 131.499 192.222 131.478 192.395 131.478C192.695 131.478 192.96 131.524 193.192 131.618C193.426 131.707 193.623 131.842 193.782 132.021C193.94 132.197 194.061 132.413 194.144 132.668C194.23 132.92 194.273 133.21 194.273 133.538V137H192.964V133.538C192.964 133.193 192.888 132.934 192.736 132.761C192.584 132.585 192.362 132.497 192.068 132.497C191.934 132.497 191.808 132.52 191.691 132.565C191.577 132.61 191.477 132.675 191.39 132.761C191.304 132.848 191.235 132.956 191.183 133.087C191.135 133.219 191.111 133.369 191.111 133.538V137H189.796V133.538C189.796 133.175 189.722 132.911 189.574 132.746C189.429 132.58 189.215 132.497 188.932 132.497C188.742 132.497 188.565 132.544 188.399 132.637C188.237 132.73 188.085 132.858 187.944 133.02V137H186.634ZM167.301 145.169C167.301 145.811 167.383 146.435 167.548 147.041C167.713 147.644 167.952 148.221 168.264 148.77C168.282 148.803 168.294 148.831 168.3 148.855C168.306 148.879 168.309 148.903 168.309 148.927C168.309 148.969 168.298 149.004 168.277 149.031C168.256 149.058 168.229 149.082 168.196 149.103L167.841 149.319C167.616 148.974 167.424 148.632 167.265 148.293C167.109 147.954 166.981 147.613 166.882 147.271C166.786 146.929 166.716 146.585 166.671 146.24C166.626 145.892 166.603 145.535 166.603 145.169C166.603 144.806 166.626 144.451 166.671 144.103C166.716 143.755 166.786 143.411 166.882 143.072C166.981 142.73 167.109 142.39 167.265 142.051C167.424 141.712 167.616 141.368 167.841 141.02L168.196 141.241C168.229 141.262 168.256 141.286 168.277 141.313C168.298 141.34 168.309 141.374 168.309 141.416C168.309 141.461 168.294 141.512 168.264 141.569C167.949 142.115 167.709 142.691 167.544 143.297C167.382 143.903 167.301 144.527 167.301 145.169ZM171.304 148.072C170.983 148.072 170.689 148.03 170.422 147.946C170.155 147.859 169.925 147.736 169.733 147.577C169.541 147.418 169.393 147.226 169.288 147.001C169.183 146.773 169.13 146.518 169.13 146.236C169.13 145.822 169.238 145.481 169.454 145.214C169.67 144.944 169.979 144.752 170.381 144.638C170.042 144.512 169.786 144.325 169.612 144.076C169.441 143.824 169.355 143.524 169.355 143.176C169.355 142.939 169.402 142.717 169.495 142.51C169.588 142.303 169.72 142.123 169.891 141.97C170.062 141.817 170.266 141.697 170.503 141.61C170.743 141.523 171.01 141.479 171.304 141.479C171.595 141.479 171.86 141.523 172.1 141.61C172.34 141.697 172.546 141.817 172.717 141.97C172.888 142.123 173.02 142.303 173.113 142.51C173.206 142.717 173.252 142.939 173.252 143.176C173.252 143.524 173.165 143.824 172.991 144.076C172.817 144.325 172.562 144.512 172.226 144.638C172.628 144.752 172.937 144.944 173.153 145.214C173.369 145.481 173.477 145.822 173.477 146.236C173.477 146.518 173.423 146.773 173.315 147.001C173.21 147.226 173.062 147.418 172.87 147.577C172.681 147.736 172.453 147.859 172.186 147.946C171.919 148.03 171.625 148.072 171.304 148.072ZM171.304 147.433C171.514 147.433 171.701 147.404 171.866 147.347C172.034 147.287 172.175 147.205 172.289 147.1C172.406 146.992 172.495 146.864 172.555 146.717C172.618 146.567 172.649 146.402 172.649 146.222C172.649 146 172.612 145.811 172.537 145.655C172.465 145.496 172.366 145.367 172.24 145.268C172.117 145.169 171.974 145.097 171.812 145.052C171.65 145.004 171.481 144.98 171.304 144.98C171.127 144.98 170.957 145.004 170.795 145.052C170.633 145.097 170.489 145.169 170.363 145.268C170.24 145.367 170.141 145.496 170.066 145.655C169.994 145.811 169.958 146 169.958 146.222C169.958 146.402 169.988 146.567 170.048 146.717C170.111 146.864 170.2 146.992 170.314 147.1C170.431 147.205 170.572 147.287 170.737 147.347C170.905 147.404 171.094 147.433 171.304 147.433ZM171.304 144.337C171.514 144.337 171.692 144.305 171.839 144.242C171.989 144.176 172.111 144.091 172.204 143.986C172.297 143.878 172.364 143.755 172.406 143.617C172.448 143.479 172.469 143.336 172.469 143.189C172.469 143.039 172.444 142.898 172.393 142.766C172.345 142.634 172.271 142.519 172.172 142.42C172.076 142.321 171.955 142.243 171.808 142.186C171.664 142.129 171.496 142.1 171.304 142.1C171.112 142.1 170.942 142.129 170.795 142.186C170.651 142.243 170.53 142.321 170.431 142.42C170.335 142.519 170.261 142.634 170.21 142.766C170.162 142.898 170.138 143.039 170.138 143.189C170.138 143.336 170.159 143.479 170.201 143.617C170.243 143.755 170.311 143.878 170.404 143.986C170.497 144.091 170.617 144.176 170.764 144.242C170.914 144.305 171.094 144.337 171.304 144.337ZM175.138 141.214C175.225 141.358 175.288 141.502 175.327 141.646C175.366 141.79 175.386 141.934 175.386 142.078C175.386 142.351 175.318 142.612 175.183 142.861C175.051 143.107 174.867 143.333 174.63 143.54L174.382 143.387C174.358 143.372 174.342 143.356 174.333 143.338C174.327 143.32 174.324 143.302 174.324 143.284C174.324 143.242 174.339 143.206 174.369 143.176C174.417 143.119 174.463 143.057 174.508 142.991C174.553 142.922 174.594 142.852 174.63 142.78C174.666 142.705 174.694 142.627 174.715 142.546C174.736 142.465 174.747 142.379 174.747 142.289C174.747 142.193 174.732 142.094 174.702 141.992C174.675 141.89 174.627 141.782 174.558 141.668C174.537 141.635 174.526 141.602 174.526 141.569C174.526 141.497 174.567 141.445 174.648 141.412L175.138 141.214ZM176.506 141.214C176.593 141.358 176.656 141.502 176.695 141.646C176.734 141.79 176.754 141.934 176.754 142.078C176.754 142.351 176.686 142.612 176.551 142.861C176.419 143.107 176.235 143.333 175.998 143.54L175.75 143.387C175.726 143.372 175.71 143.356 175.701 143.338C175.695 143.32 175.692 143.302 175.692 143.284C175.692 143.242 175.707 143.206 175.737 143.176C175.785 143.119 175.831 143.057 175.876 142.991C175.921 142.922 175.962 142.852 175.998 142.78C176.034 142.705 176.062 142.627 176.083 142.546C176.104 142.465 176.115 142.379 176.115 142.289C176.115 142.193 176.1 142.094 176.07 141.992C176.043 141.89 175.995 141.782 175.926 141.668C175.905 141.635 175.894 141.602 175.894 141.569C175.894 141.497 175.935 141.445 176.016 141.412L176.506 141.214ZM178.538 145.169C178.538 144.527 178.456 143.903 178.291 143.297C178.129 142.691 177.89 142.115 177.575 141.569C177.545 141.512 177.53 141.461 177.53 141.416C177.53 141.374 177.541 141.34 177.562 141.313C177.583 141.286 177.61 141.262 177.643 141.241L177.998 141.02C178.223 141.368 178.414 141.712 178.57 142.051C178.729 142.39 178.856 142.73 178.952 143.072C179.051 143.411 179.123 143.755 179.168 144.103C179.213 144.451 179.236 144.806 179.236 145.169C179.236 145.535 179.213 145.892 179.168 146.24C179.123 146.585 179.051 146.929 178.952 147.271C178.856 147.613 178.729 147.954 178.57 148.293C178.414 148.632 178.223 148.974 177.998 149.319L177.643 149.103C177.61 149.082 177.583 149.058 177.562 149.031C177.541 149.004 177.53 148.969 177.53 148.927C177.53 148.903 177.533 148.879 177.539 148.855C177.545 148.831 177.557 148.803 177.575 148.77C177.887 148.221 178.126 147.644 178.291 147.041C178.456 146.435 178.538 145.811 178.538 145.169Z" fill="black"/>
<path d="M86.8443 6.05405L87.4188 5.81598C87.5706 5.75388 87.7121 5.73835 87.8432 5.76941C87.9777 5.79701 88.0743 5.86774 88.133 5.9816C88.1951 6.10581 88.2641 6.22829 88.34 6.34905C88.4194 6.46636 88.5108 6.57332 88.6143 6.66992C88.7213 6.76308 88.8455 6.83899 88.9869 6.89764C89.1318 6.95285 89.3044 6.98045 89.5045 6.98045C89.7287 6.98045 89.9219 6.94422 90.0841 6.87176C90.2497 6.79931 90.3877 6.70615 90.4981 6.59229C90.612 6.47498 90.6965 6.3456 90.7517 6.20414C90.8069 6.05923 90.8345 5.91432 90.8345 5.76941C90.8345 5.58654 90.8138 5.42093 90.7724 5.27257C90.7345 5.12076 90.6534 4.99137 90.5292 4.88441C90.405 4.77746 90.2273 4.69465 89.9961 4.63599C89.765 4.57389 89.4562 4.54284 89.0697 4.54284V3.61127C89.3906 3.60782 89.6563 3.57849 89.8667 3.52329C90.0807 3.46463 90.2497 3.38527 90.3739 3.28522C90.4981 3.18516 90.5844 3.0644 90.6327 2.92294C90.6845 2.78148 90.7103 2.62622 90.7103 2.45715C90.7103 2.09833 90.6086 1.82576 90.405 1.63944C90.2049 1.44968 89.9375 1.3548 89.6028 1.3548C89.4475 1.3548 89.3044 1.37722 89.1732 1.42208C89.0421 1.46693 88.9248 1.52903 88.8213 1.60839C88.7178 1.68775 88.6298 1.7809 88.5574 1.88786C88.4884 1.99137 88.4366 2.10695 88.4021 2.23461C88.3435 2.39677 88.2641 2.50546 88.164 2.56066C88.0674 2.61242 87.9311 2.62449 87.7552 2.59689L87.0669 2.47268C87.1186 2.10695 87.2204 1.78608 87.3722 1.51006C87.524 1.23059 87.7138 0.997694 87.9415 0.81138C88.1692 0.625066 88.4297 0.48533 88.723 0.392173C89.0197 0.299016 89.3371 0.252437 89.6753 0.252437C90.0272 0.252437 90.3463 0.302466 90.6327 0.402524C90.9191 0.502581 91.1623 0.642317 91.3624 0.82173C91.5625 1.00114 91.7161 1.21161 91.823 1.45313C91.9335 1.6912 91.9887 1.94997 91.9887 2.22944C91.9887 2.47441 91.9611 2.69005 91.9059 2.87636C91.8506 3.05923 91.7713 3.21966 91.6678 3.35767C91.5643 3.49568 91.4366 3.61299 91.2848 3.7096C91.1364 3.80276 90.9657 3.88211 90.7724 3.94767C91.2313 4.09258 91.5746 4.3134 91.8023 4.61012C92.0301 4.90684 92.1439 5.27947 92.1439 5.728C92.1439 6.11098 92.0732 6.44911 91.9317 6.74238C91.7903 7.0322 91.5988 7.27717 91.3573 7.47729C91.1157 7.6774 90.8363 7.82921 90.5188 7.93272C90.2049 8.03278 89.8719 8.08281 89.52 8.08281C89.1336 8.08281 88.7972 8.03968 88.5108 7.95342C88.2244 7.86371 87.9743 7.7326 87.7604 7.56009C87.5499 7.38758 87.3705 7.17539 87.2221 6.92352C87.0738 6.67165 86.9478 6.38183 86.8443 6.05405ZM93.1014 7.18229L93.505 6.62852C93.5913 6.50776 93.7017 6.44738 93.8363 6.44738C93.926 6.44738 94.0157 6.47671 94.1054 6.53536C94.1985 6.59057 94.3038 6.65267 94.4211 6.72168C94.5419 6.78723 94.6816 6.84761 94.8403 6.90282C95.0025 6.95802 95.1974 6.98562 95.4251 6.98562C95.6666 6.98562 95.8788 6.94767 96.0617 6.87176C96.2446 6.79241 96.3964 6.68373 96.5171 6.54571C96.6379 6.40425 96.7293 6.23864 96.7914 6.04888C96.8535 5.85566 96.8846 5.6452 96.8846 5.41748C96.8846 5 96.7638 4.67395 96.5223 4.43933C96.2808 4.20471 95.9237 4.0874 95.451 4.0874C95.0887 4.0874 94.7161 4.15468 94.3331 4.28924L93.5154 4.05635L94.152 0.335244H97.9352V0.894186C97.9352 1.0805 97.8765 1.23231 97.7592 1.34962C97.6419 1.46693 97.4435 1.52558 97.164 1.52558H95.0628L94.7885 3.12478C95.1336 3.05577 95.4475 3.01955 95.7305 3.0161C96.1341 3.0161 96.4895 3.07648 96.7966 3.19724C97.1037 3.31799 97.3607 3.48533 97.5677 3.69925C97.7782 3.90971 97.9352 4.15813 98.0387 4.44451C98.1456 4.72743 98.1991 5.03277 98.1991 5.36055C98.1991 5.76768 98.1267 6.13858 97.9818 6.47326C97.8403 6.80793 97.6419 7.09603 97.3866 7.33755C97.1347 7.57562 96.8345 7.76021 96.4861 7.89132C96.1376 8.01898 95.7581 8.08281 95.3475 8.08281C95.106 8.08281 94.8783 8.05865 94.6643 8.01035C94.4504 7.96205 94.2486 7.89649 94.0588 7.81369C93.869 7.73088 93.6931 7.636 93.5309 7.52904C93.3722 7.41863 93.229 7.30305 93.1014 7.18229ZM101.724 5.27257C101.724 4.87234 101.78 4.50143 101.894 4.15986C102.008 3.81828 102.176 3.52329 102.396 3.27487C102.621 3.02645 102.897 2.83151 103.224 2.69005C103.556 2.54859 103.935 2.47786 104.363 2.47786C104.77 2.47786 105.126 2.54341 105.429 2.67452C105.733 2.80563 106.007 2.99195 106.252 3.23346L105.91 3.71477C105.873 3.76308 105.835 3.80103 105.797 3.82863C105.759 3.85624 105.703 3.87004 105.631 3.87004C105.565 3.87004 105.5 3.85106 105.434 3.81311C105.372 3.7717 105.296 3.72513 105.207 3.67337C105.12 3.62162 105.015 3.57676 104.891 3.53881C104.77 3.49741 104.62 3.47671 104.441 3.47671C104.209 3.47671 104.008 3.51811 103.835 3.60092C103.663 3.68372 103.518 3.80276 103.4 3.95802C103.287 4.11328 103.202 4.30132 103.147 4.52214C103.092 4.74295 103.064 4.9931 103.064 5.27257C103.064 5.56239 103.095 5.82116 103.157 6.04888C103.219 6.27314 103.307 6.46291 103.421 6.61817C103.538 6.76998 103.68 6.88557 103.845 6.96492C104.011 7.04428 104.199 7.08396 104.41 7.08396C104.617 7.08396 104.784 7.05808 104.912 7.00632C105.043 6.95457 105.151 6.89764 105.238 6.83554C105.327 6.77343 105.405 6.71823 105.471 6.66992C105.536 6.61817 105.61 6.59229 105.693 6.59229C105.8 6.59229 105.879 6.63197 105.931 6.71133L106.304 7.18746C106.159 7.35653 106.002 7.49971 105.833 7.61702C105.664 7.73088 105.488 7.82231 105.305 7.89132C105.126 7.96032 104.939 8.00863 104.746 8.03623C104.553 8.06383 104.361 8.07763 104.172 8.07763C103.837 8.07763 103.519 8.01553 103.219 7.89132C102.923 7.76711 102.662 7.58424 102.438 7.34273C102.217 7.10121 102.043 6.80793 101.915 6.46291C101.787 6.11443 101.724 5.71765 101.724 5.27257ZM107.127 8V2.56066H107.929C108.098 2.56066 108.208 2.64002 108.26 2.79873L108.343 3.20241C108.44 3.09545 108.54 2.99885 108.643 2.91259C108.75 2.82288 108.862 2.74698 108.979 2.68487C109.097 2.61932 109.223 2.56929 109.357 2.53479C109.495 2.49683 109.645 2.47786 109.808 2.47786C110.149 2.47786 110.43 2.57101 110.651 2.75733C110.872 2.94364 111.038 3.19034 111.148 3.49741C111.234 3.31799 111.339 3.16446 111.464 3.0368C111.591 2.90569 111.731 2.80046 111.883 2.7211C112.038 2.63829 112.2 2.57791 112.369 2.53996C112.542 2.49856 112.714 2.47786 112.887 2.47786C113.187 2.47786 113.453 2.52443 113.684 2.61759C113.919 2.7073 114.115 2.84186 114.274 3.02127C114.433 3.19724 114.553 3.41288 114.636 3.6682C114.722 3.92007 114.766 4.20989 114.766 4.53766V8H113.456V4.53766C113.456 4.19264 113.38 3.93387 113.228 3.76135C113.077 3.58539 112.854 3.49741 112.561 3.49741C112.426 3.49741 112.3 3.51984 112.183 3.56469C112.069 3.60954 111.969 3.6751 111.883 3.76135C111.797 3.84761 111.728 3.95629 111.676 4.0874C111.628 4.21851 111.603 4.3686 111.603 4.53766V8H110.289V4.53766C110.289 4.17538 110.215 3.91144 110.066 3.74583C109.921 3.58021 109.707 3.49741 109.425 3.49741C109.235 3.49741 109.057 3.54399 108.891 3.63714C108.729 3.7303 108.578 3.85796 108.436 4.02012V8H107.127ZM121.671 5.484C121.671 6.05467 121.745 6.60933 121.891 7.148C122.038 7.684 122.25 8.196 122.527 8.684C122.543 8.71333 122.554 8.73867 122.559 8.76C122.565 8.78133 122.567 8.80267 122.567 8.824C122.567 8.86133 122.558 8.892 122.539 8.916C122.521 8.94 122.497 8.96133 122.467 8.98L122.151 9.172C121.951 8.86533 121.781 8.56133 121.639 8.26C121.501 7.95867 121.387 7.656 121.299 7.352C121.214 7.048 121.151 6.74267 121.111 6.436C121.071 6.12667 121.051 5.80933 121.051 5.484C121.051 5.16133 121.071 4.84533 121.111 4.536C121.151 4.22667 121.214 3.92133 121.299 3.62C121.387 3.316 121.501 3.01333 121.639 2.712C121.781 2.41067 121.951 2.10533 122.151 1.796L122.467 1.992C122.497 2.01067 122.521 2.032 122.539 2.056C122.558 2.08 122.567 2.11067 122.567 2.148C122.567 2.188 122.554 2.23333 122.527 2.284C122.247 2.76933 122.034 3.28133 121.887 3.82C121.743 4.35867 121.671 4.91333 121.671 5.484ZM124.062 7.456H125.294V3.548C125.294 3.43067 125.298 3.312 125.306 3.192L124.282 4.068C124.255 4.08933 124.229 4.10533 124.202 4.116C124.175 4.124 124.15 4.128 124.126 4.128C124.086 4.128 124.05 4.12 124.018 4.104C123.986 4.08533 123.962 4.064 123.946 4.04L123.722 3.732L125.426 2.256H126.006V7.456H127.134V8H124.062V7.456ZM131.166 5.932H132.034V6.34C132.034 6.38267 132.021 6.41867 131.994 6.448C131.97 6.47733 131.932 6.492 131.878 6.492H131.166V8H130.538V6.492H127.998C127.945 6.492 127.898 6.47733 127.858 6.448C127.821 6.416 127.797 6.37733 127.786 6.332L127.714 5.968L130.502 2.268H131.166V5.932ZM130.538 3.568C130.538 3.49867 130.54 3.424 130.542 3.344C130.548 3.264 130.557 3.18133 130.57 3.096L128.486 5.932H130.538V3.568ZM133.279 1.968C133.356 2.096 133.412 2.224 133.447 2.352C133.482 2.48 133.499 2.608 133.499 2.736C133.499 2.97867 133.439 3.21067 133.319 3.432C133.202 3.65067 133.038 3.852 132.827 4.036L132.607 3.9C132.586 3.88667 132.571 3.872 132.563 3.856C132.558 3.84 132.555 3.824 132.555 3.808C132.555 3.77067 132.568 3.73867 132.595 3.712C132.638 3.66133 132.679 3.60667 132.719 3.548C132.759 3.48667 132.795 3.424 132.827 3.36C132.859 3.29333 132.884 3.224 132.903 3.152C132.922 3.08 132.931 3.004 132.931 2.924C132.931 2.83867 132.918 2.75067 132.891 2.66C132.867 2.56933 132.824 2.47333 132.763 2.372C132.744 2.34267 132.735 2.31333 132.735 2.284C132.735 2.22 132.771 2.17333 132.843 2.144L133.279 1.968ZM134.495 1.968C134.572 2.096 134.628 2.224 134.663 2.352C134.698 2.48 134.715 2.608 134.715 2.736C134.715 2.97867 134.655 3.21067 134.535 3.432C134.418 3.65067 134.254 3.852 134.043 4.036L133.823 3.9C133.802 3.88667 133.787 3.872 133.779 3.856C133.774 3.84 133.771 3.824 133.771 3.808C133.771 3.77067 133.784 3.73867 133.811 3.712C133.854 3.66133 133.895 3.60667 133.935 3.548C133.975 3.48667 134.011 3.424 134.043 3.36C134.075 3.29333 134.1 3.224 134.119 3.152C134.138 3.08 134.147 3.004 134.147 2.924C134.147 2.83867 134.134 2.75067 134.107 2.66C134.083 2.56933 134.04 2.47333 133.979 2.372C133.96 2.34267 133.951 2.31333 133.951 2.284C133.951 2.22 133.987 2.17333 134.059 2.144L134.495 1.968ZM136.301 5.484C136.301 4.91333 136.228 4.35867 136.081 3.82C135.937 3.28133 135.725 2.76933 135.445 2.284C135.419 2.23333 135.405 2.188 135.405 2.148C135.405 2.11067 135.415 2.08 135.433 2.056C135.452 2.032 135.476 2.01067 135.505 1.992L135.821 1.796C136.021 2.10533 136.191 2.41067 136.329 2.712C136.471 3.01333 136.584 3.316 136.669 3.62C136.757 3.92133 136.821 4.22667 136.861 4.536C136.901 4.84533 136.921 5.16133 136.921 5.484C136.921 5.80933 136.901 6.12667 136.861 6.436C136.821 6.74267 136.757 7.048 136.669 7.352C136.584 7.656 136.471 7.95867 136.329 8.26C136.191 8.56133 136.021 8.86533 135.821 9.172L135.505 8.98C135.476 8.96133 135.452 8.94 135.433 8.916C135.415 8.892 135.405 8.86133 135.405 8.824C135.405 8.80267 135.408 8.78133 135.413 8.76C135.419 8.73867 135.429 8.71333 135.445 8.684C135.723 8.196 135.935 7.684 136.081 7.148C136.228 6.60933 136.301 6.05467 136.301 5.484Z" fill="black"/>
</g>
<defs>
<clipPath id="clip0_977_270">
<rect width="225" height="150" fill="white"/>
</clipPath>
</defs>
</svg>
